<?xml version="1.0" encoding="UTF-8"?>
<svg id="Layer_1" data-name="Layer 1" xmlns="http://www.w3.org/2000/svg" xmlns:xlink="http://www.w3.org/1999/xlink" viewBox="0 0 877.74 602.74">
  <defs>
    <style>
      .cls-1 {
        fill: #d7d2d2;
      }

      .cls-2 {
        isolation: isolate;
      }

      .cls-3 {
        fill: #3f3e44;
      }

      .cls-4 {
        fill: #b3aaab;
      }

      .cls-5 {
        fill: #030303;
      }

      .cls-6 {
        fill: #1e1e26;
      }

      .cls-7 {
        clip-path: url(#clippath);
      }

      .cls-8 {
        fill: none;
      }

      .cls-9 {
        fill: #ce3936;
      }

      .cls-10 {
        fill: #b2aaab;
      }

      .cls-11 {
        fill: #595656;
      }
    </style>
    <clipPath id="clippath">
      <polygon class="cls-8" points="56.42 265.46 53.25 212.35 280.84 324.26 284.01 377.37 56.42 265.46"/>
    </clipPath>
  </defs>
  <path class="cls-4" d="M384.61,1.2c-.05-.4-.09-.8-.14-1.2,1.66,0,3.33,0,4.99,0-.03,.38-.07,.77-.1,1.15-1.58,.02-3.17,.03-4.75,.05Z"/>
  <path class="cls-6" d="M384.61,1.2c1.58-.02,3.17-.03,4.75-.05,30.17,15.17,60.33,30.36,90.52,45.5,37.18,18.65,74.38,37.25,111.58,55.87,17.11,8.56,34.39,16.8,51.32,25.69,59.2,31.1,119.47,60.06,179.06,90.38,5.78,2.94,11.59,5.85,17.43,8.66,2.54,1.22,3.8,2.93,3.64,5.85-.63,11.47,1.16,22.95,.04,34.41-.21,2.12,.89,2.58,2.16,3.29,5.64,3.2,11.48,6.1,16.89,9.65,6.91,4.54,12.93,10.19,14.88,18.64,1.85,8.01,.78,15.84-3.26,23.13-3.09,5.56-7.03,10.49-11.09,15.35-16.97,20.3-33.46,41.01-51.18,60.69-6.17,6.86-13.31,11.95-21.32,16.12-24.63,12.84-49.28,25.66-73.9,38.51-4.27,2.23-8.37,4.78-13.22,5.68-3.36,.63-5.64,3.84-8.79,4.5-13.18,2.73-26.34,6.83-39.39-1.39-7-4.41-15.29-6.48-22.54-10.58-.71-.4-1.85-.99-2.31-.7-5.29,3.21-12.21,3.86-15.94,9.45-3.24,4.86-6.65,9.55-10.39,14.03-17.2,20.55-33.86,41.54-51.86,61.43-5.97,6.59-12.92,11.41-20.61,15.43-24.91,13.02-49.94,25.83-74.72,39.11-7.04,3.78-14.5,7.11-21.79,9.45-12.88,4.14-25.89,5.46-39.75-1.32-58.54-28.64-116.56-58.31-174.84-87.46-13.38-6.69-27.1-12.79-40.12-20.1-11.16-6.27-22.48-12.17-33.96-17.75-15.24-7.41-30.46-14.85-45.72-22.22-11.9-5.75-19.42-15.11-23.91-26.92C51.71,358.96,27.43,294.3,3.06,229.67c-.88-2.33-1.89-4.61-2.84-6.91-.51-2.32,.02-4.6,.26-6.89,2.2-9.51,6.56-17.2,16.17-21.22,5.19-2.17,9.97-5.32,15.01-7.86,2.17-1.09,3.58-2.04,2.23-4.82-1.05-2.18-.34-3.36,2.4-4.11,5.78-1.58,10.86-4.94,16.2-7.62,16.05-8.03,32.07-16.13,48.02-24.36,4.01-2.07,8.05-2.81,12.49-2.42,20.55,1.84,41.19,.51,61.77,1.51,1.35,.07,2.56-.25,3.79-.94,27.13-15.15,54.26-30.31,81.49-45.31,2.89-1.59,3.43-3.23,1.98-5.86-6.21-11.22-1.24-20.41,5.25-29.35,1.12-1.54,2.84-2.28,4.44-3.14,23.52-12.74,46.79-25.99,70.67-38.02,14.06-7.08,28.59-13.24,42.24-21.17ZM150.79,420.88c2.33,.25,4.13-1.1,6.01-2.09,1.04-.55,2.96-.65,2.47-2.5-.37-1.4-1.95-1.73-3.17-2.17-1.57-.56-2.88-.37-3.43,1.64-.48,1.74-1.26,3.4-1.9,5.1-.12,.06-.25,.09-.34,.17-.06,.05-.05,.18-.07,.27l.43-.42Zm350.51,73.96c6.19-5.06,11.66-10.89,17.06-16.74,4.94-5.35,6.23-15.1-.96-21.84-9.48-8.88-9.16-9.05-20.54-3.84-2.56,1.17-2.19,1.78-1.02,3.8,4.89,8.45,8.09,17.39,7.53,27.44-.22,3.87-1.98,7.36-2.06,11.2-.12,.05-.25,.07-.35,.15-.06,.05-.06,.17-.08,.25,.14-.14,.28-.28,.41-.42Zm-189.73-3c-.05-.12-.08-.25-.16-.35-.05-.06-.17-.05-.26-.08,.14,.14,.27,.29,.41,.43,1.04,4.03,2.3,8.31,.16,12.09-4.33,7.67-16.03,9.3-22.71,3.53-6.55-5.66-5.61-15.42,1.91-19.73,1.15-.66,2.35-1.24,3.58-1.74,.91-.37,2.04-.45,1.91-1.82-.1-1.03-1.04-1.11-1.78-1.45-2.71-1.26-5.44-2.48-8.05-3.92-1.83-1.01-3.2-.71-4.24,.93-3.36,5.32-5.24,11.24-4,17.39,2.54,12.57,12.25,21.61,25.08,22.52,13.22,.94,19.64-4.24,18.06-18.02-.71-6.22-3.3-8.64-9.91-9.8Zm243.71-122.67c5.11,1.76,10.44,1.88,15.74,1.86,16.29-.07,32.57,.14,48.85,.65,1.93,.7,3.3-.02,4.27-1.72,2.28,1,4.16-.11,6.08-1.13,13.62-7.23,27.48-13.98,41.05-21.32,17.35-9.39,35.28-17.72,52.96-26.51,1.84-.13,2.55-1.31,2.78-2.96,1.74,.47,2.83-.43,3.71-1.77,8.94-13.57,18.14-26.98,26.63-40.83,1.89-3.08,5.16-6,4.77-10.32,.61-.36,1.21-.71,1.82-1.07,1.37,.33,2.6-.05,3.83-.66,20.96-10.46,41.85-21.06,63.11-30.91,.87-.4,2.19-.64,2.29-1.7,.13-1.4-1.37-1.62-2.32-2.1-9.2-4.65-18.45-9.22-27.64-13.89-72.46-36.84-145.71-72.12-217.81-109.69-24.92-12.99-50.22-25.24-75.34-37.83-39.7-19.89-79.4-39.76-119.09-59.67-2.31-1.16-4.27-1.94-6.93-.41-19.6,11.27-39.67,21.61-60.34,30.77-1.3,.57-3.57,.52-3.15,3.04-.06,.67-.12,1.34-.18,2.01-2.8-1.88-4.38-.4-6.01,1.9-9.01,12.72-18.18,25.32-27.13,38.08-2.24,3.19-5.39,5.85-6.31,9.89-.79,.81-1.58,1.62-2.36,2.43-1.97,2.52-5.17,2.86-7.76,4.24-28.7,15.32-56.89,31.55-85.36,47.28-2.23,.23-1.59,1.95-1.71,3.28-3.38-1.8-6.81,.04-10.23-.06-17.56-.54-35.13-.81-52.69-1.17-2.24-1.97-1.99,1.63-3.39,1.52-4.86-2.29-9.52-1.95-14.35,.46-18.89,9.44-37.86,18.72-56.78,28.09-1.15,.57-2.99,.77-3.07,2.19-.08,1.53,1.83,1.6,2.93,2.15,25.17,12.71,50.78,24.49,75.88,37.39,79.26,40.74,159.51,79.54,238.82,120.22,40.4,20.72,81.2,40.65,121.73,61.13,3.96,2,7.15,1.75,10.73-.25,19.61-10.97,40.34-19.67,60.38-29.77,1.64-.33,1.55-1.63,1.59-2.85ZM41.79,282.25c.07,.49,.06,1.02,.24,1.47,10.39,26.84,20.79,53.68,31.23,80.51,.41,1.05,1.05,2.51,1.9,2.79,3.85,1.27,6.53,4.33,10.1,6.08,43.61,21.38,87.06,43.07,130.7,64.39,38.1,18.62,75.93,37.78,113.87,56.71,11.46,5.72,23.09,11.1,34.4,17.09,3.48,1.84,5.81,2.69,9.69,.49,35.46-20.08,71.04-39.95,106.74-59.59,4.3-2.37,6.36-4.89,5.57-9.67-.19-1.14-.21-2.31-.31-3.47-.61-9.46-.84-18.92-.68-28.4,.04-2.44-1.92-2.89-3.49-3.69-62.53-31.82-125.87-62.04-188.02-94.63-20.18-10.58-40.79-20.33-61.09-30.68-43.69-22.26-87.99-43.3-131.26-66.42-17.88-9.55-36.58-17.57-54.89-26.32-6.57-3.14-6.47-3.17-6.56,4.3-.33,26.8,1.17,53.6,.03,80.4-.13,3.01-.12,6.02,1.83,8.61Zm496.49,183.45c-.5,6.35,.04,13.01-4.64,18.33-4.93,5.6-9.65,11.4-14.87,16.72-12.43,12.64-23.89,26.17-35.66,39.38-13.96,15.66-28.85,30.56-41.17,47.66-.53,.73-1.84,1.36-.92,2.43,.73,.86,1.44-.17,2.11-.55,10.45-5.83,21.3-10.87,31.86-16.51,18.76-10.03,37.87-19.39,56.78-29.13,3.2-1.65,6.61-2.95,9.36-5.47,5.17-4.72,9.64-10.1,14.14-15.41,15.21-17.93,30.3-35.96,45.18-54.17,4.7-5.76,10.35-10.72,12.05-18.89,2.11-10.18-2.09-22.34-11.11-27.65-14.16-8.33-28.76-15.83-43.32-23.43-2.02-1.05-3.58-1.26-5.56-.29-13.41,6.58-26.83,13.13-40.28,19.63-2.02,.98-2.98,2.26-3.02,4.61-.04,2.81,.32,5.22,2.69,7.1,1.03,.82,2.13,2.1-.31,2.77-4.21,1.15-1.37,2.36,.1,3.13,3.38,1.77,6.92,3.23,10.31,4.99,3.44,1.79,7.64,3.05,9.96,5.84,4.37,5.26,7.16,11.6,6.34,18.91Zm334.35-157.11c-.51-9.95-4.25-17.91-12.23-22.7-11.81-7.08-24.22-13.13-36.2-19.93-3.98-2.26-7.38-2.02-11.22-.11-7.13,3.56-14.13,7.4-21.57,10.34-2.38,.94-4.19,2.57-5.54,4.81-2.31,3.83-4.74,7.6-7.18,11.35-5.27,8.06-5.19,7.89,3.27,12.67,4.5,2.55,9.54,4.07,12.16,9.75,3.65,7.92,3.06,15.84,2.31,23.92-.41,4.38-2.6,7.89-5.72,11.23-3.51,3.75-7.06,7.48-10.51,11.3-15.01,16.61-29.97,33.27-44.92,49.93-3.87,4.32-7.54,8.82-11.48,13.07-7.43,8.03-15.11,15.83-20.87,25.23-.78,1.28-3.47,2.02-2.12,3.77,.9,1.17,2.56-.77,3.9-1.23,.47-.16,.9-.42,1.35-.65,28.77-14.89,57.5-29.87,86.37-44.57,4.38-2.23,8.27-4.76,11.49-8.39,9.02-10.16,17.71-20.58,26.35-31.07,11.26-13.68,22.65-27.28,34.38-40.56,4.89-5.54,6.46-12.08,7.98-18.17Zm-460.86,289.28c2.43,.25,4.62-.76,6.83-1.34,2.86-.75,5.36-2.38,4.71-5.98-.73-4.08-4.15-2.91-6.43-2.5-4.61,.84-9.02,.18-13-1.71-22.65-10.76-45.12-21.9-67.78-32.65-16.32-7.75-31.65-17.66-49.13-22.91-.92-.28-1.78-.88-2.56-1.47-10.83-8.13-23.04-13.84-35.17-19.59-14.36-6.8-27.68-15.93-43.41-19.65-2.7-.64-5.15-2-6.91-3.8-7.57-7.74-17.43-12.07-26.51-17.21-18.55-10.52-37.85-19.74-57.4-28.39-9.97-4.42-19.13-10.39-25.3-19.99-4.83-7.52-7.03-16.1-10.03-24.32-6.81-18.72-13.41-37.49-25.79-53.51-.7-.91-1.41-2.62-2.39-2.13-1.27,.64-.04,2.01,.35,3.03,3.3,8.69,6.62,17.37,9.9,26.06,6.57,17.38,12.84,34.89,19.8,52.11,3.17,7.85,8.01,14.8,15.75,19.29,8.9,5.16,18.24,9.42,27.33,14.17,17.07,8.92,34.31,17.49,51.62,25.94,22.09,10.79,43.88,22.2,65.84,33.26,6.67,3.36,13.4,6.64,20.23,9.65,8.82,3.88,16.4,9.92,25.06,14.07,13.04,6.24,25.94,12.79,38.95,19.09,24.7,11.96,49.13,24.46,73.68,36.74,3.73,1.87,7.61,3.25,11.75,3.76Zm12.62-93.09c-7.79,.14-14.79,3-21.62,6.41-.54,.27-1.51,.44-1.32,1.23,.17,.73,1.07,.4,1.66,.44,4.81,.31,9.48,1.21,13.89,3.27,15.54,7.24,24.34,19.35,26.35,36.4,.13,1.07-.47,2.6,1.13,2.89,1.01,.18,1.68-.91,2.33-1.66,4.24-4.86,8.4-9.79,12.77-14.53,1.67-1.82,2.06-3.61,1.5-5.89-3.77-15.45-20.54-28.5-36.69-28.55Zm47.05-8.91c1.99,0,3.99,.1,5.98-.02,7.08-.4,13.15-5.63,13.86-12.01,1.02-9.17-1.52-17.35-6.81-24.85-1.46-2.08-2.48-2.08-4.34-.67-1.65,1.24-3.59,1.86-1.56,4.49,1.49,1.93,2.62,4.17,2.78,6.81,.51,8.51-6.75,15.55-16.37,16.32-6.57,.53-11.23-2.51-14.94-7.23-1.79-2.28-3.15-1.76-5-.68-2.66,1.56-.9,3.03,.14,4.42,6.54,8.79,14.99,13.87,26.25,13.41Zm-274.75-43.13c.25,2.29-.39,4.66,.48,6.92,5.06,13.23,17.01,20.25,30.54,19.13,6.27-.52,10.95-4.85,11.88-10.33,1.38-8.13-.81-13.51-6.77-16.5-.71-.36-1.8-.91-2.27-.64-1.22,.71-.24,1.74,.16,2.55,1.27,2.56,1.35,5.14,.17,7.7-2.55,5.51-8.09,7.31-12.99,8.99-4.55,1.56-8.76-1.88-11.7-5.2-5.12-5.77-4.06-13.3,1.49-17.55,2.32-1.78,5.47-2.05,7.32-4.47-2.77-1.49-5.54-2.98-8.31-4.46-.59-.31-1.22-.55-1.77-.91-2.24-1.5-3.75-.51-4.9,1.45-2.4,4.11-3.89,8.46-3.31,13.33Zm218.24,125.28c16.65,1.04,27.76-17.18,24.67-30.33-3.41-14.49-17.74-29.48-34.16-31.51-16.88-2.08-30.65,10.66-28.77,27.61,2.05,18.38,19.87,34.32,38.25,34.22Zm367.03-247.45c.15-3.39-1.36-6.15-3.48-8.55-1.97-2.24-4.13-4.33-6.32-6.36-4.13-3.83-5.33-3.61-8.18,1.1-1.2,1.98-2.59,3.84-3.84,5.8-1.22,1.92-1.65,3.96-.75,6.16,3.35,8.09,3.18,16.43,1.79,24.85-.16,.98-.56,2.14,.37,2.76,1.05,.7,1.81-.37,2.49-1.04,4.59-4.57,9.3-9.02,13.66-13.8,2.73-2.99,3.91-6.86,4.25-10.92Zm-287.44,149.23c.25,14.58-9.82,25.36-24.41,26.14-15.29,.82-26.92-5.76-35.95-17.71-.83-1.1-1.28-3.9-3.4-2.34-1.56,1.15,.37,2.69,1.14,3.8,7.39,10.56,17.45,17.28,29.98,19.99,13.95,3.02,27.03-2.2,33.58-12.89,8.29-13.53,3.66-30.51-4.81-41.54-1-1.3-2.44-2.06-3.87-.81-1.56,1.36,.16,2.38,.81,3.33,4.57,6.64,6.84,13.98,6.92,22.02Zm-193.44,48.44c-11.82,.27-25.02-9.15-30.23-20.9-5.23-11.8-2.89-22.22,6.9-30.79,.47-.41,.82-.95,1.23-1.42-.69-.42-1.33-1.02-2.08-1.23-1.7-.5-2.82,.74-3.9,1.72-4.22,3.85-6.59,8.72-7.42,14.32-3.27,22.04,20.22,44.92,42.21,41.27,16.65-2.76,21.95-16.68,20.59-28.68-.15-1.28-.59-2.62-1.23-3.74-.57-1-1.82-1.89-2.9-1.57-1.63,.48-.57,1.94-.41,2.92,.92,5.5,.88,10.91-1.77,15.98-4.63,8.83-12.54,11.82-21,12.13Zm-171.46-109.37c4.92-.37,9.98-1.64,13.06-6.77,.94-1.56,1.81-3.2-.18-4.85-3.59-2.98-7.37-3.31-11.62-1.09-4.34,2.27-8.55,5.24-13.95,3.25-6.77-2.49-9.96-8.23-8.98-16.39,.32-2.62-1.94-5.1-4.74-5.07-3.36,.04-2.22,2.69-2.34,4.43-.81,11.98,11.75,26.27,28.75,26.48Zm88.99,68.46c-11.86,.35-25.69-10.22-30.45-23.05-3.56-9.61-1.54-23.66,7.62-28.6,.58-.31,1.81-.72,1.05-1.73-.43-.57-1.38-.92-2.15-1.04-1.49-.24-2.45,.87-3.42,1.76-5.63,5.19-7.96,11.74-7.79,19.28,.41,18.68,18.57,36.39,37.59,36.69,16.07,.26,27.3-12.1,25.6-28.15-.14-1.33-.2-2.71-1.06-3.79-.85-1.08-2.17-2.04-3.41-1.56-.9,.35-.16,1.78-.03,2.74,.67,5.16,.71,10.28-1.76,15.06-4.57,8.84-12.39,12.05-21.8,12.4Zm452.42-26.5c2.89,.53,5.62-.45,8.26-1.3,2.95-.95,3.12-3.64,2.65-6.24-.5-2.78-2.39-2.02-4.23-1.54-.94,.24-1.99,.06-2.98,.14-8.42,.64-15.47-3.4-22.44-7.09-4.46-2.36-8.07-1.98-12.09,.46-2.34,1.42-1.94,2.21,.15,3.24,6.86,3.38,13.61,7,20.58,10.11,3.11,1.39,6.43,2.84,10.1,2.22ZM122.97,427.09c-2.37,.12-4.65-.21-6.9-.95-18.66-6.17-29.94-26.21-23.36-41.37,.44-1.02,1.22-2.24-.39-2.96-1.88-.85-2.28,.73-2.74,1.93-1.08,2.82-1.8,5.74-1.65,8.78,.79,16.29,9.35,27.44,23.57,34.33,10.19,4.93,20.56,5.16,30.39-1.44,4.38-2.94,6.61-7.34,8.17-12.21,.59-1.83-.04-2.87-1.75-3.45-1.36-.46-1.66,.41-2,1.45-3.75,11.23-12.28,15.44-23.34,15.89Zm635.93-82.2c-.04-4.92-.77-9.16-2.26-13.26-.21-.59-.63-1.37-1.13-1.53-.97-.31-1.27,.74-1.73,1.36-1.97,2.66-.62,5.49-.32,8.21,1.75,15.7-6.03,26.41-21.51,29.48-1.13,.22-2.33,.42-3.31,.96-1,.55-1.92,1.6-1.74,2.82,.25,1.68,1.8,1.16,2.83,1.1,19.13-1.18,28.95-13.91,29.17-29.15ZM224.54,460.74c.08-6.4-5.98-12.37-12.27-11.76-3.21,.31-5.59,2.11-6.13,5.58-.74,4.77,2.62,10.7,7.08,12.64,5.07,2.2,11.25-1.32,11.32-6.46Zm81.83,41.02c.09-6.45-5.85-12.38-12.2-11.85-3.2,.27-5.61,2.05-6.2,5.5-.82,4.8,2.9,11.19,7.45,12.89,5,1.87,10.88-1.65,10.95-6.55Zm166.9-27.28c.07-2.25-.94-4.17-1.87-6.12-1.5-3.12-3.36-4.13-6.56-1.85-2.55,1.82-5.47,3.12-8.22,4.65-6.32,3.49-6.39,5.68-.24,9.69,1.24,.81,2.61,1.49,4,1.98,5.96,2.09,12.94-2.46,12.9-8.34Zm228.96-58.65c.47,.82-1.34,3.45,.57,4.04,1.43,.44,2.7-2.05,3.88-3.4,3.92-4.48,7.65-9.15,11.81-13.4,2.19-2.25,2.86-4.26,1.46-7.02-.53-1.03-.86-2.16-1.42-3.18-.62-1.12-.26-3.11-1.81-3.3-1.83-.22-2.03,1.94-2.82,3.05-3.23,4.61-6.13,9.46-9.41,14.04-1.85,2.58-2.88,5.19-2.26,9.16Zm-28.48,25.89c14.07,.69,23.94-11.49,25.23-22.28,.15-1.24,.81-3.19-.4-3.64-1.52-.57-2.43,1.36-3.35,2.44-.5,.59-.7,1.5-.85,2.3-1.9,10.15-8.58,15.28-18.15,17.35-4.63,1-9.24,.95-13.76-.76-1.01-.38-2.51-.97-2.94,.5-.34,1.18,1.22,1.32,2.07,1.65,3.9,1.51,7.92,2.51,12.15,2.44Zm-327.37,67.78c.11-1.31-.94-1.67-1.8-2.11-3.4-1.74-6.84-3.38-10.22-5.15-2-1.05-2.94-.95-2.88,1.7,.07,3.14,.25,6.28-.25,9.44-.51,3.21-3.39,5.61-2.92,9.1,3.08-1.54,6.12-3.2,9.27-4.58,2.85-1.25,4.83-3.45,6.93-5.57,.8-.81,1.77-1.54,1.87-2.82Zm-99.39-27.96c.22-.07,.38-.11,.53-.17,6.04-2.74,11.96-5.64,16.16-11.08,1.38-1.79,.4-2.71-1.12-3.42-3.58-1.68-7.19-3.29-10.79-4.95-2.07-.95-2.15,.31-2.12,1.82,.09,5.63,.23,11.26-3.34,16.14-.57,.78-.48,1.54,.68,1.67Zm-136.21-85.4c-.29,4.54,2.25,7.86,6.12,10.33,3.25,2.07,6.5,.95,9.44-.64,3.72-2.02,3.61-5.08-.13-7.06-3.82-2.03-7.8-3.76-11.6-5.82-3.54-1.92-4.01-.06-3.84,3.19Zm640.17-53.01c-.52-.94,.88-3.02-.87-3.63-1.86-.65-2.17,1.64-2.92,2.74-3.37,4.87-6.58,9.85-9.86,14.79-.45,.67-1.34,1.35-.84,2.14,.66,1.04,1.7,.48,2.65,.16,7.66-2.6,11.63-7.88,11.84-16.19ZM302.2,50.3c-3.74,1.47-7.02,3.77-10.84,4.96-1.39,.43-2.99,1.62-3.03,3-.06,2.39,2.85,1.55,4.08,2.84,1.07,1.13,2.8,1.46,3.93,0,2.33-2.99,4.49-6.1,6.65-9.21,.6-.86,.31-1.53-.8-1.6Zm376.31,379.71c3.66-.46,7.53-1.26,10.37-4.48,.78-.88,2.64-1.62,1.48-3.15-.89-1.16-2.15-.04-3.14,.44-3.29,1.59-6.55,3.24-9.81,4.9-.85,.43-2.46,.79-2.23,1.58,.38,1.34,1.95,.28,3.33,.71ZM34.63,251.28c-.58-2.19,1.03-4.99-.87-7.41-1.06,2.64-1.22,5.44-.97,8.18,.23,2.49-.48,5.3,1.73,7.35,.04-2.42,.07-4.83,.1-7.25,0-.16,0-.33,0-.87Zm.4-57.04c-.64-.79,.67-2.94-1.4-2.82-1.91,.11-4.21,1.3-4.2,3.37,.01,1.92,2.56,2.48,4.14,2.64,2.03,.2,1.03-1.87,1.45-3.19Zm423.11,318.37c.58,1.38,1.83,1.23,2.94,1.23,.8,0,1.6-.2,2.4-.32-.66-1.42-2.01-1.49-3.29-1.57-.71-.05-1.62-.37-2.06,.66Z"/>
  <path class="cls-4" d="M41.79,282.25c-1.94-2.59-1.95-5.6-1.83-8.61,1.14-26.8-.36-53.6-.03-80.4,.09-7.47,0-7.43,6.56-4.3,18.31,8.75,37.01,16.77,54.89,26.32,43.27,23.11,87.57,44.16,131.26,66.42,20.3,10.34,40.91,20.1,61.09,30.68,62.15,32.59,125.49,62.8,188.02,94.63,1.57,.8,3.53,1.24,3.49,3.69-.17,9.47,.07,18.94,.68,28.4-4.67-.56-7.56,2.84-11.08,4.92-33.82,19.9-67.69,39.72-101.48,59.66-2.64,1.56-4.73,1.4-7.38,.11-33.17-16.12-66.17-32.59-99.42-48.57-61.45-29.52-122.32-60.25-183.46-90.4-3.05-1.51-4.9-3.41-5.97-6.73-6.64-20.58-13.96-40.95-20.05-61.69-2.49-8.47-6.61-13.27-15.28-14.12Zm124.86,20.48c.41,0,.82-.01,1.24-.02,.77,2.7,2.49,4.72,4.83,6.1,2.08,1.23,4.37,2.06,6.22-.4,.67-.89,.91-2.09,1.35-3.15,.37,1.25,.74,2.5,1.13,3.75,.49,1.61,1.25,3.06,2.4,4.32,2.2,2.39,5.05,4.46,7.64,1.66,2.3-2.5,2.24-1.13,3.01,.67,2.06,4.82,5.39,7.7,8.14,6.69,4.47-1.64,4.04-5.52,3.67-9.25-.08-.78-.31-1.95,.66-2,.88-.05,.92,1.17,1.14,1.96,1.15,4.16,2.35,8.3,3.45,12.48,.27,1.03,.59,2.12,1.62,2.29,1.17,.19,1.54-1.06,1.99-1.92,1.46-2.8,2.88-5.61,4.36-8.4,.28-.54,.59-1.24,1.42-1.05,.93,.21,.68,1.05,.67,1.63-.05,2.16-.15,4.33-.32,6.48-.59,7.85-.32,8.34,6.74,11.08,.99,.38,2.25,1.47,2.95-.19,.64-1.5-.87-1.96-1.81-2.52-1.56-.93-3.26-1.64-4.78-2.64-.95-.62-.86-1.79-.44-2.73,.46-1.03,1.33-.56,2.12-.33,1.64,.46,3.96,2.91,4.7,1.16,1.1-2.61-2.54-2.64-4.06-3.87-.25-.2-.58-.31-.88-.47-1.58-.84-2.19-2.22-1.3-3.72,.85-1.43,2.04-.18,3.02,.17,.78,.28,1.49,.74,2.24,1.09,.8,.38,1.71,.56,2.12-.39,.39-.89-.3-1.61-1.03-2.03-1.44-.82-2.92-1.59-4.41-2.31q-7.53-3.63-11.84,3.36c-.34,.55-.57,1.43-1.32,1.18-.36-.12-.49-1.06-.65-1.64-.78-2.88-1.45-5.79-2.35-8.63-.32-1.01-1.14-3.13-1.84-2.52-3.65,3.19-3.67-1.1-4.94-2.28-1.89-1.75-3.71-3.53-6.46-2.82-2.42,.63-3.53,2.87-3.37,5.03,.26,3.45-1.96,3.41-4.18,3.88-3.19,.67-4.72-1.28-5.57-3.72-.87-2.51-1.57-5.63,.79-7.44,2.49-1.91,4.17,.4,5.48,2.45,.17,.27,.45,.5,.73,.67,.99,.64,1.76,.18,1.59-.83-.53-3.06-2.73-4.87-5.37-6.09-2.06-.95-4.59-.58-5.12,1.52-1.48,5.92-3.61,3.44-6.01,.85-.11-.12-.3-.16-.41-.28-1.53-1.59-5.93-2.5-3.87-4.91,1.98-2.31,4.05,1.17,5.5,3.12,.38,.51,.89,1.15,1.61,.72,.32-.19,.63-.9,.53-1.24-.8-2.67-2.44-4.67-4.95-5.94-2.05-1.04-4.02-1.86-5.62,.66-.45,.09-.91,.17-1.36,.26,.08-1.29,.5-2.68-.39-3.8-.68-.86-1.93-1.27-2.09,.24-.5,4.71-.75,9.45-1,14.19-.04,.83,.57,1.61,1.49,1.62,1.1,0,1.09-.98,1.18-1.78Zm-28.86-26.78c-1.52-5.24-6.89-5.01-10.47-7.32-.25-.16-1.07,.11-1.26,.41-.37,.59-.26,1.49,.36,1.75,4.8,2.01,3.16,6.11,3.4,9.72,.15,2.39-1.78,6.31,1.39,6.73,1.82,.24,1.07-4.25,1.28-6.58,.5-5.42,.37-5.43,5.37-4.8,1.34,1.52-.2,2.76-.53,4.02-1.29,4.95,.07,9.17,3.35,12.79,1.43,1.58,3.36,2.75,5.74,1.91,2.17-.77,2.77-2.67,3.14-4.67,1.59-8.47-3.2-14.13-11.79-13.95Zm280.92,171.54c.11-1.77-1.37-1.77-2.27-2.37-9.03-6.05-19.29-9.72-28.74-14.94-3.78-2.09-6.76-2.72-10.05,.75-1.55,1.63-3.89,2.52-5.87,3.75-11.04,6.81-22.13,13.55-33.11,20.46-5.43,3.42-5.52,5.11,.17,8.17,7.75,4.17,15.92,7.54,23.74,11.59,4.16,2.15,7.38,2.36,11.72-.34,13.55-8.43,27.53-16.17,41.33-24.19,1.27-.74,2.75-1.31,3.07-2.88ZM52.09,242.98h-.04c-.28,5.15-.81,10.3-.77,15.45,.06,7.2,2.95,12.76,9.9,15.89,6.8,3.06,13.43,6.5,20.17,9.7,6.19,2.94,9.92,.87,10.38-6.02,.78-11.45,1.49-22.92,1.84-34.39,.21-7.04-2.99-12.44-9.53-15.57-6.58-3.15-13.41-5.86-19.65-9.59-6.66-3.97-11.05-.16-11.37,6.58-.28,5.98-.61,11.96-.92,17.94Zm181.47,87.23c-.06,0-.12,0-.18,0,0,2.31-.05,4.62,.03,6.92,.02,.68,.6,1.13,1.34,1.22,.69,.08,.71-.51,.92-.92,.52-1.01-.53-3.1,1.61-2.91,1.38,.12,1.94,1.65,2.5,2.86,.56,1.2,1.13,2.39,1.71,3.58,.37,.77,.96,1.7,1.79,1.28,.7-.35,.46-1.47,.33-2.3-.22-1.45-2.1-2.6-.34-4.43,3.32-3.44,.92-9.57-2.56-11.51-1.82-1.02-3.8-3.07-5.7-2.24-1.88,.82-.89,3.59-1.23,5.49-.17,.97-.16,1.98-.23,2.97Zm-70.79-36.6c.04-5.35-2.37-8.97-7.2-11.43-2.59-1.32-3.99-1.26-4.06,2.11-.06,2.98-.39,5.95-.52,8.92-.19,4.45,2.67,7.57,6.98,7.71,3.09,.1,4.76-2.46,4.8-7.32Zm-47.82-24.23c.04-.8,.12-1.3,.09-1.79-.14-1.84,1.17-4.97-1.21-5.08-2.4-.12-1.29,3.14-1.51,4.87-.63,5.06-.34,10.02,3.91,13.68,3.11,2.68,6.59,1.7,7.65-2.24,.91-3.38,.46-6.92,.45-10.39,0-.83-.42-1.69-1.47-1.61-1.17,.09-1.02,1.1-1.06,1.88-.1,2.32-.08,4.64-.28,6.95-.11,1.29-.32,2.76-1.91,3.16-1.75,.44-2.81-.75-3.65-2-1.61-2.38-1.03-5.11-1.01-7.43Zm-3.99,6.36c-1.58-5.55-3.13-11.11-4.77-16.64-.52-1.74-1.57-2.29-2.61-.4-1.99,3.62-3.86,7.3-5.69,11-.35,.71-.32,1.67,.39,2.3,.85,.77,1.58,.25,1.99-.51,1.32-2.51,2.84-1.06,4.55-.5,2.75,.9,2.97,3.22,3.65,5.39,.25,.8,.92,1.55,1.83,1.16,.38-.16,.42-1.11,.65-1.81Zm138.51,66.74c.03,.36,.06,1.52,.22,2.66,.1,.7,.63,1.24,1.33,1.2,.39-.02,1.1-.58,1.08-.84-.38-4.58,2.53-7.63,4.89-10.96,.61-.87,.62-1.93-.41-2.61-.87-.57-1.65-.1-2.13,.61-3.55,5.24-4.11,1.26-5.05-1.61-.15-.47-.35-.93-.57-1.37-.57-1.11-.87-3.03-2.57-2.27-1.27,.57-.22,1.97,.06,3.07,.99,3.8,3.66,7.14,3.16,12.14Z"/>
  <path class="cls-1" d="M185.43,146.84c28.47-15.73,56.67-31.96,85.36-47.28,2.59-1.38,5.79-1.72,7.76-4.24,1.77-.28,3.18,.67,4.64,1.41,5.46,2.73,10.92,5.45,16.35,8.24,1.11,.57,3.06,.74,2.91,2.16-.08,.81-1.95,1.44-3.01,2.15-3.2,.29-5.63,2.68-8.75,3.22-1.02,.18-1.54,1.18-.64,1.67,1.47,.79,2.91,3.13,4.98,.88l.08,.39,.39,.08c-1.16,2.91,1.7,2.63,2.87,3.24,15.89,8.2,31.84,16.3,47.82,24.34,11.38,5.73,22.82,11.33,34.23,16.99,.96,.62,1.87,1.34,2.89,1.86,18.58,9.43,37.16,18.86,55.78,28.21,3.97,1.99,7.66,4.64,12.13,5.53,1.56,.93,3.06,1.95,4.67,2.77,21.92,11.13,43.86,22.24,65.8,33.34,38.7,19.58,77.38,39.2,116.13,58.68,13.05,6.56,25.84,13.64,39.24,19.48,2.3,1.05,4.01,4.19,6.9,2.93,3.42-1.49,7.2-2.34,10.11-4.9,2.33-.44,4.35-2.07,7.08-.59,6.97,3.78,14.14,7.2,21.21,10.81,1.09,.56,2.69,.93,1.85,2.82-17.68,8.79-35.61,17.12-52.96,26.51-13.57,7.34-27.43,14.1-41.05,21.32-1.92,1.02-3.8,2.13-6.08,1.13-7.61-4.71-15.78-8.3-23.79-12.21-.14-1.21,.79-1.66,1.54-2.33,3.39-3.05,7.53-4.86,11.56-6.77,2.58-1.23,2.96-2.15,.8-4.13-5.01-4.6-9.92-9.32-14.87-13.98-1.4-2.47-3.92-2.22-6.2-2.53-1.27-1.66-3.22-2.31-4.97-3.19-17.39-8.74-34.81-17.43-52.21-26.14-26.32-13.19-52.62-26.42-78.96-39.58-12.19-6.09-24.44-12.03-36.67-18.04-.4-.3-.75-.68-1.19-.9-22-11.04-44-22.06-65.99-33.1-1.66-.83-3.36-1.43-5.2-1.64-1.45-.71-2.89-1.42-4.34-2.13-.65-.49-1.23-1.1-1.95-1.46-32.58-16.43-65.34-32.51-97.75-49.27-4.41-2.28-9.59-5.16-14.63-3.71-7.76,2.22-15.46,4.89-22.8,8.4-1.82,.52-3.6,.22-5.37-.24-.79-.57-1.57-1.59-2.42-.06l.02,.02c-.92-3.18-3.12-3.8-6.03-3.02l.05,.03c.41-.69,.26-1.21-.46-1.57-.7-.35-1.23-.16-1.59,.54l.05,.03c.53-1.23,0-1.4-1.04-1.04l.05,.03c-.08-1.54-.84-1.73-2.04-1.02l.03,.02c.59-.88-.17-.98-.69-1.21-.6-.94-2.37-1.22-1.62-2.91Zm138.21-7.38c-1.23,.15-2.94,.14-4.51,.6-12.06,3.47-22.8,9.79-33.35,16.3-4.27,2.63-3.77,6.6,.73,9.58,7.28,4.83,15.45,6.45,23.76,3.92,11-3.35,20.77-9.49,30.41-15.62,4-2.54,3.77-5.87-.01-8.98-4.79-3.94-10.46-5.59-17.01-5.8Zm-59.34,12.54c2.01,.33,3.99,.39,5.83-.68,.82-.48,2.32-.53,2.22-1.67-.15-1.69-1.79-.93-2.79-1.09-1.8-.3-3.63-.44-5.45-.64-.65-.07-1.46-.05-1.54-.87-.07-.75,.67-1,1.26-1.3,4.47-2.21,8.93-4.43,13.4-6.64,8.05-3.98,16.11-7.94,24.14-11.96,.95-.48,3.28-.84,1.57-2.42-1.71-1.59-3.94-3.25-6.72-1.6-1.85,1.1-3.77,2.11-5.71,3.05-13.47,6.54-26.95,13.05-40.43,19.56-.73,.35-1.81,.49-1.83,1.45-.02,1.21,1.23,1.33,2.06,1.8,4.35,2.48,9.13,2.91,13.98,3.01Z"/>
  <path class="cls-1" d="M320.54,41.01c-.42-2.52,1.85-2.46,3.15-3.04,20.67-9.16,40.75-19.51,60.34-30.77,2.66-1.53,4.62-.74,6.93,.41,39.69,19.91,79.39,39.79,119.09,59.67,25.13,12.59,50.42,24.84,75.34,37.83,72.1,37.57,145.35,72.85,217.81,109.69,9.19,4.67,18.43,9.24,27.64,13.89,.95,.48,2.45,.7,2.32,2.1-.1,1.06-1.41,1.3-2.29,1.7-21.26,9.84-42.15,20.45-63.11,30.91-1.23,.62-2.46,.99-3.83,.66-3.99-3.04-8.69-4.79-13.11-7.01-52.79-26.54-105.61-53.01-158.42-79.5-4.04-3.28-8.94-5.02-13.51-7.32-13.95-7.02-27.98-13.87-41.98-20.79-.99-.6-1.94-1.27-2.96-1.78-58.78-29.5-117.54-59.03-176.36-88.44-12.31-6.15-24.41-12.74-37.06-18.21Zm393.46,141.04c-5.01-2.61-10.39-4.69-14.94-7.95-7.92-5.67-14.85-5.05-22.96,.05-9.4,5.91-19.66,10.47-29.57,15.57-1.35,.7-3,1.26-3.15,2.89-.17,1.94,1.56,2.75,3.04,3.54,1.32,.71,2.64,1.42,3.97,2.1,16.13,8.28,32.39,16.31,48.32,24.95,5.51,2.99,9.88,3.01,14.39-1.12,12.12-6.02,24.57-11.38,36.09-18.6,2.66-1.66,2.47-2.9-.07-4.11-11.8-5.61-23.13-12.17-35.14-17.33Zm-248.63-78.91c.7-.24,1.86-.46,2.86-1,13.32-7.16,26.6-14.39,39.93-21.54,2.87-1.54,2.35-2.73-.09-4.03-.88-.47-1.68-1.08-2.57-1.52-18.87-9.44-37.76-18.86-56.61-28.33-1.63-.82-2.95-.95-4.65-.05-11.74,6.23-23.58,12.26-35.28,18.56-2.33,1.26-6.37,1.51-6.29,4.83,.08,3.29,3.94,4.24,6.46,5.55,16.66,8.65,33.43,17.1,50.17,25.6,1.77,.9,3.56,1.81,6.07,1.92Z"/>
  <path class="cls-1" d="M280.92,92.89c.92-4.05,4.07-6.7,6.31-9.89,8.95-12.76,18.12-25.36,27.13-38.08,1.63-2.3,3.21-3.78,6.01-1.9,.67,.45,1.31,.99,2.03,1.35,35.67,17.93,71.34,35.85,107.02,53.76,35.24,17.69,70.48,35.38,105.71,53.07,1,1.49,2.71,1.85,4.16,2.58,13.92,7.04,27.85,14.07,41.83,21.01,3.55,1.76,6.92,3.97,10.83,4.94,1,1.5,2.73,1.83,4.18,2.56,46.21,23.23,92.41,46.47,138.67,69.6,9.05,4.53,17.85,9.59,27.32,13.25,.38,4.32-2.88,7.23-4.77,10.32-8.49,13.85-17.69,27.26-26.63,40.83-.89,1.35-1.97,2.25-3.71,1.77-5.29-3.73-11.43-5.84-17-9.03-2.91-1.66-6.31-2.45-8.71-4.99,2.39-2.08,5.38-3.14,8.15-4.52,2.11-1.05,2.43-1.88,.66-3.51-4.38-4.01-8.7-8.07-13.04-12.11-2.03-2.54-4.1-5.02-7.87-4.52-1.4-1.79-3.56-2.4-5.45-3.37-7.99-4.09-16.04-8.05-24.07-12.08-55.88-28-111.73-56.06-167.65-83.97-12.18-6.08-24.14-12.61-36.66-17.99-1.27-.77-2.49-1.64-3.81-2.3-20.55-10.3-41.11-20.6-61.69-30.83-1.88-.93-3.57-2.5-5.91-2.27-14.33-7.38-28.62-14.84-43-22.11-7.69-3.88-15.58-6.85-24.06-1.92-1.13,.66-2.57,.79-3.72,1.41-3.92,2.13-7.47,1.47-11.29-.59-6.87-3.71-13.96-7.01-20.96-10.48Z"/>
  <path class="cls-1" d="M553.69,372.02c-20.04,10.1-40.77,18.8-60.38,29.77-3.58,2-6.77,2.25-10.73,.25-40.53-20.47-81.33-40.4-121.73-61.13-79.3-40.68-159.55-79.48-238.82-120.22-25.1-12.9-50.71-24.69-75.88-37.39-1.1-.55-3.01-.62-2.93-2.15,.07-1.42,1.92-1.63,3.07-2.19,18.92-9.37,37.89-18.64,56.78-28.09,4.83-2.41,9.49-2.75,14.35-.46,2.14,1.92,4.83,2.87,7.33,4.13,26.56,13.39,53.15,26.74,79.73,40.08,46.92,23.55,93.85,47.08,140.77,70.63,.54,.37,.97,.27,1.28-.31h-.01c-.86,2.51,1.59,2.33,2.65,2.89,8.1,4.21,16.24,8.34,24.45,12.32,9.24,4.48,18.07,9.79,27.71,13.45,.78,1.73,2.62,1.92,4.03,2.63,47.46,23.92,94.95,47.78,142.4,71.72,2.12,1.07,4.87,1.39,5.93,4.08ZM232.41,216.4c-10.94-6.04-22.05-11.75-33.49-16.79-8.39-4.38-16.79-8.75-25.17-13.14-1.62-.85-3-.7-4.66,.18-12.49,6.61-25.04,13.09-37.56,19.65-1.57,.82-3.79,1.2-3.97,3.38-.21,2.52,2.26,2.99,3.84,4.07,.96,.65,1.99,1.22,3.04,1.72,16.69,7.94,32.63,17.25,48.51,26.65,3.88,2.3,7.21,2.38,11.13,.09,9.62-5.62,19.44-10.88,29.12-16.39,3.28-1.87,7.1-2.43,10.1-5.19,2.79-2.57,1.81-3.32-.89-4.22Zm198.85,149.44c.97-.38,2.26-.74,3.42-1.36,12.73-6.85,25.46-13.72,38.15-20.64,1.21-.66,3.32-.8,3.1-2.7-.19-1.67-2.13-1.89-3.42-2.57-17.81-9.32-36.14-17.63-53.59-27.64-3.97-2.28-7.88-3.3-11.87,.19-1.34,1.17-3.19,1.75-4.82,2.59-10.34,5.33-20.7,10.64-31.02,16.01-3.53,1.84-3.75,3.64-.87,5.88,.78,.6,1.71,1.02,2.6,1.47,17.62,8.98,35.25,17.96,52.88,26.93,1.63,.83,3.26,1.67,5.45,1.82Z"/>
  <path class="cls-3" d="M538.28,465.7c.82-7.31-1.97-13.65-6.34-18.91-2.31-2.79-6.52-4.05-9.96-5.84-3.39-1.76-6.93-3.21-10.31-4.99-1.47-.77-4.31-1.98-.1-3.13,2.45-.67,1.34-1.95,.31-2.77-2.37-1.88-2.73-4.29-2.69-7.1,.03-2.35,.99-3.63,3.02-4.61,13.45-6.5,26.87-13.05,40.28-19.63,1.98-.97,3.54-.76,5.56,.29,14.56,7.59,29.16,15.09,43.32,23.43,9.02,5.31,13.22,17.47,11.11,27.65-1.7,8.17-7.34,13.13-12.05,18.89-14.88,18.21-29.97,36.24-45.18,54.17-4.5,5.31-8.97,10.68-14.14,15.41-2.75,2.51-6.16,3.82-9.36,5.47-18.91,9.74-38.02,19.1-56.78,29.13-10.55,5.64-21.41,10.68-31.86,16.51-.67,.38-1.38,1.41-2.11,.55-.92-1.07,.39-1.69,.92-2.43,12.32-17.09,27.21-32,41.17-47.66,11.78-13.21,23.24-26.74,35.66-39.38,5.22-5.31,9.95-11.11,14.87-16.72,4.68-5.32,4.14-11.98,4.64-18.33Z"/>
  <path class="cls-1" d="M619.87,371.68c-16.28-.51-32.56-.72-48.85-.65-5.3,.02-10.63-.1-15.74-1.86-.83-.53-1.62-1.14-2.49-1.58-18.85-9.52-37.7-19.04-56.57-28.53-31.48-15.85-62.96-31.68-94.45-47.52-.22-.24-.39-.57-.67-.71-17.24-8.71-34.48-17.41-51.74-26.06-.85-.43-2-1.65-2.85,.14h.01c.86-1.2-.15-1.34-.93-1.62-.83-1.68-2.64-1.89-4.06-2.61-72.09-36.29-144.2-72.54-216.3-108.81-1.59-.8-3.49-1.21-4.43-2.99,17.56,.36,35.13,.63,52.69,1.17,3.42,.1,6.84-1.74,10.23,.06,.34,.87,1.09,1.04,1.9,1.09,.77,.46,1.55,1.04,2.12-.25l-.03-.02c-.42,.69-.27,1.2,.45,1.56,.7,.35,1.23,.16,1.59-.53l-.05-.03c-.54,1.23,.02,1.37,1.04,1.04l-.05-.03c.07,1.56,.88,1.65,2.05,1.03l-.05-.03c1.34,2.35,3.33,3.4,6.03,3.02l-.02-.02c-.07,.13-.22,.28-.19,.37,.08,.21,.25,.4,.39,.59,0,.71,0,1.42,0,2.12-.56,.3-1.2,.51-1.68,.92-.92,.79-3.06-.5-3.04,1.41,.01,1.45,1.71,1.67,2.96,1.99,.91,1.32,2.43,1.7,3.75,2.37,25.66,13.03,51.32,26.08,77.01,39.04,13.51,6.81,27.09,13.48,40.63,20.21,1.7,1.02,3.34,2.14,5.1,3.04,13.75,6.98,27.46,14.02,41.3,20.82,8.31,4.09,16.21,9.05,25.06,12,.5,.26,1,.52,1.49,.78,.69,.34,1.38,.69,2.07,1.03,.94,.48,1.89,.96,2.83,1.44,9.94,6.02,20.56,10.74,30.89,16,42.17,21.5,84.43,42.84,126.72,64.11,9.33,4.69,18.35,10.03,28.1,13.86,2.94,2.82,6.03,3.79,9.77,1.3,2.46-1.64,5.24-1.94,8.06-.71,4.95,3.82,10.96,5.67,16.29,8.79,1.36,.79,3.81,.64,3.63,3.25Z"/>
  <path class="cls-3" d="M872.63,308.59c-1.52,6.09-3.09,12.63-7.98,18.17-11.73,13.28-23.11,26.88-34.38,40.56-8.63,10.49-17.33,20.91-26.35,31.07-3.23,3.64-7.11,6.16-11.49,8.39-28.87,14.69-57.6,29.68-86.37,44.57-.44,.23-.88,.49-1.35,.65-1.35,.46-3,2.39-3.9,1.23-1.35-1.75,1.34-2.49,2.12-3.77,5.76-9.4,13.44-17.21,20.87-25.23,3.94-4.25,7.61-8.76,11.48-13.07,14.95-16.66,29.92-33.32,44.92-49.93,3.45-3.82,7-7.55,10.51-11.3,3.12-3.34,5.31-6.85,5.72-11.23,.75-8.07,1.33-16-2.31-23.92-2.62-5.68-7.65-7.2-12.16-9.75-8.47-4.79-8.54-4.61-3.27-12.67,2.45-3.75,4.87-7.52,7.18-11.35,1.35-2.24,3.16-3.87,5.54-4.81,7.43-2.94,14.44-6.78,21.57-10.34,3.84-1.92,7.24-2.15,11.22,.11,11.98,6.81,24.39,12.86,36.2,19.93,7.98,4.78,11.72,12.74,12.23,22.7Z"/>
  <path class="cls-9" d="M41.79,282.25c8.66,.85,12.79,5.65,15.28,14.12,6.09,20.74,13.41,41.11,20.05,61.69,1.07,3.32,2.92,5.23,5.97,6.73,61.15,30.15,122.01,60.88,183.46,90.4,33.25,15.97,66.25,32.44,99.42,48.57,2.66,1.29,4.74,1.45,7.38-.11,33.8-19.94,67.66-39.76,101.48-59.66,3.52-2.07,6.41-5.48,11.08-4.92,.1,1.16,.12,2.32,.31,3.47,.79,4.78-1.27,7.3-5.57,9.67-35.7,19.64-71.28,39.51-106.74,59.59-3.88,2.2-6.21,1.35-9.69-.49-11.31-5.99-22.94-11.38-34.4-17.09-37.94-18.93-75.77-38.09-113.87-56.71-43.63-21.32-87.09-43.01-130.7-64.39-3.57-1.75-6.25-4.81-10.1-6.08-.86-.28-1.5-1.75-1.9-2.79-10.44-26.82-20.84-53.66-31.23-80.51-.18-.45-.16-.98-.24-1.47Z"/>
  <path class="cls-3" d="M411.77,597.86c-4.15-.51-8.03-1.9-11.75-3.76-24.54-12.28-48.98-24.78-73.68-36.74-13.01-6.3-25.91-12.84-38.95-19.09-8.67-4.15-16.24-10.19-25.06-14.07-6.84-3-13.56-6.29-20.23-9.65-21.96-11.07-43.75-22.48-65.84-33.26-17.31-8.45-34.55-17.02-51.62-25.94-9.09-4.75-18.43-9.02-27.33-14.17-7.74-4.48-12.58-11.44-15.75-19.29-6.96-17.22-13.23-34.73-19.8-52.11-3.28-8.69-6.6-17.37-9.9-26.06-.39-1.02-1.62-2.4-.35-3.03,.98-.49,1.69,1.22,2.39,2.13,12.38,16.01,18.98,34.79,25.79,53.51,2.99,8.23,5.2,16.8,10.03,24.32,6.17,9.6,15.33,15.58,25.3,19.99,19.55,8.66,38.84,17.87,57.4,28.39,9.08,5.15,18.94,9.47,26.51,17.21,1.76,1.8,4.21,3.16,6.91,3.8,15.74,3.72,29.06,12.85,43.41,19.65,12.14,5.75,24.34,11.46,35.17,19.59,.79,.59,1.64,1.2,2.56,1.47,17.49,5.26,32.81,15.17,49.13,22.91,22.66,10.75,45.13,21.89,67.78,32.65,3.98,1.89,8.39,2.54,13,1.71,2.28-.41,5.69-1.58,6.43,2.5,.65,3.6-1.85,5.23-4.71,5.98-2.21,.58-4.41,1.59-6.83,1.34Z"/>
  <path class="cls-3" d="M424.39,504.78c16.14,.05,32.91,13.11,36.69,28.55,.56,2.28,.17,4.08-1.5,5.89-4.37,4.74-8.52,9.68-12.77,14.53-.65,.75-1.32,1.84-2.33,1.66-1.59-.29-1-1.82-1.13-2.89-2.02-17.05-10.81-29.16-26.35-36.4-4.42-2.06-9.08-2.95-13.89-3.27-.59-.04-1.49,.29-1.66-.44-.19-.78,.78-.96,1.32-1.23,6.83-3.42,13.83-6.27,21.62-6.41Z"/>
  <path class="cls-11" d="M535.12,151.19c-35.24-17.69-70.48-35.38-105.71-53.07-35.68-17.91-71.35-35.83-107.02-53.76-.72-.36-1.35-.9-2.03-1.35,.06-.67,.12-1.34,.18-2.01,12.65,5.47,24.75,12.06,37.06,18.21,58.82,29.41,117.58,58.94,176.36,88.44,1.03,.52,1.98,1.19,2.96,1.78l-1.8,1.75Z"/>
  <path class="cls-11" d="M120.81,148.88c.95,1.78,2.84,2.19,4.43,2.99,72.1,36.27,144.21,72.52,216.3,108.81,1.42,.72,3.24,.92,4.06,2.61l-.35,1.94c-46.92-23.54-93.85-47.08-140.77-70.63-26.59-13.34-53.17-26.7-79.73-40.08-2.5-1.26-5.19-2.21-7.33-4.13,1.41,.11,1.15-3.49,3.39-1.52Z"/>
  <path class="cls-3" d="M471.44,495.86c-11.26,.47-19.71-4.62-26.25-13.41-1.04-1.4-2.8-2.86-.14-4.42,1.84-1.08,3.21-1.6,5,.68,3.71,4.72,8.37,7.76,14.94,7.23,9.62-.77,16.88-7.82,16.37-16.32-.16-2.64-1.29-4.88-2.78-6.81-2.03-2.63-.09-3.25,1.56-4.49,1.87-1.41,2.88-1.41,4.34,.67,5.28,7.5,7.83,15.68,6.81,24.85-.71,6.38-6.78,11.61-13.86,12.01-1.99,.11-3.99,.02-5.98,.02Z"/>
  <path class="cls-3" d="M311.57,491.84c6.61,1.16,9.19,3.57,9.91,9.8,1.58,13.77-4.83,18.96-18.06,18.02-12.83-.91-22.54-9.95-25.08-22.52-1.24-6.15,.64-12.07,4-17.39,1.04-1.65,2.42-1.94,4.24-.93,2.61,1.44,5.34,2.66,8.05,3.92,.74,.35,1.68,.43,1.78,1.45,.13,1.37-1.01,1.45-1.91,1.82-1.22,.51-2.43,1.08-3.58,1.74-7.53,4.31-8.46,14.07-1.91,19.73,6.68,5.77,18.38,4.14,22.71-3.53,2.14-3.78,.87-8.06-.16-12.09h.01Z"/>
  <path class="cls-3" d="M501.32,494.86c.07-3.84,1.84-7.32,2.06-11.2,.56-10.05-2.64-18.98-7.53-27.44-1.17-2.02-1.54-2.63,1.02-3.8,11.38-5.21,11.06-5.03,20.54,3.84,7.2,6.74,5.91,16.48,.96,21.84-5.4,5.85-10.87,11.68-17.06,16.74l.02,.02Z"/>
  <path class="cls-3" d="M196.69,452.73c-.58-4.87,.91-9.23,3.31-13.33,1.15-1.97,2.66-2.96,4.9-1.45,.55,.37,1.19,.6,1.77,.91,2.77,1.48,5.54,2.97,8.31,4.46-1.86,2.42-5,2.69-7.32,4.47-5.54,4.25-6.61,11.78-1.49,17.55,2.95,3.32,7.15,6.76,11.7,5.2,4.89-1.68,10.44-3.48,12.99-8.99,1.19-2.56,1.1-5.14-.17-7.7-.4-.81-1.37-1.84-.16-2.55,.48-.28,1.56,.28,2.27,.64,5.96,3,8.15,8.38,6.77,16.5-.93,5.48-5.61,9.81-11.88,10.33-13.53,1.12-25.47-5.9-30.54-19.13-.87-2.26-.23-4.63-.48-6.92Z"/>
  <path class="cls-4" d="M414.93,578.01c-18.38,.1-36.21-15.85-38.25-34.22-1.89-16.96,11.89-29.7,28.77-27.61,16.42,2.02,30.74,17.01,34.16,31.51,3.09,13.15-8.02,31.37-24.67,30.33Zm-12.53-58.39c-14.23-.08-23.43,9.49-22.81,23.73,.63,14.27,14.37,29.86,28.5,31.35,16.37,1.73,30.69-8.26,27.07-28.06-2.82-15.4-17.12-26.93-32.76-27.02Z"/>
  <path class="cls-3" d="M781.96,330.57c-.34,4.06-1.52,7.93-4.25,10.92-4.36,4.78-9.07,9.23-13.66,13.8-.67,.67-1.43,1.74-2.49,1.04-.93-.62-.53-1.78-.37-2.76,1.39-8.43,1.56-16.77-1.79-24.85-.91-2.19-.47-4.24,.75-6.16,1.24-1.95,2.64-3.82,3.84-5.8,2.85-4.7,4.05-4.92,8.18-1.1,2.19,2.03,4.34,4.12,6.32,6.36,2.12,2.4,3.62,5.15,3.48,8.55Z"/>
  <path class="cls-4" d="M494.52,479.8c-.08-8.04-2.35-15.38-6.92-22.02-.66-.96-2.37-1.97-.81-3.33,1.43-1.25,2.87-.48,3.87,.81,8.47,11.03,13.1,28.02,4.81,41.54-6.55,10.69-19.63,15.91-33.58,12.89-12.53-2.71-22.59-9.43-29.98-19.99-.78-1.11-2.7-2.64-1.14-3.8,2.11-1.57,2.56,1.23,3.4,2.34,9.04,11.95,20.66,18.53,35.95,17.71,14.59-.78,24.65-11.57,24.41-26.14Z"/>
  <path class="cls-11" d="M762.12,265.14c-9.47-3.67-18.27-8.73-27.32-13.25-46.26-23.13-92.46-46.37-138.67-69.6-1.45-.73-3.18-1.06-4.18-2.56,.15-.72,.31-1.44,.46-2.17,52.81,26.49,105.64,52.96,158.42,79.5,4.42,2.22,9.12,3.97,13.11,7.01-.61,.36-1.21,.71-1.82,1.07Z"/>
  <path class="cls-11" d="M401.77,291.54c31.48,15.84,62.97,31.67,94.45,47.52,18.86,9.5,37.72,19.01,56.57,28.53,.87,.44,1.66,1.05,2.49,1.58-.05,1.22,.05,2.52-1.59,2.85-1.05-2.69-3.81-3.02-5.93-4.08-47.45-23.94-94.94-47.8-142.4-71.72-1.42-.71-3.25-.9-4.03-2.63,.15-.68,.3-1.37,.45-2.05Z"/>
  <path class="cls-4" d="M301.08,528.24c8.46-.31,16.38-3.31,21-12.13,2.65-5.07,2.69-10.47,1.77-15.98-.16-.98-1.22-2.43,.41-2.92,1.08-.32,2.33,.57,2.9,1.57,.64,1.12,1.08,2.46,1.23,3.74,1.36,12-3.94,25.92-20.59,28.68-21.99,3.65-45.48-19.23-42.21-41.27,.83-5.6,3.2-10.47,7.42-14.32,1.08-.98,2.19-2.22,3.9-1.72,.75,.22,1.39,.81,2.08,1.23-.41,.48-.76,1.01-1.23,1.42-9.79,8.56-12.13,18.99-6.9,30.79,5.21,11.75,18.41,21.17,30.23,20.9Z"/>
  <path class="cls-3" d="M129.62,418.87c-17-.21-29.55-14.5-28.75-26.48,.12-1.74-1.03-4.39,2.34-4.43,2.8-.03,5.05,2.45,4.74,5.07-.98,8.16,2.2,13.89,8.98,16.39,5.4,1.99,9.61-.98,13.95-3.25,4.25-2.22,8.03-1.89,11.62,1.09,1.99,1.66,1.12,3.3,.18,4.85-3.08,5.12-8.14,6.4-13.06,6.77Z"/>
  <path class="cls-4" d="M218.61,487.33c9.42-.35,17.23-3.56,21.8-12.4,2.47-4.77,2.43-9.89,1.76-15.06-.12-.96-.87-2.39,.03-2.74,1.24-.48,2.56,.48,3.41,1.56,.86,1.08,.92,2.46,1.06,3.79,1.7,16.05-9.53,28.4-25.6,28.15-19.01-.3-37.17-18.01-37.59-36.69-.17-7.53,2.16-14.09,7.79-19.28,.96-.89,1.93-2,3.42-1.76,.77,.12,1.72,.47,2.15,1.04,.75,1.01-.47,1.42-1.05,1.73-9.16,4.94-11.19,18.99-7.62,28.6,4.76,12.83,18.59,23.4,30.45,23.05Z"/>
  <path class="cls-11" d="M280.92,92.89c7,3.47,14.09,6.77,20.96,10.48,3.82,2.06,7.37,2.72,11.29,.59,1.16-.63,2.59-.76,3.72-1.41,8.48-4.93,16.37-1.96,24.06,1.92,14.38,7.27,28.67,14.73,43,22.11-.49,.44-.97,.87-1.46,1.31-12.3-5.35-24.22-11.48-35.97-17.92-3.37-1.85-6.57-4.09-10.66-2.87-4.12,1.23-8.17,2.66-12.26,4-.66,0-1.32,0-1.97,0-.08-.67-.15-1.34-.23-2.02,3.57-1.26,7.15-2.5,10.72-3.8,.52-.19,.94-.61,1.41-.93-.42-.26-.81-.64-1.26-.77-2.04-.6-4.05-2.03-6.21-1.27-5.59,1.98-11.52,3.16-16.55,6.55-2.2,.36-4.6,.06-6.28,2.03,2.18,1.47,4.29-.03,6.43-.15,1.57,.36,3.1,.16,4.6-.34,.1,.84,.2,1.68,.31,2.51-4.98,.99-10,1.03-15.04,.7-.02-1.45-.04-2.9-.06-4.35,1.06-.71,2.92-1.34,3.01-2.15,.15-1.43-1.8-1.59-2.91-2.16-5.43-2.79-10.89-5.51-16.35-8.24-1.46-.73-2.87-1.68-4.64-1.41,.79-.81,1.58-1.62,2.36-2.43Z"/>
  <path class="cls-3" d="M671.04,460.82c-3.67,.62-6.99-.84-10.1-2.22-6.98-3.11-13.73-6.73-20.58-10.11-2.09-1.03-2.49-1.82-.15-3.24,4.02-2.44,7.63-2.82,12.09-.46,6.97,3.69,14.02,7.73,22.44,7.09,.99-.08,2.04,.1,2.98-.14,1.84-.48,3.74-1.24,4.23,1.54,.47,2.6,.29,5.3-2.65,6.24-2.64,.85-5.37,1.83-8.26,1.3Z"/>
  <path class="cls-4" d="M122.97,427.09c11.06-.45,19.59-4.66,23.34-15.89,.35-1.04,.65-1.91,2-1.45,1.72,.58,2.34,1.63,1.75,3.45-1.56,4.86-3.8,9.26-8.17,12.21-9.83,6.6-20.2,6.37-30.39,1.44-14.22-6.88-22.78-18.03-23.57-34.33-.15-3.04,.57-5.96,1.65-8.78,.46-1.2,.86-2.77,2.74-1.93,1.61,.72,.83,1.94,.39,2.96-6.58,15.16,4.7,35.19,23.36,41.37,2.25,.74,4.53,1.07,6.9,.95Z"/>
  <path class="cls-4" d="M758.91,344.89c-.22,15.24-10.04,27.97-29.17,29.15-1.02,.06-2.58,.58-2.83-1.1-.18-1.22,.74-2.27,1.74-2.82,.98-.54,2.18-.74,3.31-.96,15.47-3.07,23.25-13.78,21.51-29.48-.3-2.72-1.66-5.55,.32-8.21,.46-.62,.76-1.67,1.73-1.36,.49,.16,.91,.94,1.13,1.53,1.49,4.1,2.22,8.34,2.26,13.26Z"/>
  <path class="cls-4" d="M224.54,460.74c-.07,5.13-6.25,8.66-11.32,6.46-4.47-1.94-7.82-7.87-7.08-12.64,.54-3.47,2.93-5.27,6.13-5.58,6.29-.61,12.35,5.36,12.27,11.76Z"/>
  <path class="cls-4" d="M306.36,501.76c-.07,4.9-5.95,8.42-10.95,6.55-4.55-1.7-8.27-8.1-7.45-12.89,.59-3.45,3-5.23,6.2-5.5,6.35-.53,12.29,5.4,12.2,11.85Z"/>
  <path class="cls-4" d="M473.27,474.48c.04,5.88-6.93,10.42-12.9,8.34-1.4-.49-2.76-1.17-4-1.98-6.15-4.01-6.08-6.19,.24-9.69,2.76-1.52,5.67-2.83,8.22-4.65,3.2-2.28,5.06-1.27,6.56,1.85,.93,1.95,1.94,3.87,1.87,6.12Z"/>
  <path class="cls-3" d="M702.23,415.83c-.62-3.97,.41-6.58,2.26-9.16,3.28-4.57,6.17-9.43,9.41-14.04,.78-1.12,.99-3.27,2.82-3.05,1.54,.19,1.19,2.17,1.81,3.3,.56,1.01,.89,2.15,1.42,3.18,1.4,2.75,.73,4.77-1.46,7.02-4.15,4.25-7.89,8.92-11.81,13.4-1.18,1.35-2.44,3.84-3.88,3.4-1.91-.59-.11-3.22-.57-4.04Z"/>
  <path class="cls-4" d="M673.75,441.72c-4.23,.07-8.24-.93-12.15-2.44-.85-.33-2.41-.46-2.07-1.65,.42-1.46,1.93-.88,2.94-.5,4.52,1.71,9.12,1.76,13.76,.76,9.57-2.07,16.26-7.2,18.15-17.35,.15-.8,.35-1.72,.85-2.3,.93-1.09,1.83-3.01,3.35-2.44,1.21,.45,.54,2.4,.4,3.64-1.29,10.79-11.17,22.97-25.23,22.28Z"/>
  <path class="cls-11" d="M697.05,283.9c4.34,4.04,8.67,8.11,13.04,12.11,1.77,1.62,1.45,2.45-.66,3.51-2.77,1.38-5.75,2.44-8.15,4.52,2.4,2.54,5.81,3.33,8.71,4.99,5.57,3.19,11.72,5.3,17,9.03-.23,1.64-.95,2.83-2.78,2.96,.84-1.89-.76-2.26-1.85-2.82-7.07-3.61-14.24-7.03-21.21-10.81-2.73-1.48-4.75,.15-7.08,.59-.08-.96-.27-1.85-1.31-2.25,3.9-2.83,8.27-4.82,12.7-6.6,2.36-.95,2.29-1.79,.63-3.41-3.55-3.46-6.98-7.04-10.45-10.57,.47-.42,.94-.83,1.41-1.25Z"/>
  <path class="cls-3" d="M346.38,509.5c-.1,1.27-1.06,2-1.87,2.82-2.09,2.12-4.08,4.32-6.93,5.57-3.15,1.39-6.18,3.04-9.27,4.58-.47-3.49,2.41-5.89,2.92-9.1,.5-3.15,.32-6.3,.25-9.44-.06-2.65,.88-2.75,2.88-1.7,3.38,1.77,6.82,3.42,10.22,5.15,.85,.44,1.9,.8,1.8,2.11Z"/>
  <path class="cls-3" d="M246.99,481.54c-1.16-.13-1.25-.89-.68-1.67,3.57-4.88,3.43-10.52,3.34-16.14-.02-1.51,.05-2.78,2.12-1.82,3.59,1.66,7.21,3.27,10.79,4.95,1.52,.71,2.5,1.63,1.12,3.42-4.2,5.45-10.12,8.34-16.16,11.08-.15,.07-.31,.1-.53,.17Z"/>
  <path class="cls-4" d="M110.78,396.14c-.17-3.25,.3-5.12,3.84-3.19,3.8,2.06,7.78,3.8,11.6,5.82,3.74,1.98,3.85,5.04,.13,7.06-2.94,1.6-6.2,2.71-9.44,.64-3.88-2.47-6.42-5.79-6.12-10.33Z"/>
  <path class="cls-3" d="M750.95,343.13c-.21,8.31-4.17,13.58-11.84,16.19-.95,.32-1.99,.88-2.65-.16-.5-.79,.39-1.47,.84-2.14,3.28-4.93,6.49-9.91,9.86-14.79,.76-1.1,1.07-3.38,2.92-2.74,1.75,.61,.34,2.69,.87,3.63Z"/>
  <path class="cls-3" d="M302.2,50.3c1.11,.07,1.39,.74,.8,1.6-2.16,3.11-4.33,6.23-6.65,9.21-1.14,1.46-2.86,1.12-3.93,0-1.23-1.3-4.14-.45-4.08-2.84,.03-1.38,1.64-2.57,3.03-3,3.82-1.19,7.1-3.5,10.84-4.96Z"/>
  <path class="cls-11" d="M619.87,371.68c.18-2.61-2.28-2.45-3.63-3.25-5.32-3.12-11.33-4.96-16.29-8.79,.02-.55,.04-1.1,.05-1.65l.34-.25c8.02,3.9,16.19,7.5,23.79,12.21-.97,1.7-2.34,2.41-4.27,1.72Z"/>
  <path class="cls-3" d="M678.51,430.01c-1.38-.43-2.95,.64-3.33-.71-.23-.79,1.38-1.15,2.23-1.58,3.26-1.65,6.52-3.3,9.81-4.9,.99-.48,2.25-1.6,3.14-.44,1.17,1.52-.7,2.27-1.48,3.15-2.84,3.21-6.71,4.02-10.37,4.48Z"/>
  <path class="cls-3" d="M150.77,420.86c.65-1.7,1.42-3.35,1.9-5.1,.55-2.01,1.86-2.2,3.43-1.64,1.22,.44,2.8,.77,3.17,2.17,.49,1.85-1.43,1.95-2.47,2.5-1.88,.99-3.68,2.34-6.01,2.09l-.02-.02Z"/>
  <path class="cls-6" d="M34.63,251.28c0,.54,0,.71,0,.87-.03,2.42-.07,4.83-.1,7.25-2.21-2.05-1.51-4.86-1.73-7.35-.25-2.74-.09-5.54,.97-8.18,1.9,2.42,.29,5.22,.87,7.41Z"/>
  <path class="cls-6" d="M35.02,194.24c-.43,1.31,.57,3.38-1.45,3.19-1.59-.15-4.13-.72-4.14-2.64-.01-2.07,2.29-3.26,4.2-3.37,2.07-.12,.75,2.04,1.4,2.82Z"/>
  <path class="cls-6" d="M458.13,512.61c.43-1.03,1.34-.7,2.06-.66,1.27,.08,2.62,.15,3.29,1.57-.8,.11-1.6,.32-2.4,.32-1.12,0-2.36,.15-2.94-1.23Z"/>
  <path class="cls-11" d="M185.63,151.21c-.81-.05-1.56-.21-1.9-1.09,.12-1.33-.52-3.05,1.71-3.28-.75,1.69,1.03,1.97,1.62,2.91l-1.42,1.46Z"/>
  <path class="cls-3" d="M150.79,420.88c-.14,.14-.29,.28-.43,.42,.02-.09,.01-.22,.07-.27,.09-.08,.23-.12,.34-.17l.02,.02Z"/>
  <path class="cls-3" d="M311.56,491.86c-.14-.14-.27-.29-.41-.43,.09,.02,.21,.02,.26,.08,.08,.09,.11,.23,.16,.35h-.01Z"/>
  <path class="cls-3" d="M501.3,494.84c-.14,.14-.28,.28-.41,.42,.03-.09,.02-.21,.08-.25,.1-.07,.23-.1,.35-.15,0,0-.02-.02-.02-.02Z"/>
  <path class="cls-6" d="M418.71,447.49c-.31,1.57-1.8,2.14-3.07,2.88-13.8,8.02-27.78,15.76-41.33,24.19-4.34,2.7-7.57,2.48-11.72,.34-7.82-4.04-15.99-7.42-23.74-11.59-5.69-3.06-5.61-4.75-.17-8.17,10.98-6.91,22.07-13.65,33.11-20.46,1.98-1.22,4.31-2.11,5.87-3.75,3.3-3.46,6.27-2.84,10.05-.75,9.45,5.22,19.71,8.89,28.74,14.94,.91,.61,2.39,.6,2.27,2.37Z"/>
  <path class="cls-6" d="M52.09,242.98c.31-5.98,.64-11.96,.92-17.94,.32-6.74,4.72-10.55,11.37-6.58,6.24,3.72,13.07,6.44,19.65,9.59,6.54,3.13,9.75,8.53,9.53,15.57-.35,11.47-1.06,22.94-1.84,34.39-.47,6.89-4.19,8.96-10.38,6.02-6.74-3.2-13.37-6.64-20.17-9.7-6.95-3.13-9.84-8.7-9.9-15.89-.04-5.15,.49-10.3,.77-15.45h.04Zm25.84,10.91c2.97-2.15,4.58-5.46,6.88-8.18,.94-1.11,1.53-2.34,.15-3.41-1.35-1.05-2.92-1.68-4.32,.06-1.23,1.53-2.43,3.09-3.65,4.64-.61-.05-1.23-.11-1.84-.16-.71-2.9-1.36-5.81-2.16-8.68-.39-1.39-1.47-2.16-2.94-2.31-1.57-.15-1.87,1.06-2.31,2.13-2.66,6.44-5.27,12.9-7.99,19.31-.76,1.79-.17,2.9,1.37,3.66,2.02,1,2.53-.43,3.09-1.96,1.56-4.2,3.19-8.37,4.85-12.54,.29-.74,.82-1.38,1.25-2.06,.44,.81,1.11,1.57,1.29,2.44,1.18,5.84,2.27,11.7,3.34,17.57,.27,1.48,.37,2.98,1.73,3.97,.68,.49,1.36,1.07,2.24,.63,.95-.48,.64-1.29,.47-2.13-.59-2.92-1.09-5.85-1.62-8.78,.04-.15,.17-.34,.12-.45-.12-.27-.32-.51-.49-.77-.19-.98-.37-1.96-.56-2.94l1.11-.04Z"/>
  <path class="cls-6" d="M168.82,292c1.6-2.53,3.58-1.7,5.62-.66,2.52,1.28,4.16,3.27,4.95,5.94,.1,.35-.2,1.05-.53,1.24-.72,.43-1.23-.21-1.61-.72-1.45-1.96-3.52-5.43-5.5-3.12-2.06,2.4,2.34,3.31,3.87,4.91,.11,.12,.3,.16,.41,.28,2.39,2.59,4.53,5.07,6.01-.85,.53-2.1,3.06-2.47,5.12-1.52,2.64,1.22,4.84,3.02,5.37,6.09,.18,1.01-.59,1.46-1.59,.83-.27-.18-.55-.4-.73-.67-1.32-2.05-3-4.36-5.48-2.45-2.36,1.81-1.66,4.94-.79,7.44,.85,2.44,2.38,4.39,5.57,3.72,2.22-.47,4.43-.43,4.18-3.88-.16-2.15,.95-4.4,3.37-5.03,2.75-.71,4.57,1.06,6.46,2.82,1.27,1.18,1.29,5.48,4.94,2.28,.7-.61,1.52,1.51,1.84,2.52,.9,2.84,1.57,5.75,2.35,8.63,.16,.59,.28,1.52,.65,1.64,.75,.26,.98-.62,1.32-1.18q4.3-6.99,11.84-3.36c1.49,.72,2.97,1.48,4.41,2.31,.74,.42,1.42,1.14,1.03,2.03-.41,.95-1.33,.76-2.12,.39-.75-.35-1.46-.82-2.24-1.09-.99-.36-2.17-1.6-3.02-.17-.89,1.5-.28,2.88,1.3,3.72,.29,.16,.62,.26,.88,.47,1.52,1.23,5.16,1.27,4.06,3.87-.74,1.75-3.06-.7-4.7-1.16-.79-.22-1.66-.7-2.12,.33-.42,.93-.5,2.1,.44,2.73,1.52,1,3.22,1.71,4.78,2.64,.94,.56,2.44,1.02,1.81,2.52-.7,1.66-1.96,.58-2.95,.19-7.06-2.74-7.33-3.23-6.74-11.08,.16-2.16,.26-4.32,.32-6.48,.01-.58,.26-1.42-.67-1.63-.83-.19-1.14,.52-1.42,1.05-1.48,2.79-2.9,5.6-4.36,8.4-.45,.87-.82,2.11-1.99,1.92-1.02-.16-1.34-1.26-1.62-2.29-1.1-4.17-2.3-8.32-3.45-12.48-.22-.79-.26-2.01-1.14-1.96-.97,.06-.74,1.23-.66,2,.37,3.73,.79,7.61-3.67,9.25-2.74,1-6.08-1.87-8.14-6.69-.77-1.81-.71-3.17-3.01-.67-2.59,2.8-5.44,.73-7.64-1.66-1.16-1.25-1.91-2.71-2.4-4.32-.38-1.25-.75-2.5-1.13-3.75-.44,1.06-.68,2.26-1.35,3.15-1.84,2.46-4.14,1.62-6.22,.4-2.35-1.39-4.07-3.4-4.83-6.1-.02-.54-.03-1.09-.05-1.63,3.31-.66,2.5,3.37,4.69,4.13,1.35,.47,2.77,1.93,3.9,.34,.92-1.3-.47-2.4-1.55-3.14-2.29-1.57-4.79-2.91-6.07-5.58,0-1.61,0-3.22,.01-4.83Zm34.94,22.65c.06-4.29-2.32-8.17-4.81-7.77-2.82,.46-2.75,3-2.82,5.07-.13,3.58,2.52,7.16,4.96,6.95,2.86-.25,2.47-2.58,2.67-4.25Z"/>
  <path class="cls-6" d="M233.56,330.21c.07-.99,.05-2,.23-2.97,.34-1.9-.65-4.67,1.23-5.49,1.9-.83,3.88,1.22,5.7,2.24,3.49,1.94,5.88,8.08,2.56,11.51-1.76,1.83,.11,2.98,.34,4.43,.13,.83,.36,1.95-.33,2.3-.83,.42-1.42-.51-1.79-1.28-.58-1.19-1.15-2.38-1.71-3.58-.56-1.21-1.12-2.74-2.5-2.86-2.14-.19-1.09,1.9-1.61,2.91-.21,.41-.23,1-.92,.92-.74-.09-1.32-.54-1.34-1.22-.08-2.3-.03-4.61-.03-6.92,.06,0,.12,0,.18,0Zm4.43-4.36c-1.86,.14-1.18,1.64-1.35,2.62-.46,2.68,1.51,3.45,3.45,3.94,1.6,.4,2.01-.95,1.93-2.13-.16-2.47-1.8-3.75-4.04-4.42Z"/>
  <path class="cls-6" d="M162.78,293.61c-.03,4.86-1.71,7.42-4.8,7.32-4.31-.14-7.17-3.26-6.98-7.71,.13-2.98,.46-5.95,.52-8.92,.06-3.38,1.46-3.43,4.06-2.11,4.84,2.46,7.24,6.08,7.2,11.43Zm-9.01-3.33c0,1.13,.1,2.3-.02,3.44-.28,2.7,1.53,3.56,3.57,3.76,2.27,.22,2.51-1.78,2.67-3.39,.13-1.28,0-2.64-.29-3.91-.59-2.61-2.26-5.04-4.86-4.68-1.96,.27-.34,3.16-1.07,4.78Z"/>
  <path class="cls-6" d="M137.79,275.95c8.59-.18,13.37,5.48,11.79,13.95-.38,2-.97,3.9-3.14,4.67-2.38,.85-4.31-.33-5.74-1.91-3.28-3.62-4.64-7.83-3.35-12.79,.33-1.26,1.86-2.5,.53-4.02l-.08,.09Zm9.2,11.42c.01-3.57-.39-6.28-3.25-7.87-.98-.54-1.97-.5-2.7,.31-2.2,2.43-1.42,5.26-.73,7.94,.53,2.03,2.07,3.73,4.19,3.57,2.61-.21,2.4-2.66,2.48-3.94Z"/>
  <path class="cls-6" d="M114.96,269.38c-.01,2.32-.59,5.05,1.01,7.43,.84,1.25,1.9,2.44,3.65,2,1.58-.4,1.8-1.87,1.91-3.16,.2-2.31,.18-4.63,.28-6.95,.04-.79-.11-1.8,1.06-1.88,1.05-.08,1.47,.78,1.47,1.61,0,3.47,.46,7.01-.45,10.39-1.06,3.93-4.54,4.92-7.65,2.24-4.25-3.66-4.54-8.62-3.91-13.68,.22-1.73-.89-4.98,1.51-4.87,2.38,.12,1.06,3.24,1.21,5.08,.04,.49-.04,.99-.09,1.79Z"/>
  <path class="cls-6" d="M110.97,275.74c-.23,.69-.27,1.64-.65,1.81-.91,.39-1.58-.36-1.83-1.16-.68-2.17-.9-4.5-3.65-5.39-1.71-.56-3.23-2.01-4.55,.5-.4,.76-1.13,1.28-1.99,.51-.7-.63-.74-1.59-.39-2.3,1.83-3.7,3.7-7.38,5.69-11,1.04-1.89,2.1-1.35,2.61,.4,1.64,5.53,3.18,11.09,4.77,16.64Zm-5.1-9.74c-.41-.59,.1-2.1-1.4-1.75-.53,.12-1.03,1.17-1.21,1.88-.31,1.25,.68,1.69,1.67,1.72,1.28,.04,.78-1.04,.94-1.85Z"/>
  <path class="cls-3" d="M249.48,342.48c.5-5-2.17-8.33-3.16-12.14-.29-1.1-1.33-2.5-.06-3.07,1.7-.76,1.99,1.16,2.57,2.27,.23,.44,.42,.9,.57,1.37,.94,2.87,1.5,6.85,5.05,1.61,.48-.71,1.26-1.18,2.13-.61,1.03,.68,1.03,1.74,.41,2.61-2.35,3.34-5.27,6.39-4.89,10.96,.02,.27-.69,.82-1.08,.84-.69,.04-1.23-.51-1.33-1.2-.16-1.14-.19-2.3-.22-2.66Z"/>
  <path class="cls-6" d="M137.87,275.87c-5-.63-4.87-.61-5.37,4.8-.22,2.34,.54,6.83-1.28,6.58-3.17-.42-1.24-4.34-1.39-6.73-.23-3.61,1.4-7.71-3.4-9.72-.62-.26-.73-1.17-.36-1.75,.19-.3,1.01-.57,1.26-.41,3.58,2.31,8.95,2.08,10.47,7.32l.08-.09Z"/>
  <path class="cls-6" d="M166.65,302.73c-.09,.8-.07,1.78-1.18,1.78-.92,0-1.53-.79-1.49-1.62,.26-4.74,.5-9.48,1-14.19,.16-1.51,1.41-1.09,2.09-.24,.88,1.12,.47,2.51,.39,3.8-.91,1.56-.93,3.2-.47,4.88-.06,1.23-.12,2.46-.18,3.69l-.17,1.89Z"/>
  <path class="cls-11" d="M166.99,297.15c-.47-1.69-.44-3.33,.47-4.88,.45-.09,.91-.17,1.36-.26,0,1.61,0,3.22-.01,4.83-.6,.1-1.21,.21-1.81,.31Z"/>
  <path class="cls-11" d="M166.65,302.73l.17-1.89c.34,.08,.68,.16,1.02,.24,.02,.54,.03,1.09,.05,1.63-.41,0-.82,.01-1.24,.02Z"/>
  <path class="cls-4" d="M299.51,113.62c5.04,.33,10.06,.28,15.04-.7,2.99,.46,5.72,1.68,8.4,3.02,29.57,14.83,59.15,29.65,88.71,44.51,36.2,18.2,72.39,36.43,108.58,54.64,1.28,.65,2.5,1.81,4.11,.78l-.04-.03c-.27,1.55,.94,1.48,1.87,1.71,.33,.36,.59,.85,.99,1.05,15.4,7.77,30.83,15.48,46.22,23.26,20.44,10.34,40.82,20.77,61.28,31.07,7.69,3.87,15.51,7.5,23.27,11.24,5.46,2.58,10.76,5.37,14.05,10.78,1.42,4.16,4.21,7.59,6.1,11.51,.04,.15,.15,.33,.1,.45-.1,.28-.27,.54-.41,.81-.33-.04-.7,.02-.97-.12-32.57-16.52-65.13-33.07-97.7-49.57-32.14-16.29-64.26-32.62-96.49-48.74-10.38-5.19-20.5-10.93-31.24-15.38-1.26-.79-2.47-1.67-3.78-2.34-14.75-7.54-29.46-15.17-44.32-22.51-7.55-3.73-14.77-8.19-22.78-10.98-18.48-9.44-36.9-19-55.47-28.25-9.79-4.88-19.2-10.55-29.52-14.32l-.39-.08-.08-.39c1.13-1.63,2.99-.92,4.47-1.41Z"/>
  <path class="cls-6" d="M323.64,139.46c6.56,.21,12.23,1.85,17.01,5.8,3.78,3.12,4.02,6.44,.01,8.98-9.64,6.13-19.41,12.27-30.41,15.62-8.31,2.53-16.48,.9-23.76-3.92-4.49-2.98-5-6.95-.73-9.58,10.56-6.51,21.29-12.83,33.35-16.3,1.57-.45,3.28-.44,4.51-.6Zm-25.05,16.58c11.66-1.51,22.87-5.08,34.32-7.52,.61-.13,1.46-.39,1.3-1.11-.11-.52-.81-1.01-1.36-1.32-5.15-2.97-10.47-2.95-15.68-.38-6.23,3.07-12.33,6.41-18.49,9.63-.9,.06-1.67,.33-1.94,1.32,.72,.12,1.54,.54,1.85-.61Zm30.92-2.94c-11.63,2.56-23.26,5.1-34.88,7.69-.87,.19-2.25-.09-2.36,1.24-.09,1.09,.96,1.62,1.83,2.12,5.41,3.13,11.01,3.58,16.6,.75,6.34-3.21,12.55-6.69,18.81-10.06,.6-.21,1.27-.31,1.8-.64,.8-.51,1.5-1.18,2.25-1.78-1.11-.68-2.17-.19-3.22,.18-.3,.1-.55,.33-.83,.5Z"/>
  <path class="cls-11" d="M451.39,193.91c10.75,4.44,20.86,10.19,31.24,15.38,32.23,16.12,64.35,32.45,96.49,48.74,32.58,16.51,65.13,33.06,97.7,49.57,.27,.14,.65,.08,.97,.12-.12,.13-.25,.24-.4,.34-.11,.63-.22,1.25-.33,1.88-13.4-5.84-26.19-12.92-39.24-19.48-38.75-19.48-77.43-39.1-116.13-58.68-21.94-11.1-43.87-22.21-65.8-33.34-1.61-.82-3.12-1.84-4.67-2.77,.05-.58,.11-1.17,.16-1.75Z"/>
  <path class="cls-11" d="M420.35,241.06c12.23,6.01,24.48,11.96,36.67,18.04,26.34,13.16,52.64,26.39,78.96,39.58,17.4,8.72,34.82,17.4,52.21,26.14,1.75,.88,3.7,1.53,4.97,3.19,.07,1.76-.97,2.12-2.44,1.93-.31-1.61-1.78-1.81-2.93-2.38-50.9-25.51-101.84-50.97-152.68-76.61-5.45-2.75-11.26-4.91-16.22-8.61,.48-.43,.97-.86,1.45-1.29Z"/>
  <path class="cls-11" d="M206.5,157.24c7.34-3.51,15.05-6.18,22.8-8.4,5.04-1.45,10.22,1.43,14.63,3.71,32.42,16.76,65.18,32.84,97.75,49.27,.71,.36,1.3,.97,1.95,1.46-.07,.66-.14,1.31-.2,1.97-1.21-.53-2.45-1-3.62-1.59-14.68-7.35-29.43-14.58-44.02-22.11-15.47-7.98-31.46-14.95-46.48-23.81-3.68-2.17-7.33-2.59-11.41-1.05-3.87,1.46-7.91,2.46-11.88,3.66-.6-.59-1.19-1.19-1.79-1.78,2.69-1.76,5.96-1.82,8.84-3.01,1.68-.69,3.34-1.42,5.01-2.12-1.65-1.59-3.86-1.79-5.91-2.34-1.36-.37-2.58,.42-3.81,.86-6.69,2.38-13.37,4.79-20.06,7.19-.9-.35-1.45-1.03-1.8-1.9Z"/>
  <path class="cls-6" d="M264.3,152c-4.86-.1-9.64-.52-13.99-3-.83-.48-2.08-.6-2.06-1.8,.02-.96,1.1-1.1,1.83-1.45,13.48-6.51,26.96-13.02,40.43-19.56,1.94-.94,3.85-1.95,5.71-3.05,2.79-1.66,5.02,.01,6.72,1.6,1.71,1.59-.62,1.95-1.57,2.42-8.03,4.02-16.09,7.98-24.14,11.96-4.47,2.21-8.93,4.43-13.4,6.64-.59,.29-1.33,.55-1.26,1.3,.08,.82,.89,.8,1.54,.87,1.82,.2,3.65,.34,5.45,.64,1,.17,2.64-.6,2.79,1.09,.1,1.14-1.4,1.19-2.22,1.67-1.84,1.08-3.82,1.01-5.82,.68Z"/>
  <path class="cls-3" d="M420.35,241.06c-.48,.43-.97,.86-1.45,1.29-2.27,.08-4.15-1.07-6.07-2.02-8.9-4.45-17.83-8.84-26.67-13.41-13.1-6.79-26.59-12.82-39.41-20.15,.41-.45,.81-.9,1.22-1.34,1.84,.21,3.54,.81,5.2,1.64,21.99,11.04,44,22.06,65.99,33.1,.44,.22,.8,.6,1.19,.9Z"/>
  <path class="cls-11" d="M295.51,115.5c10.33,3.77,19.74,9.44,29.52,14.32,18.57,9.26,36.99,18.82,55.47,28.25-.03,.66-.06,1.33-.08,1.99-11.41-5.66-22.85-11.26-34.23-16.99-15.98-8.04-31.92-16.14-47.82-24.34-1.17-.6-4.03-.33-2.87-3.24Z"/>
  <path class="cls-3" d="M380.42,160.07c.03-.66,.06-1.33,.08-1.99,8.01,2.8,15.22,7.25,22.78,10.98,14.85,7.34,29.56,14.97,44.32,22.51,1.32,.67,2.52,1.56,3.78,2.34-.05,.58-.11,1.17-.16,1.75-4.48-.89-8.17-3.54-12.13-5.53-18.62-9.35-37.2-18.78-55.78-28.21-1.02-.52-1.93-1.23-2.89-1.86Z"/>
  <path class="cls-3" d="M590.73,329.94c1.47,.19,2.51-.17,2.44-1.93,2.28,.31,4.8,.05,6.2,2.53-.07,.83-.14,1.67-.22,2.5-4.6-2.03-8.36,.99-12.3,2.26-11.26,3.64-11.17,3.76-4.51,13.76,1.27,1.91,3.19,3.96,.98,6.5-2.43-3.8-5.72-7-7.11-11.54-.85-2.76-2.74-5.16-4.96-7.15,0-.67,0-1.34,0-2.02,7.24,1.32,13.39-1.73,19.5-4.91Z"/>
  <path class="cls-11" d="M599.15,333.04c.07-.83,.14-1.67,.22-2.5,4.95,4.67,9.86,9.38,14.87,13.98,2.16,1.99,1.78,2.91-.8,4.13-4.03,1.91-8.16,3.72-11.56,6.77-.74,.67-1.68,1.11-1.54,2.33l-.34,.25c-1.87-1.58,.17-3.23-.08-4.84,3.05-2.35,6.58-3.82,10.12-5.17,2.41-.91,2.32-1.72,.64-3.36-3.91-3.8-7.7-7.72-11.53-11.6Z"/>
  <path class="cls-3" d="M206.5,157.24c.35,.87,.9,1.55,1.8,1.9,1.55,1.66,3.59,.6,5.37,.96,.01,.62,.02,1.24,.03,1.85-4.19,2.44-8.77-.24-13.05,.97-1.16,.47-2.33,.95-3.49,1.42-1.25-.31-2.95-.54-2.96-1.99-.02-1.91,2.12-.61,3.04-1.41,.47-.41,1.11-.62,1.68-.92,1.34-.04,1.83-.82,1.78-2.06,.14-.32,.29-.64,.43-.96,1.77,.46,3.55,.75,5.37,.24Z"/>
  <path class="cls-3" d="M677.06,309.94c.11-.63,.22-1.25,.33-1.88,1.27-.09,3.08-.76,3.73-.16,2.62,2.42,4.86,.69,7.2-.18,1.52-.57,2.96-1.33,4.44-2,1.04,.4,1.23,1.29,1.31,2.25-2.91,2.56-6.69,3.41-10.11,4.9-2.89,1.26-4.6-1.88-6.9-2.93Z"/>
  <path class="cls-3" d="M299.51,113.62c-1.48,.5-3.35-.22-4.47,1.41-2.07,2.25-3.5-.08-4.98-.88-.9-.48-.38-1.49,.64-1.67,3.12-.54,5.55-2.93,8.75-3.22,.02,1.45,.04,2.9,.06,4.35Z"/>
  <path class="cls-3" d="M198.73,156.97c-2.7,.38-4.69-.68-6.03-3.02,2.9-.78,5.1-.15,6.03,3.02Z"/>
  <path class="cls-3" d="M343.43,205.25c.07-.66,.14-1.31,.2-1.97,1.45,.71,2.89,1.42,4.34,2.13-.41,.45-.81,.9-1.22,1.34-1.11-.5-2.22-1.01-3.33-1.51Z"/>
  <path class="cls-3" d="M192.75,153.97c-1.17,.63-1.97,.53-2.05-1.03,.36-.69,.88-.89,1.59-.54,.71,.35,.87,.88,.46,1.57Z"/>
  <path class="cls-3" d="M189.76,151.96c-.36,.7-.88,.88-1.59,.53-.72-.35-.87-.87-.45-1.56,1.2-.7,1.96-.52,2.04,1.02Z"/>
  <path class="cls-3" d="M198.91,157.91c-.13-.19-.3-.38-.39-.59-.03-.09,.12-.24,.19-.37,.85-1.53,1.63-.5,2.42,.06-.14,.32-.29,.64-.43,.96-.6-.02-1.19-.04-1.79-.06Z"/>
  <path class="cls-3" d="M185.63,151.21l1.42-1.46c.52,.24,1.29,.34,.69,1.21-.57,1.29-1.35,.7-2.12,.25Z"/>
  <path class="cls-3" d="M190.75,152.98c-1.02,.33-1.58,.19-1.04-1.04,1.05-.35,1.57-.18,1.04,1.04Z"/>
  <path class="cls-3" d="M714,182.05c12.02,5.16,23.34,11.72,35.14,17.33,2.54,1.21,2.72,2.44,.07,4.11-11.52,7.21-23.97,12.58-36.09,18.6-1.43-2.11-3.21-.34-4.44,0-2.33,.66-4.1,.18-6.09-.85-17.12-8.8-34.29-17.52-51.42-26.3-.97-.5-2.55-.67-2.53-2.03,.02-1.34,1.59-1.5,2.57-2.01,10.45-5.43,21.18-10.39,31.28-16.42,4.55-2.72,7.87-1.97,11.84,.08,5.46,2.82,10.96,5.55,16.49,8.23,1.11,.54,2.79,2.21,3.19-.76Zm-24.27-4.14c-1.66-.18-3.08,.75-4.57,1.46-6.89,3.27-13.79,6.49-20.64,9.85-1.63,.8-4.45,.52-4.28,3.33,.15,2.43,2.65,2.72,4.33,3.61,11.26,6,22.66,11.75,33.77,18.01,5.61,3.16,10.42,4.71,16.21,.15,5.04-3.97,11.36-6.06,16.65-9.84,2.04-1.46,2.27-2.7,.52-4.32-.96-.89-1.99-1.8-3.15-2.37-12.05-5.93-23.64-12.69-35.4-19.16-1.09-.6-2.17-.73-3.45-.72Z"/>
  <path class="cls-6" d="M465.37,103.15c-2.51-.11-4.29-1.02-6.07-1.92-16.74-8.5-33.51-16.95-50.17-25.6-2.52-1.31-6.38-2.26-6.46-5.55-.08-3.32,3.95-3.58,6.29-4.83,11.7-6.3,23.54-12.34,35.28-18.56,1.69-.9,3.02-.76,4.65,.05,18.86,9.47,37.74,18.89,56.61,28.33,.89,.45,1.69,1.05,2.57,1.52,2.44,1.3,2.96,2.49,.09,4.03-13.33,7.15-26.61,14.38-39.93,21.54-1,.54-2.17,.76-2.86,1Zm-1.72-3.95c3.41-.39,6.05-1.32,8.57-2.63,8.84-4.58,17.69-9.14,26.48-13.81,2.14-1.14,5.81-1.56,5.96-3.81,.19-2.86-3.73-2.57-5.79-3.64-15.42-8.08-30.98-15.89-46.46-23.86-2.98-1.54-5.84-2.16-8.98-.53-10.89,5.67-21.81,11.29-32.73,16.92-1.04,.54-2.35,1.06-2.51,2.22-.2,1.5,1.5,1.46,2.41,1.99,2.28,1.34,4.63,2.57,6.95,3.84,12.23,6.67,25.04,12.2,37.13,19.16,2.97,1.71,6.23,2.9,8.96,4.14Z"/>
  <path class="cls-6" d="M706.42,226.02c-2.51-.11-4.29-1.02-6.07-1.92-16.74-8.5-33.51-16.95-50.17-25.6-2.52-1.31-6.38-2.26-6.46-5.55-.08-3.32,3.95-3.58,6.29-4.83,11.7-6.3,23.54-12.34,35.28-18.56,1.69-.9,3.02-.76,4.65,.05,18.86,9.47,37.74,18.89,56.61,28.33,.89,.45,1.69,1.05,2.57,1.52,2.44,1.3,2.96,2.49,.09,4.03-13.33,7.15-26.61,14.38-39.93,21.54-1,.54-2.17,.76-2.86,1Zm-1.72-3.95c3.41-.39,6.05-1.32,8.57-2.63,8.84-4.58,17.69-9.14,26.48-13.81,2.14-1.14,5.81-1.56,5.96-3.81,.19-2.86-3.73-2.57-5.79-3.64-15.42-8.08-30.98-15.89-46.46-23.86-2.98-1.54-5.84-2.16-8.98-.53-10.89,5.67-21.81,11.29-32.73,16.92-1.04,.54-2.35,1.06-2.51,2.22-.2,1.5,1.5,1.46,2.41,1.99,2.28,1.34,4.63,2.57,6.95,3.84,12.23,6.67,25.04,12.2,37.13,19.16,2.97,1.71,6.23,2.9,8.96,4.14Z"/>
  <path class="cls-6" d="M714,182.05c-.41,2.97-2.08,1.29-3.19,.76-5.53-2.68-11.03-5.41-16.49-8.23-3.97-2.05-7.29-2.8-11.84-.08-10.1,6.02-20.83,10.99-31.28,16.42-.98,.51-2.54,.68-2.57,2.01-.02,1.36,1.56,1.53,2.53,2.03,17.14,8.78,34.3,17.5,51.42,26.3,1.99,1.02,3.76,1.51,6.09,.85,1.23-.35,3.01-2.11,4.44,0-4.51,4.13-8.88,4.11-14.39,1.12-15.93-8.65-32.19-16.68-48.32-24.95-1.33-.68-2.65-1.39-3.97-2.1-1.48-.79-3.21-1.6-3.04-3.54,.15-1.63,1.8-2.2,3.15-2.89,9.91-5.11,20.16-9.66,29.57-15.57,8.1-5.09,15.04-5.72,22.96-.05,4.54,3.26,9.93,5.34,14.94,7.95Z"/>
  <path class="cls-3" d="M592.41,177.56c-.15,.72-.31,1.44-.46,2.17-3.92-.97-7.28-3.18-10.83-4.94-13.98-6.93-27.9-13.97-41.83-21.01-1.45-.73-3.16-1.1-4.16-2.58l1.8-1.75c14,6.92,28.03,13.78,41.98,20.79,4.57,2.3,9.46,4.04,13.51,7.32Z"/>
  <path class="cls-11" d="M455.36,161.98c12.52,5.38,24.48,11.91,36.66,17.99,55.92,27.91,111.77,55.97,167.65,83.97,8.03,4.02,16.08,7.99,24.07,12.08,1.89,.97,4.04,1.59,5.45,3.37-.43,1.68-1.47,2.55-3.24,2.48,.88-2.63-1.5-2.53-2.78-3.17-31.73-15.95-63.49-31.88-95.24-47.79-35.61-17.85-71.24-35.67-106.84-53.56-8.73-4.39-17.36-8.98-26.04-13.47,.1-.63,.21-1.25,.31-1.88Z"/>
  <path class="cls-3" d="M455.36,161.98c-.1,.63-.21,1.25-.31,1.88-2.09,.04-3.81-1.04-5.58-1.93-6.97-3.48-13.95-6.95-20.89-10.5-15.36-7.85-31.04-15.08-46.09-23.55,.49-.44,.97-.87,1.46-1.31,2.34-.22,4.03,1.34,5.91,2.27,20.58,10.24,41.14,20.53,61.69,30.83,1.32,.66,2.54,1.53,3.81,2.3Z"/>
  <path class="cls-3" d="M685.94,281.86c1.76,.07,2.81-.8,3.24-2.48,3.77-.5,5.84,1.98,7.87,4.52-.47,.42-.94,.83-1.41,1.25-1.84-1.83-3.9-2.11-6.33-1.2-4.48,1.69-8.95,3.43-13.54,4.77-2.81,.82-3.06,2.33-2.31,4.64-.49,.54-.98,1.07-1.47,1.61-3.29-5.41-8.59-8.2-14.05-10.78,.06-.83,.13-1.66,.19-2.48,2.88,1.35,5.76,2.69,8.64,4.04-.01,0-.03,0-.04,0,3.95,1.27,7.7,.3,11.41-1.05,2.6-.94,5.2-1.89,7.8-2.83Z"/>
  <path class="cls-3" d="M198.92,199.6c-2.34,1.56-4.38,.14-6.36-.79-3.92-1.83-8.11-3.36-11.54-5.89-7.42-5.48-14.15-2.8-20.54,1.29-8.28,5.29-17.01,9.68-25.69,14.2-.84,.44-2.28,.26-2.44,1.38-.2,1.39,1.37,1.11,2.14,1.57,8.4,5.09,17.44,8.96,26.12,13.52,7.65,4.01,15.47,7.74,22.93,12.08,4.87,2.83,9.25,1.94,13.65-.34,8.99-4.66,17.84-9.6,26.82-14.29,3.08-1.62,6.21-3.08,8.4-5.94-10.95-6.03-22.05-11.75-33.49-16.79Zm16.89,21.81c-7.23,4.03-14.4,8.16-21.57,12.29-2.5,1.44-4.93,1.64-7.54,.23-13.55-7.34-27.12-14.61-40.68-21.94-2.49-1.35-3.37-3.01-.21-4.55,8.34-4.07,16.72-8.05,25.12-12.01,.86-.41,1.91-.43,3.1-.68,4.71,.86,8.5,4.05,12.66,6.29,8.61,4.63,17.11,9.45,25.85,13.83,1.33,.66,2.69,1.37,3.8,2.32,1.79,1.53,1.75,2.94-.53,4.22Zm6.69-6.59c-1.25,.21-1.72-.63-2.02-1.64-.65-.36-1.29-.72-1.94-1.08-.43-.21-.86-.41-1.29-.62,.11-.12,.28-.37,.32-.35,.42,.19,.82,.43,1.23,.66,.8,.08,1.53,.27,2.04,.96,.94,.23,2,.29,2.23,1.51,.03,.16-.35,.53-.57,.56Z"/>
  <path class="cls-3" d="M223.07,214.26c.03,.16-.35,.53-.57,.56-1.25,.21-1.72-.63-2.02-1.64-.65-.36-1.29-.72-1.94-1.08-.43-.21-.86-.41-1.29-.62,.11-.12,.28-.37,.32-.35,.42,.19,.82,.43,1.23,.66,.8,.08,1.53,.27,2.04,.96,.94,.23,2,.29,2.23,1.51Z"/>
  <path class="cls-6" d="M431.26,365.84c-2.2-.15-3.83-.99-5.45-1.82-17.63-8.97-35.25-17.95-52.88-26.93-.89-.45-1.82-.87-2.6-1.47-2.88-2.24-2.66-4.04,.87-5.88,10.32-5.38,20.68-10.68,31.02-16.01,1.62-.84,3.48-1.42,4.82-2.59,3.99-3.49,7.9-2.47,11.87-.19,17.46,10.01,35.79,18.31,53.59,27.64,1.29,.68,3.24,.9,3.42,2.57,.21,1.9-1.9,2.04-3.1,2.7-12.69,6.93-25.41,13.8-38.15,20.64-1.16,.62-2.45,.98-3.42,1.36Zm-.86-3.69c2.25-.87,4.65-1.57,6.85-2.68,10.81-5.45,21.55-11.05,32.37-16.5,1.44-.73,2.09-1.1,.43-2.2-.96-.64-1.86-1.42-2.88-1.94-17.21-8.66-34.43-17.29-51.65-25.92-1.34-.67-2.58-1.32-4.18-.36-11.27,6.71-23.52,11.57-34.84,18.21-3.05,1.79-3.33,2.53,0,4.21,16.73,8.43,33.38,17,50.07,25.51,1.17,.6,2.41,1.05,3.85,1.67Z"/>
  <path class="cls-6" d="M198.92,199.6c-2.34,1.56-4.38,.14-6.36-.79-3.91-1.84-8.11-3.36-11.54-5.89-7.42-5.48-14.15-2.8-20.55,1.29-8.28,5.29-17.01,9.68-25.69,14.2-.84,.44-2.28,.26-2.44,1.37-.2,1.39,1.37,1.11,2.14,1.57,8.41,5.09,17.44,8.96,26.13,13.52,7.65,4.01,15.47,7.74,22.93,12.08,4.87,2.83,9.25,1.94,13.65-.34,8.99-4.66,17.84-9.6,26.82-14.29,3.09-1.62,6.22-3.08,8.4-5.93,2.7,.91,3.68,1.65,.89,4.22-3,2.76-6.82,3.32-10.1,5.19-9.68,5.52-19.51,10.77-29.12,16.39-3.93,2.29-7.25,2.21-11.13-.09-15.88-9.4-31.82-18.71-48.51-26.65-1.05-.5-2.08-1.07-3.04-1.72-1.58-1.08-4.05-1.55-3.84-4.07,.18-2.18,2.4-2.56,3.97-3.38,12.52-6.56,25.07-13.04,37.56-19.65,1.66-.88,3.04-1.03,4.66-.18,8.38,4.39,16.78,8.76,25.17,13.14Z"/>
  <path class="cls-6" d="M401.77,291.54c-.15,.68-.3,1.37-.45,2.05-9.63-3.66-18.47-8.97-27.71-13.45-8.21-3.98-16.36-8.11-24.45-12.32-1.07-.55-3.51-.38-2.65-2.9,.85-1.79,2-.57,2.85-.14,17.27,8.65,34.51,17.35,51.74,26.06,.27,.14,.45,.47,.67,.71Z"/>
  <path class="cls-6" d="M345.25,265.24l.35-1.94c.78,.28,1.79,.42,.93,1.63-.31,.58-.74,.69-1.28,.31Z"/>
  <path class="cls-11" d="M582.12,359.06c-9.76-3.83-18.77-9.17-28.1-13.86-42.29-21.27-84.55-42.6-126.72-64.11-10.33-5.27-20.95-9.99-30.89-16,0-.66,0-1.31,0-1.97,.46,.17,.95,.28,1.39,.51,30.38,15.3,60.78,30.56,91.13,45.91,30.63,15.49,61.23,31.06,91.83,46.61,1.15,.59,2.15,1.18,2.53-.71l.21-.29c1.38,1.96-.66,2.7-1.38,3.91Z"/>
  <path class="cls-11" d="M197.16,164.35c1.16-.47,2.33-.95,3.49-1.42,.2,1.64,1.6,1.97,2.76,2.55,28.76,14.5,57.55,28.93,86.25,43.54,9.75,4.96,19.77,9.4,29.14,15.1-.08,.62-.17,1.24-.25,1.86-13.55-6.73-27.13-13.4-40.63-20.21-25.69-12.97-51.35-26.01-77.01-39.04-1.32-.67-2.83-1.05-3.75-2.37Z"/>
  <path class="cls-6" d="M189.7,242.83c-2.51-.11-4.29-1.02-6.07-1.92-16.74-8.5-33.51-16.95-50.17-25.6-2.52-1.31-6.38-2.26-6.46-5.55-.08-3.32,3.95-3.58,6.29-4.83,11.7-6.3,23.54-12.34,35.28-18.56,1.69-.9,3.02-.76,4.65,.05,18.86,9.47,37.74,18.89,56.61,28.33,.89,.45,1.69,1.05,2.57,1.52,2.44,1.3,2.96,2.49,.09,4.03-13.33,7.15-26.61,14.38-39.93,21.54-1,.54-2.17,.76-2.86,1Zm-1.72-3.95c3.41-.39,6.05-1.32,8.57-2.63,8.84-4.58,17.69-9.14,26.48-13.81,2.14-1.14,5.81-1.56,5.96-3.81,.19-2.86-3.73-2.57-5.79-3.64-15.42-8.08-30.98-15.89-46.46-23.86-2.98-1.54-5.84-2.16-8.98-.53-10.89,5.67-21.81,11.29-32.73,16.92-1.04,.54-2.35,1.06-2.51,2.22-.2,1.5,1.5,1.46,2.41,1.99,2.28,1.34,4.63,2.57,6.95,3.84,12.23,6.67,25.04,12.2,37.13,19.16,2.97,1.71,6.23,2.9,8.96,4.14Z"/>
  <path class="cls-3" d="M318.55,225.97c.08-.62,.17-1.24,.25-1.86,1.56,.56,3.2,.97,4.67,1.71,16.47,8.32,32.95,16.62,49.35,25.07,6.03,3.11,12.46,5.51,17.94,9.66-.25,.42-.5,.85-.75,1.27-8.85-2.96-16.75-7.92-25.06-12-13.83-6.8-27.55-13.84-41.3-20.82-1.76-.89-3.41-2.02-5.1-3.04Z"/>
  <path class="cls-3" d="M582.12,359.06c.72-1.21,2.76-1.96,1.38-3.91,5.31,4.72,9.93,1.42,14.63-1.23,.56-.32,1.19-.5,1.79-.75,.25,1.61-1.79,3.26,.08,4.84-.02,.55-.04,1.1-.05,1.65-2.82-1.24-5.6-.93-8.06,.71-3.74,2.49-6.83,1.51-9.77-1.3Z"/>
  <path class="cls-3" d="M396.4,263.12c0,.66,0,1.31,0,1.97-.94-.48-1.89-.96-2.83-1.44,.41-.38,.82-.77,1.23-1.15,.53,.21,1.07,.42,1.6,.63Z"/>
  <path class="cls-11" d="M198.91,157.91c.6,.02,1.19,.04,1.79,.06,.05,1.24-.44,2.02-1.78,2.06,0-.71,0-1.42,0-2.12Z"/>
  <path class="cls-3" d="M393.57,263.64c-.69-.34-1.38-.69-2.07-1.03,.41-.34,.82-.69,1.23-1.03,.69,.3,1.38,.61,2.07,.91-.41,.38-.82,.77-1.23,1.15Z"/>
  <path class="cls-3" d="M391.5,262.61c-.5-.26-1-.52-1.49-.78,.25-.42,.5-.85,.75-1.27,.66,.34,1.32,.68,1.98,1.02-.41,.34-.82,.69-1.23,1.03Z"/>
  <path class="cls-6" d="M402.4,519.62c15.64,.09,29.94,11.63,32.76,27.02,3.63,19.8-10.69,29.79-27.07,28.06-14.13-1.5-27.87-17.08-28.5-31.35-.63-14.24,8.57-23.81,22.81-23.73Zm-1.36,2.19c-2.02-.68-4.04,.63-5.73,2.7-4.76,5.83-6.8,12.56-5.45,19.92,2.42,13.12,15.13,21.99,28.07,22.32,9.35,.24,16.67-7.48,15.34-16.2-2.43-16.03-14.99-27.84-32.24-28.74Z"/>
  <path class="cls-1" d="M666.77,285.74c-2.88-1.35-5.76-2.69-8.64-4.04-1.4-.85-2.76-1.81-4.22-2.55-32.2-16.22-64.38-32.48-96.66-48.57-10.24-5.1-20.15-10.89-30.84-15.08-.8-.5-1.57-.79-2.11,.34l.04,.03c.97-3.13-2.05-2.81-3.37-3.47-32.71-16.59-65.48-33.08-98.25-49.55-33.06-16.62-66.14-33.21-99.22-49.81,.03-.65,.06-1.3,.08-1.95,4.08-1.34,8.14-2.77,12.26-4,4.09-1.22,7.29,1.02,10.66,2.87,11.75,6.44,23.67,12.58,35.97,17.92,15.05,8.47,30.73,15.7,46.09,23.55,6.94,3.55,13.92,7.02,20.89,10.5,1.77,.88,3.49,1.97,5.58,1.93,8.68,4.5,17.31,9.09,26.04,13.47,35.6,17.89,71.23,35.71,106.84,53.56,31.75,15.92,63.5,31.84,95.24,47.79,1.28,.64,3.66,.55,2.78,3.17-2.6,.94-5.2,1.89-7.8,2.83-3.71,1.35-7.46,2.32-11.41,1.05h.04Z"/>
  <path class="cls-3" d="M323.52,113.04c33.07,16.6,66.15,33.19,99.22,49.81,32.77,16.47,65.54,32.96,98.25,49.55,1.32,.67,4.33,.34,3.37,3.47-1.61,1.03-2.83-.14-4.11-.78-36.2-18.21-72.38-36.44-108.58-54.64-29.56-14.86-59.14-29.68-88.71-44.51-2.67-1.34-5.4-2.56-8.4-3.02-.1-.84-.2-1.68-.31-2.51,2.38-.44,4.76-.88,7.15-1.33,.08,.67,.15,1.34,.23,2.02-.06,1.32,.61,1.93,1.89,1.94Z"/>
  <path class="cls-1" d="M321.4,109.08c-2.38,.44-4.76,.88-7.15,1.33-1.51,.5-3.03,.7-4.6,.34-.05-.63-.1-1.25-.15-1.88,5.04-3.39,10.96-4.57,16.55-6.55,2.16-.76,4.17,.67,6.21,1.27,.46,.13,.84,.51,1.26,.77-.47,.32-.9,.74-1.41,.93-3.56,1.29-7.14,2.54-10.72,3.8Z"/>
  <path class="cls-4" d="M309.5,108.87c.05,.63,.1,1.25,.15,1.88-2.14,.12-4.25,1.62-6.43,.15,1.68-1.97,4.08-1.67,6.28-2.03Z"/>
  <path class="cls-4" d="M323.52,113.04c-1.28-.01-1.95-.62-1.89-1.94,.66,0,1.32,0,1.97,0-.03,.65-.06,1.3-.08,1.95Z"/>
  <path class="cls-1" d="M673.47,293.35c-.76-2.3-.5-3.82,2.31-4.64,4.59-1.34,9.06-3.08,13.54-4.77,2.42-.91,4.49-.63,6.33,1.2,3.48,3.53,6.91,7.11,10.45,10.57,1.66,1.62,1.74,2.46-.63,3.41-4.43,1.78-8.79,3.77-12.7,6.6-1.48,.67-2.92,1.43-4.44,2-2.34,.88-4.58,2.6-7.2,.18-.65-.6-2.45,.07-3.73,.16,.14-.1,.28-.21,.4-.34,.14-.27,.31-.53,.41-.81,.04-.12-.06-.3-.1-.45,.24-.05,.35-.2,.34-.44,.17,.67,.6,1.3,1.25,1.24,.74-.07,.92-.75,.67-1.46-2.3-4.15-4.59-8.3-6.89-12.45Z"/>
  <path class="cls-1" d="M77.75,258.09c.53,2.93,1.02,5.87,1.62,8.78,.17,.84,.48,1.65-.47,2.13-.87,.44-1.56-.14-2.24-.63-1.36-.99-1.47-2.49-1.73-3.97-1.06-5.87-2.16-11.73-3.34-17.57-.17-.86-.84-1.63-1.29-2.44-.42,.68-.95,1.33-1.25,2.06-1.65,4.16-3.29,8.34-4.85,12.54-.57,1.53-1.07,2.96-3.09,1.96-1.54-.76-2.12-1.87-1.37-3.66,2.72-6.42,5.34-12.87,7.99-19.31,.44-1.07,.75-2.28,2.31-2.13,1.47,.14,2.55,.92,2.94,2.31,.8,2.87,1.45,5.78,2.16,8.68-.46,2.61,.88,4.79,1.67,7.1,.19,.98,.37,1.96,.56,2.94,.12,.41,.24,.81,.37,1.22Z"/>
  <path class="cls-4" d="M77.01,247c1.21-1.55,2.41-3.11,3.65-4.64,1.4-1.74,2.97-1.11,4.32-.06,1.38,1.07,.79,2.3-.15,3.41-2.3,2.72-3.91,6.03-6.88,8.18-.31-2.3-.62-4.6-.93-6.9Z"/>
  <path class="cls-6" d="M77.01,247c.31,2.3,.62,4.6,.93,6.9l-1.11,.04c-.79-2.31-2.13-4.49-1.67-7.1,.61,.05,1.23,.11,1.84,.16Z"/>
  <path class="cls-11" d="M77.75,258.09c-.12-.41-.24-.81-.37-1.22,.17,.25,.37,.49,.49,.77,.05,.11-.07,.3-.12,.45Z"/>
  <path class="cls-4" d="M203.76,314.65c-.2,1.67,.2,4-2.67,4.25-2.45,.21-5.09-3.36-4.96-6.95,.07-2.07,0-4.61,2.82-5.07,2.49-.41,4.87,3.48,4.81,7.77Z"/>
  <path class="cls-4" d="M167.83,301.08c-.34-.08-.68-.16-1.02-.24,.06-1.23,.12-2.46,.18-3.69,.6-.1,1.21-.21,1.81-.31,1.28,2.68,3.77,4.01,6.07,5.58,1.08,.74,2.48,1.84,1.55,3.14-1.13,1.59-2.55,.13-3.9-.34-2.19-.76-1.37-4.79-4.69-4.13Z"/>
  <path class="cls-4" d="M237.99,325.85c2.24,.67,3.88,1.95,4.04,4.42,.08,1.19-.33,2.54-1.93,2.13-1.95-.49-3.92-1.26-3.45-3.94,.17-.98-.51-2.47,1.35-2.62Z"/>
  <path class="cls-4" d="M153.77,290.27c.73-1.62-.89-4.52,1.07-4.78,2.6-.35,4.27,2.07,4.86,4.68,.28,1.27,.42,2.62,.29,3.91-.16,1.61-.4,3.62-2.67,3.39-2.05-.2-3.86-1.06-3.57-3.76,.12-1.14,.02-2.3,.02-3.44Z"/>
  <path class="cls-4" d="M146.98,287.37c-.09,1.28,.13,3.74-2.48,3.94-2.12,.17-3.66-1.54-4.19-3.57-.7-2.67-1.47-5.51,.73-7.94,.73-.81,1.72-.86,2.7-.31,2.86,1.59,3.27,4.3,3.25,7.87Z"/>
  <path class="cls-4" d="M105.88,266c-.16,.81,.34,1.9-.94,1.85-.99-.03-1.97-.47-1.67-1.72,.17-.71,.67-1.76,1.21-1.88,1.5-.35,.99,1.16,1.4,1.75Z"/>
  <path class="cls-11" d="M526.42,215.51c10.69,4.19,20.6,9.98,30.84,15.08,32.27,16.08,64.45,32.35,96.66,48.57,1.46,.74,2.82,1.69,4.22,2.55-.06,.83-.13,1.66-.19,2.48-7.76-3.74-15.58-7.36-23.27-11.24-20.45-10.3-40.84-20.74-61.28-31.07-15.39-7.78-30.82-15.49-46.22-23.26-.41-.2-.67-.7-.99-1.05,.08-.68,.16-1.37,.24-2.05Z"/>
  <path class="cls-11" d="M673.47,293.35c2.3,4.15,4.59,8.3,6.89,12.45-.64,.07-1.28,.15-1.92,.22,0,.24-.11,.39-.34,.44-1.88-3.91-4.67-7.35-6.1-11.51,.49-.54,.98-1.07,1.47-1.61Z"/>
  <path class="cls-3" d="M526.42,215.51c-.08,.68-.16,1.37-.24,2.05-.94-.23-2.14-.17-1.87-1.71,.54-1.13,1.31-.84,2.11-.34Z"/>
  <path class="cls-1" d="M329.51,154.85c-6.26,3.36-12.47,6.85-18.81,10.06-5.59,2.83-11.2,2.38-16.6-.75-.87-.5-1.92-1.03-1.83-2.12,.11-1.34,1.49-1.05,2.36-1.24,11.62-2.59,23.25-5.13,34.88-7.69,0,.58,0,1.16,0,1.74Z"/>
  <path class="cls-1" d="M298.68,155.33c6.16-3.22,12.26-6.56,18.49-9.63,5.22-2.57,10.54-2.59,15.68,.38,.55,.31,1.24,.8,1.36,1.32,.16,.73-.68,.98-1.3,1.11-11.45,2.45-22.66,6.01-34.32,7.52,.2-.22,.23-.45,.09-.71Z"/>
  <path class="cls-4" d="M329.51,154.85c0-.58,0-1.16,0-1.74,.28-.17,.53-.4,.83-.5,1.05-.37,2.11-.86,3.22-.18-.74,.6-1.44,1.27-2.25,1.78-.52,.33-1.19,.43-1.8,.64Z"/>
  <path class="cls-4" d="M298.68,155.33c.14,.26,.1,.5-.09,.71-.3,1.15-1.12,.73-1.85,.61,.27-1,1.04-1.26,1.94-1.32Z"/>
  <path class="cls-1" d="M343.43,205.25c1.11,.5,2.22,1.01,3.33,1.51,12.83,7.33,26.31,13.36,39.41,20.15,8.83,4.58,17.77,8.97,26.67,13.41,1.92,.96,3.79,2.11,6.07,2.02,4.96,3.7,10.77,5.86,16.22,8.61,50.84,25.63,101.78,51.09,152.68,76.61,1.14,.57,2.62,.77,2.93,2.38-6.11,3.18-12.26,6.23-19.5,4.91-11.79-6.09-23.54-12.26-35.38-18.25-23.72-11.98-47.47-23.89-71.23-35.78-20.03-10.02-40.09-19.98-60.14-29.97-15.05-7.64-30.06-15.34-45.16-22.89-8.42-4.21-16.55-9.03-25.44-12.27-1.12-.68-2.19-1.44-3.35-2.03-19.95-10.12-39.89-20.26-59.88-30.31-14.8-7.43-29.67-14.73-44.5-22.08,.09-.32,.05-.63-.12-.92,3.97-1.2,8.01-2.2,11.88-3.66,4.07-1.54,7.73-1.12,11.41,1.05,15.02,8.86,31.01,15.83,46.48,23.81,14.59,7.53,29.34,14.76,44.02,22.11,1.18,.59,2.41,1.06,3.62,1.59Z"/>
  <path class="cls-1" d="M213.67,160.1c-1.78-.36-3.82,.71-5.37-.96,6.68-2.4,13.36-4.81,20.06-7.19,1.23-.44,2.45-1.22,3.81-.86,2.05,.56,4.26,.76,5.91,2.34-1.67,.71-3.33,1.43-5.01,2.12-2.88,1.19-6.15,1.25-8.84,3.01-1.25,.32-2.5,.64-3.74,.96l-6.82,.57Z"/>
  <path class="cls-3" d="M220.48,159.53c1.25-.32,2.5-.64,3.74-.96,.6,.59,1.19,1.19,1.79,1.78,.17,.29,.21,.6,.12,.92-.15,.55-.3,1.1-.45,1.65-1.64-.44-3.28-.89-4.92-1.33-.09-.69-.19-1.38-.28-2.06Z"/>
  <path class="cls-4" d="M220.77,161.6c1.64,.44,3.28,.89,4.92,1.33,1.81,1.8,4.22,2.58,6.41,3.69,26.63,13.48,53.22,27.02,79.96,40.26,6.81,3.37,13.27,7.5,20.56,9.88,1.84,1.12,3.6,2.38,5.52,3.34,19.09,9.65,38.17,19.3,57.32,28.83,2.92,1.45,5.45,3.89,8.99,3.95,15.53,7.89,31.03,15.85,46.6,23.67,40.05,20.14,80.12,40.22,120.19,60.32,2.23,1.99,4.12,4.4,4.96,7.15,1.39,4.54,4.68,7.74,7.11,11.54l-.02-.13c-.38,1.89-1.38,1.3-2.53,.71-30.6-15.55-61.19-31.12-91.83-46.61-30.35-15.35-60.75-30.62-91.13-45.91-.44-.22-.93-.34-1.39-.51-.53-.21-1.07-.42-1.6-.63-.69-.3-1.38-.61-2.07-.91-.66-.34-1.32-.68-1.98-1.02-5.48-4.15-11.91-6.55-17.94-9.66-16.4-8.46-32.88-16.76-49.35-25.07-1.47-.74-3.11-1.15-4.67-1.71-9.36-5.7-19.39-10.14-29.14-15.1-28.7-14.6-57.5-29.03-86.25-43.54-1.16-.58-2.57-.92-2.76-2.55,4.29-1.2,8.86,1.47,13.05-.97,2.37,.15,4.74,.31,7.07-.36Z"/>
  <path class="cls-1" d="M583.29,355.44l.02,.13c2.21-2.54,.29-4.59-.98-6.5-6.66-10-6.75-10.12,4.51-13.76,3.94-1.27,7.71-4.29,12.3-2.26,3.84,3.87,7.62,7.8,11.53,11.6,1.68,1.64,1.77,2.44-.64,3.36-3.54,1.35-7.06,2.82-10.12,5.17-.6,.25-1.23,.43-1.79,.75-4.69,2.66-9.32,5.95-14.63,1.23l-.21,.29Z"/>
  <path class="cls-11" d="M571.23,336.87c-40.06-20.1-80.14-40.19-120.19-60.32-15.56-7.83-31.07-15.78-46.6-23.67,0-.67,.01-1.34,.02-2.02,20.05,9.99,40.11,19.95,60.14,29.97,23.76,11.89,47.52,23.79,71.23,35.78,11.84,5.99,23.59,12.16,35.38,18.25,0,.67,0,1.34,0,2.02Z"/>
  <path class="cls-11" d="M220.77,161.6c-2.33,.67-4.7,.51-7.07,.36-.01-.62-.02-1.24-.03-1.85l6.82-.57c.09,.69,.19,1.38,.28,2.06Z"/>
  <path class="cls-6" d="M689.73,177.92c1.28,0,2.36,.12,3.45,.72,11.76,6.46,23.36,13.23,35.4,19.16,1.16,.57,2.19,1.48,3.15,2.37,1.75,1.62,1.52,2.87-.52,4.32-5.28,3.78-11.61,5.87-16.65,9.84-5.79,4.56-10.6,3.01-16.21-.15-11.11-6.26-22.51-12.01-33.77-18.01-1.68-.9-4.18-1.18-4.33-3.61-.18-2.82,2.65-2.54,4.28-3.33,6.84-3.36,13.75-6.58,20.64-9.85,1.49-.71,2.92-1.64,4.57-1.46Z"/>
  <path class="cls-3" d="M463.65,99.19c-2.73-1.24-5.99-2.43-8.96-4.14-12.09-6.96-24.9-12.48-37.13-19.16-2.32-1.27-4.67-2.5-6.95-3.84-.91-.53-2.61-.49-2.41-1.99,.15-1.17,1.46-1.69,2.51-2.22,10.91-5.63,21.83-11.25,32.73-16.92,3.15-1.64,6-1.01,8.98,.53,15.48,7.97,31.04,15.78,46.46,23.86,2.05,1.07,5.97,.78,5.79,3.64-.15,2.25-3.82,2.67-5.96,3.81-8.79,4.67-17.65,9.22-26.48,13.81-2.52,1.3-5.16,2.23-8.57,2.63Zm-14.75-44.22c-1.34-.15-2.51,.53-3.72,1.08-7.69,3.54-15.4,7.04-23.07,10.64-3.53,1.66-3.63,4.04,0,6.08,13.32,7.48,26.74,14.78,40.13,22.12,1.29,.71,2.63,1.55,4.16,.4,7.14-5.36,15.86-8.06,22.92-13.6,3.52-2.76,3.66-3.67-.26-5.82-11.79-6.48-23.63-12.87-35.46-19.27-1.45-.78-2.87-1.74-4.71-1.63Z"/>
  <path class="cls-4" d="M666.77,285.74h-.04s.03,0,.04,0Z"/>
  <path class="cls-6" d="M174.03,194.75c4.71,.87,8.5,4.06,12.66,6.29,8.61,4.63,17.11,9.45,25.85,13.83,1.32,.66,2.68,1.37,3.79,2.32,1.79,1.53,1.76,2.94-.53,4.22-7.22,4.03-14.4,8.16-21.57,12.29-2.5,1.44-4.93,1.64-7.54,.22-13.55-7.33-27.13-14.61-40.68-21.94-2.49-1.35-3.38-3.01-.21-4.55,8.34-4.07,16.72-8.05,25.12-12.01,.87-.41,1.91-.43,3.1-.68Z"/>
  <path class="cls-3" d="M430.39,362.15c-1.44-.62-2.68-1.07-3.85-1.67-16.69-8.51-33.34-17.08-50.07-25.51-3.32-1.68-3.05-2.41,0-4.21,11.32-6.64,23.57-11.5,34.84-18.21,1.61-.96,2.85-.31,4.18,.36,17.22,8.63,34.45,17.26,51.65,25.92,1.03,.52,1.92,1.3,2.88,1.94,1.65,1.11,1.01,1.48-.43,2.2-10.82,5.45-21.55,11.04-32.37,16.5-2.19,1.11-4.59,1.81-6.85,2.68Zm-15.93-44.32c-1.39-.09-2.61,.38-3.83,.96-7.95,3.74-15.88,7.5-23.88,11.13-2.46,1.12-2.46,2.26-.74,4.04,2.29,2.37,5.54,2.87,8.28,4.36,11.64,6.32,23.41,12.4,35.11,18.6,1.57,.83,3,1.12,4.67,.15,7.6-4.38,15.25-8.69,22.89-13.01,1.85-1.04,1.68-2.41,.37-3.61-1.07-.99-2.41-1.74-3.7-2.45-9.71-5.37-19.4-10.8-29.19-16.02-3.17-1.69-6.17-3.98-9.99-4.15Z"/>
  <path class="cls-3" d="M401.04,521.81c17.25,.91,29.81,12.71,32.24,28.74,1.32,8.72-5.99,16.44-15.34,16.2-12.94-.33-25.66-9.21-28.07-22.32-1.36-7.36,.69-14.09,5.45-19.92,1.69-2.07,3.71-3.38,5.73-2.7Zm-4.6,22.48c0,5.99,2.67,10.01,8.03,12.58,5.23,2.51,9.56,.12,14.01-2.17,5.37-2.76,7.06-6.36,5.65-12.25-1.13-4.72-4.21-7.65-8.42-9.76-6.98-3.51-20.63,3.12-19.27,11.61Z"/>
  <path class="cls-3" d="M678.44,306.02c.64-.07,1.28-.15,1.92-.22,.26,.71,.07,1.39-.67,1.46-.66,.06-1.08-.57-1.25-1.24Z"/>
  <path class="cls-11" d="M332.62,216.75c-7.29-2.38-13.75-6.51-20.56-9.88-26.74-13.24-53.34-26.78-79.96-40.26-2.19-1.11-4.61-1.89-6.41-3.69,.15-.55,.3-1.1,.45-1.65,14.84,7.36,29.7,14.65,44.5,22.08,19.99,10.04,39.93,20.19,59.88,30.31,1.16,.59,2.24,1.35,3.35,2.03-.42,.35-.83,.71-1.25,1.06Z"/>
  <path class="cls-3" d="M332.62,216.75c.42-.35,.83-.71,1.25-1.06,8.89,3.24,17.02,8.07,25.44,12.27,15.09,7.54,30.11,15.25,45.16,22.89,0,.67-.01,1.34-.02,2.02-3.54-.06-6.07-2.49-8.99-3.95-19.15-9.53-38.24-19.18-57.32-28.83-1.91-.97-3.68-2.22-5.52-3.34Z"/>
  <path class="cls-6" d="M448.9,54.98c1.84-.11,3.26,.85,4.71,1.63,11.83,6.4,23.67,12.79,35.46,19.27,3.92,2.16,3.78,3.06,.26,5.82-7.06,5.55-15.77,8.24-22.92,13.6-1.53,1.15-2.87,.31-4.16-.4-13.39-7.34-26.81-14.65-40.13-22.12-3.64-2.04-3.53-4.43,0-6.08,7.66-3.6,15.37-7.1,23.07-10.64,1.21-.55,2.38-1.24,3.72-1.08Z"/>
  <path class="cls-6" d="M414.46,317.83c3.82,.17,6.82,2.46,9.99,4.15,9.79,5.22,19.48,10.64,29.19,16.02,1.29,.72,2.62,1.46,3.7,2.45,1.31,1.21,1.47,2.57-.37,3.61-7.64,4.32-15.29,8.63-22.89,13.01-1.67,.96-3.1,.68-4.67-.15-11.71-6.2-23.47-12.28-35.11-18.6-2.74-1.49-5.99-1.99-8.28-4.36-1.72-1.78-1.72-2.92,.74-4.04,8-3.63,15.93-7.4,23.88-11.13,1.22-.57,2.44-1.04,3.83-.96Z"/>
  <path class="cls-6" d="M396.44,544.29c-1.36-8.49,12.3-15.12,19.27-11.61,4.2,2.11,7.29,5.04,8.42,9.76,1.41,5.89-.28,9.49-5.65,12.25-4.45,2.29-8.78,4.68-14.01,2.17-5.37-2.57-8.04-6.59-8.03-12.58Zm21.16,3.8c0-6.46-6.05-12.21-12.33-11.49-2.99,.34-5.27,1.94-5.84,5.2-.86,4.93,2.16,10.7,6.67,12.78,5.26,2.43,11.5-1.09,11.5-6.49Z"/>
  <path class="cls-4" d="M417.6,548.09c0,5.4-6.24,8.92-11.5,6.49-4.51-2.08-7.53-7.85-6.67-12.78,.57-3.26,2.84-4.86,5.84-5.2,6.28-.72,12.34,5.04,12.33,11.49Z"/>
  <polygon class="cls-10" points="48.68 198.72 49.51 274.22 242.29 403.41 271.55 318.91 48.68 198.72"/>
  <g class="cls-2">
    <g class="cls-7">
      <g>
        <path class="cls-5" d="M65.93,258.22c-.23-.11-.46-.23-.69-.35-.77-.42-1.13-1.05-1.07-1.9,.02-.37,.12-.71,.23-1.03,2.13-6.22,4.32-12.4,6.38-18.7,.52-1.58,1.32-1.86,2.98-1.05,.26,.13,.53,.28,.83,.46,1.15,.69,1.9,1.75,2.42,3.28,3.03,8.89,6.12,17.77,9.19,26.66,.03,.09,.07,.17,.1,.26,.73,2.16,.44,2.6-1.2,1.79l-.42-.21-.76-.38c-1.03-.51-1.55-1.15-1.99-2.49-1.84-5.52-3.66-11.05-5.5-16.57-.47-1.42-.93-2.85-1.41-4.27-.17-.5-.27-1.17-.76-1.41,0,0-.02,0-.03-.01-.46-.2-.49,.38-.61,.73-1.58,4.99-3.15,9.99-4.72,14.98-.37,1.18-.74,1.3-2.04,.67-.31-.15-.61-.3-.92-.45m22.01-16.87c.32,.16,.64,.28,.97,.44s.65,.35,.98,.66c.72,.66,.93,1.21,.7,1.91-.07,.21-.14,.42-.26,.58-2.27,2.93-4.55,5.85-6.9,8.88-.81-2.36-1.56-4.51-2.3-6.68-.13-.36,0-.51,.13-.66,1.23-1.6,2.46-3.19,3.7-4.78,.68-.88,1.68-.99,2.97-.35,0,0,.02,0,.02,.01m-12.36-18.03c-4.64-2.28-9.28-4.55-13.93-6.8-4.42-2.14-7.96,.54-7.79,5.73,.06,1.97,.21,3.97,.33,5.96,.53,8.88,1.05,17.75,1.59,26.63,.32,5.12,3.21,10.42,7.43,13.71,.21,.15,.48,.18,.63,.57,9.82,4.83,19.65,9.66,29.47,14.49,.11-.14,.28-.09,.45,0,.04,.02,.07,.04,.11,.06,.04,.02,.07,.04,.11,.06,.07,.03,.14,.06,.2,.07,4.03,.8,6.52-1.79,6.24-6.88-.59-10.68-1.21-21.37-1.92-32.1-.38-5.79-4.4-12.29-9-14.58-4.64-2.32-9.29-4.62-13.93-6.9"/>
        <path class="cls-5" d="M189.59,296.5c-2-.98-3.71-1.2-4.8-.67-2.04,1-1.37,4.94,1.25,7.45,1.09,1.05,2.23,1.75,3.37,2.45,1.23,.77,2.47,1.33,3.67,2.44,1.19,1.1,1.45,2.57,.55,3.05-.29,.15-.64,.17-1.01,.12-.7-.11-1.42-.35-2.15-.71-.47-.23-.94-.51-1.42-.84-1.19-.81-2.21-1.77-2.76-3.49-.16-.53-.59-.97-1.05-1.19-.23-.11-.46-.17-.68-.17-.64,.01-.82,.49-.52,1.44,.45,1.44,1.27,2.69,2.28,3.77,1.37,1.45,2.8,2.47,4.25,3.18,.2,.1,.41,.19,.61,.28,1.47,.63,2.89,1.01,4.08,.63,1.28-.42,1.74-1.67,1.41-3.67-.32-2.02-1.46-3.47-2.94-4.64-.99-.77-1.99-1.37-2.99-1.96-1.1-.66-2.19-1.22-3.27-2.11-.6-.5-1.11-1.12-1.23-1.95-.11-.81,.22-1.17,.73-1.28,.21-.05,.44-.05,.68-.02,.67,.08,1.35,.3,2.05,.64,.39,.19,.78,.42,1.17,.68,1.08,.71,2.04,1.54,2.66,3.08,.19,.48,.58,.86,.98,1.05,.27,.14,.56,.18,.78,.12,.55-.15,.63-.74,.21-1.7-.47-1.09-1.12-2.06-1.9-2.92-1.32-1.47-2.73-2.36-3.95-3.03-.02-.01-.05-.02-.07-.03"/>
        <path class="cls-5" d="M259.9,339.52c-.28-.14-.33-.34-.34-.62-.04-.83-.09-1.66-.14-2.49-.05-.77-.09-1.55-.15-2.33-.03-.35,0-.53,.33-.36,.01,0,.03,.01,.04,.02,1.3,.68,2.61,1.26,3.91,2,1.77,1.02,2.98,3.3,2.63,4.86-.24,1.1-1.05,1.21-2.02,.89-.63-.2-1.26-.49-1.9-.8-.31-.15-.62-.31-.93-.47-.34-.17-.67-.34-1.01-.51-.14-.07-.28-.13-.41-.2,0,0-.01,0-.02,0m1.48-7.49c-1.28-.63-2.55-1.17-3.83-1.8-.65-.31-.94,.11-.88,1.04,.26,4.39,.52,8.79,.79,13.18,.06,1.02,.52,1.75,1.32,2.15,.01,0,.02,.01,.03,.02,.78,.38,1.19,.06,1.15-.9-.01-.35-.05-.72-.06-1.07-.02-.88-.45-2.26,0-2.54,.14-.09,.38-.02,.66,.11,.19,.1,.41,.22,.62,.35,.21,.12,.42,.25,.62,.34,.08,.04,.16,.08,.24,.11,.07,.03,.14,.06,.21,.09,.58,.28,1.01,.77,1.45,1.52,1.11,1.9,2.28,3.76,3.43,5.64,.28,.45,.58,.76,.89,.91,.21,.1,.43,.13,.64,.07,.48-.13,.54-.68,.34-1.4-.12-.42-.37-.82-.62-1.21-.83-1.34-1.65-2.67-2.55-4.12,1.39,.15,2.38-.26,2.78-1.65,.81-2.84-1.03-6.92-4.15-9.07-1.03-.71-2.06-1.27-3.08-1.77"/>
        <path class="cls-5" d="M219.58,325.03c-2.39-1.18-4.57-4.28-4.74-7.94-.16-2.71,.79-4.2,2.59-4.02,.53,.05,1.06,.21,1.58,.46,2.63,1.29,4.86,4.99,4.79,8.43-.04,2.25-.69,3.79-2.66,3.56-.52-.06-1.04-.23-1.56-.48m-.78-14.17c-4.17-2.05-6.85-.05-6.56,4.92,.28,5,3.35,9.85,7.56,11.94,0,0,.02,0,.03,.01,4.12,2.03,6.78,.05,6.5-4.88-.28-5.07-3.29-9.88-7.47-11.97-.02,0-.04-.02-.06-.03"/>
        <path class="cls-5" d="M156.66,294.1c-.17-.09-.35-.18-.53-.3-2.31-1.44-3.97-4.02-4.32-6.72-.05-.37-.07-.73-.09-.95-.16-3.26,1.07-4.6,3.44-3.92,.26,.07,.52,.18,.77,.3,2.15,1.06,4.09,3.81,4.56,6.61,.21,1.26,.26,2.42,.01,3.42-.46,1.89-1.98,2.47-3.84,1.56m-.97-14.27c-4.19-2.06-6.88-.04-6.58,4.97,.3,4.97,3.39,9.83,7.54,11.87,.02,.01,.05,.02,.07,.03,4.18,2.02,6.78,.01,6.48-5.01-.31-5.01-3.34-9.81-7.51-11.86"/>
        <path class="cls-5" d="M168.16,288.68c.24,.12,.48,.23,.73,.35,.26,.12,.51,.25,.77,.37,.51,.25,1.02,.52,1.53,.83,1.69,1.02,2.81,2.77,3.44,4.88,.51,1.71,.59,3.24,.28,4.56-.42,1.8-1.64,2.31-3.54,1.48-.4-.17-.8-.36-1.2-.56-.16-.08-.32-.16-.48-.23-.21-.11-.42-.21-.63-.32s-.42-.2-.62-.3c-.02,0-.03-.01-.04-.02-.34-.17-.43-.38-.45-.78-.09-1.68-.19-3.37-.3-5.05l-.3-5.05c-.01-.25-.12-.6,.26-.42,0,0,0,0,.01,0,.18,.09,.35,.18,.53,.27m1.03-2c-1.13-.56-2.27-1.04-3.4-1.56-.68-.3-1.06,.19-1.01,1.08,.12,2.15,.25,4.3,.38,6.46s.25,4.25,.38,6.38c.07,1.11,.63,2.02,1.56,2.49,.95,.47,1.9,.96,2.84,1.43,.7,.35,1.41,.68,2.1,.98,2.08,.9,3.74,.69,4.73-.92,.96-1.57,1.03-3.77,.5-6.33-.75-3.58-2.69-6.69-5.49-8.54-.87-.57-1.73-1.04-2.6-1.47"/>
        <path class="cls-5" d="M248.54,325.76c-1.36-.67-2.72-1.34-4.08-2-1.19-.59-1.6-.27-1.51,1.16,.12,2.04,.24,4.09,.36,6.13s.24,4.14,.38,6.22c.09,1.43,.58,2.19,1.75,2.77,1.36,.67,2.72,1.35,4.09,2.01s2.72,1.34,4.09,2c.87,.43,1.35,.22,1.3-.55-.04-.76-.59-1.56-1.41-2-.06-.03-.11-.06-.16-.08-.11-.05-.22-.1-.33-.16-1.26-.62-2.51-1.24-3.77-1.86-.84-.41-1.67-.82-2.51-1.22-.01,0-.02,0-.03-.01-.47-.23-.62-.48-.63-1.03-.02-.91-.07-1.86-.17-2.82-.06-.56,.08-.61,.51-.41,.01,0,.03,.01,.04,.02,1.06,.53,2.12,1.05,3.17,1.57s2.12,1.04,3.18,1.55c.86,.42,1.26,.24,1.23-.55-.03-.84-.5-1.5-1.37-1.94-1.06-.52-2.11-1.04-3.17-1.56s-2.12-1.04-3.18-1.54c-.44-.22-.62-.41-.63-.97-.02-1.03-.09-2.08-.19-3.15-.06-.59,.11-.6,.55-.39,1.12,.56,2.24,1.12,3.35,1.67s2.24,1.1,3.35,1.64c.87,.42,1.3,.21,1.28-.59-.03-.84-.46-1.44-1.39-1.9-1.36-.67-2.72-1.34-4.08-2.01"/>
        <path class="cls-5" d="M110.77,267.48c.68-1.49,1.33-2.92,2.03-4.47,.88,2.22,1.67,4.23,2.49,6.23,.23,.56,.05,.49-.21,.36-.02-.01-.05-.02-.07-.04l-4.24-2.08m1.75-8.86s-.01,0-.02-.01c-.47-.23-.84-.23-1.04,.2-1.74,3.73-3.51,7.45-5.25,11.19-.26,.54-.03,1.22,.56,1.9,.26,.3,.52,.51,.76,.63,.46,.22,.84,.11,1.07-.36,.35-.73,.7-1.46,1-2.23,.14-.35,.34-.39,.7-.21,.02,0,.04,.02,.06,.03,.38,.2,.77,.39,1.15,.58,.57,.28,1.15,.56,1.72,.84s1.1,.56,1.66,.83c.36,.17,.71,.34,1.06,.49,.05,.02,.09,.04,.14,.06,.5,.25,.82,.6,1.06,1.32,.34,1.01,.79,2.02,1.21,3.03,.32,.77,.76,1.31,1.24,1.55,.24,.12,.48,.16,.72,.12,.61-.09,.66-.59,.16-1.82-1.34-3.32-2.68-6.65-4.03-9.98-.9-2.23-1.81-4.45-2.69-6.68-.29-.73-.71-1.21-1.25-1.48"/>
        <path class="cls-5" d="M132.76,268.84c-.84-.41-1.24-.08-1.18,1.04,.14,2.64,.33,5.31,.44,7.94,.08,1.83-.81,2.84-2.22,2.72-.51-.05-1.02-.2-1.51-.44-2.13-1.05-3.91-3.76-4.13-6.63-.19-2.56-.3-5.09-.46-7.63-.07-1.01-.52-1.7-1.37-2.12,0,0-.01,0-.02,0-.82-.4-1.2-.13-1.15,.86,.07,1.38,.17,2.77,.25,4.15h.02c.08,1.41,.13,2.81,.27,4.24,.16,1.68,.73,3.4,1.77,5.08,1.46,2.38,3.15,3.84,4.93,4.72,.5,.25,1.02,.45,1.54,.61,2.75,.87,4.53-.57,4.62-3.74,.09-2.82-.28-5.87-.43-8.82-.05-.85-.54-1.53-1.25-1.92-.04-.02-.08-.04-.12-.06"/>
        <path class="cls-5" d="M204.52,303.84c-3.83-1.88-6.95-.41-6.58,4.87,.12,1.69,.47,3.18,1.1,4.72,1.31,3.19,3.8,5.96,6.34,7.21,.54,.26,1.08,.46,1.61,.58,1.6,.36,2.98,.21,3.93-.88,.46-.54,.4-1.32-.14-2.07-.21-.3-.46-.51-.72-.64-.36-.17-.73-.18-1.02,.02-.23,.15-.42,.34-.65,.47-.89,.52-1.99,.44-3.08-.1-1.87-.92-3.71-3.15-4.49-5.87-.32-1.12-.39-2.14-.39-3.13,0-2.1,1.07-3.33,2.8-3,.56,.1,1.1,.28,1.64,.55,1.21,.59,2.36,1.63,3.4,3.28,.09,.14,.18,.28,.28,.4,.25,.31,.52,.54,.79,.67,.33,.16,.64,.17,.85-.01,.35-.31,.32-.99-.16-1.82-1.26-2.21-2.85-3.67-4.61-4.74-.31-.19-.61-.35-.91-.5"/>
        <path class="cls-5" d="M228.03,315.64c-.21-.11-.44-.14-.67-.11-.7,.09-.78,.68-.25,1.98,2.09,5.13,4.19,10.26,6.27,15.39,.33,.81,.67,1.55,1.4,1.91,0,0,0,0,.01,0,.74,.36,1.04-.07,1.3-.61,1.28-2.78,2.57-5.55,3.86-8.32,.31-.66,.65-1.29,.92-1.98,.31-.77-.21-1.89-1.1-2.44-.06-.04-.12-.07-.17-.1-.61-.3-.93-.02-1.16,.48-1.28,2.72-2.58,5.42-3.87,8.14-.23-.27-.29-.58-.42-.87-1.62-3.95-3.24-7.89-4.86-11.83-.35-.86-.79-1.42-1.26-1.65"/>
        <path class="cls-5" d="M144.62,274.67c-.85-.42-1.7-.83-2.55-1.25s-1.7-.84-2.55-1.26-1.7-.83-2.54-1.24c-.87-.43-1.3-.2-1.27,.61,.03,.85,.54,1.6,1.42,2.05,.59,.3,1.17,.6,1.76,.88,.48,.24,.97,.47,1.45,.68,.03,.01,.06,.03,.09,.04,.46,.23,.55,.49,.58,1.04,.21,3.76,.44,7.52,.67,11.28,.06,.97,.61,1.84,1.33,2.2,.1,.05,.2,.09,.31,.12,.66,.18,.95-.17,.9-1.14-.22-3.73-.45-7.47-.7-11.21-.04-.56,.03-.76,.49-.53,.03,.01,.06,.03,.09,.05,.46,.25,.92,.48,1.37,.71,.61,.3,1.23,.59,1.84,.89,.9,.43,1.44,.15,1.38-.66-.07-.81-.62-1.55-1.52-1.99-.85-.42-1.7-.84-2.55-1.26"/>
        <path class="cls-5" d="M270.83,336.71c-.28-.14-.54-.16-.77-.04-.56,.28-.53,.9,.14,2.17,1.56,2.95,3.12,5.9,4.69,8.84,.27,.5,.39,.92,.42,1.38,.07,1.46,.16,2.92,.28,4.4,.07,.87,.54,1.61,1.18,1.99,.04,.02,.08,.05,.12,.07,.6,.29,1.09,.08,1.17-.61,.05-.36,0-.8-.02-1.21-.07-1.35-.42-2.94-.15-3.99,.28-1.07,1.16-1.62,1.79-2.39,.78-.97,1.59-1.91,2.36-2.91,.39-.49,.25-1.28-.27-2-.23-.32-.49-.55-.75-.67-.31-.15-.63-.16-.88,.02-.18,.13-.33,.32-.48,.51-1.09,1.33-2.18,2.67-3.32,4.06-1.46-2.81-2.85-5.51-4.26-8.2-.37-.71-.82-1.2-1.25-1.42"/>
        <path class="cls-5" d="M180.54,292.33c-.86-.42-1.2-.08-1.13,1.15,.12,2.1,.25,4.2,.38,6.3,.13,2.24,.25,4.47,.41,6.72,.06,.99,.53,1.73,1.3,2.1,.07,.03,.14,.07,.22,.1,.72,.27,1.07-.07,1.01-1.04l-.77-12.93c-.07-1.19-.5-1.93-1.36-2.37-.02,0-.04-.02-.06-.03"/>
      </g>
    </g>
  </g>
</svg>