<?xml version="1.0" encoding="UTF-8"?>
<svg id="Layer_1" data-name="Layer 1" xmlns="http://www.w3.org/2000/svg" viewBox="0 0 669.34 514.26">
  <defs>
    <style>
      .cls-1 {
        fill: #fff;
      }

      .cls-2 {
        fill: #d43a38;
      }

      .cls-3 {
        fill: #b3aaab;
      }

      .cls-4 {
        fill: #d7d1d1;
      }

      .cls-5 {
        fill: #3f3f45;
      }

      .cls-6 {
        fill: #8e8180;
      }

      .cls-7 {
        fill: #1d1b1b;
      }
    </style>
  </defs>
  <path class="cls-7" d="M0,368.51c.02-1.68,.05-3.36,.07-5.04,1.28-2.32,2.13-5.07,3.93-6.88,3.58-3.59,3.95-7.8,3.6-12.35-.97-12.62,.51-25.23,.03-37.83-.3-7.76,3.74-12.42,9.95-15.85,3.63-2.01,7.37-3.85,11.07-5.72,1.35-.68,2.74-1.23,2.88-3.06,.18-2.34-.08-4.02-3.16-2.97-2.36,.8-4.77,1.47-7.2,2.01-3,.67-5.4-.33-6.29-3.37-.87-2.96-.43-5.53,3.09-6.79,3.43-1.23,6.78-2.74,10.09-4.27,1.25-.58,3.22-.52,3.34-2.49,.12-1.97-1.74-2.23-2.99-2.87-5.62-2.86-11.25-5.7-16.94-8.44-2.63-1.26-3.98-2.83-3.95-6.08,.17-18.26,.07-36.53,.08-54.79,0-4.53,.9-8.86,2.87-12.98,1.56-3.27,3.82-5.55,7.17-7.19,31.85-15.67,63.64-31.46,95.44-47.24,32.41-16.08,64.98-31.83,97.17-48.35,40.48-20.77,81.34-40.78,122.15-60.89,11.52-5.68,22.77-12.48,35.92-14.25,2.46-.33,4.94-.85,7.41-.83,17.5,.16,34.59,1.74,50.68,9.91,73.34,37.25,146.83,74.22,220.26,111.29,.45,.22,.88,.48,1.33,.69,14.82,6.81,11.76,4.15,12.66,20.63,1.05,19.39,.32,38.88,.37,58.33-.26,.2-.36,.46-.32,.79-.37,.3-.73,.6-1.1,.9-6.24,3.08-12.48,6.15-18.71,9.24-.74,.37-1.6,.71-2.08,1.32-1.38,1.73-.81,3.81-.58,5.73,.15,1.24,1.26,.69,1.95,.39,5.1-2.25,10.75-3.5,14.18-8.65,1.73-2.6,4.02-4.84,6.06-7.24,.33-.26,.67-.52,1-.79,.34-.04,.5-.23,.48-.57,6.37-.63,8.52,1.98,6.01,7.76-2.04,4.71-4.63,9.19-6.87,13.82-.81,1.68-2.24,2.27-3.77,2.98-4.97,2.32-9.86,4.79-14.82,7.13-2.25,1.06-1.79,1.82,.03,2.8,4.24,2.28,8.44,4.65,12.66,6.96,5.32,2.91,6.58,5.62,6.23,11.54-.97,16.43-.03,32.88-.44,49.32-.03,1.24,.32,2.02,1.47,2.83,6.91,4.88,8.72,11.8,5.15,19.49-1.72,3.72-4.5,6.41-8.1,8.49-21.45,12.39-43.95,22.71-66.02,33.86-51.74,26.13-103.55,52.14-155.36,78.14-37.25,18.7-74.67,37.08-111.77,56.07-11.08,5.67-22.2,10.33-34.71,11.1-4.34,0-8.68-.02-13.02-.02-15.77-.79-29.04-8.41-42.63-15.34-69.53-35.45-139.12-70.79-208.69-106.16-8.02-4.08-15.67-8.66-21.87-15.35-2.43-2.62-3.89-5.73-5.39-8.87Zm619.91-90.86l.04-.1c-1.49-.73-2.46,.48-3.56,1.03-29.67,14.88-59.36,29.72-88.98,44.7-32.16,16.27-64.22,32.75-96.39,49.01-35.26,17.82-70.6,35.49-105.88,53.27-1.84,.93-4.22,1.32-4.92,3.79-.72,.08-1.44,.16-2.16,.24-8.93,2.98-18.03,5.21-27.39,6.34-.76-.41-1.49-.52-2.15,.18-1.66,.04-3.31,.08-4.97,.12-2.57-.84-5.26-.64-7.89-.72-10.29-.29-19.92-2.95-29.06-7.64-19.36-9.93-38.76-19.8-58.15-29.67-57.45-29.23-114.9-58.45-172.35-87.66-4.08-2.07-4.14-2.04-4.14,2.49,0,13.62,.1,27.24,.04,40.86-.02,4.66,2.11,7.95,5.91,10.21,3.56,2.12,7.23,4.06,10.93,5.93,42.72,21.53,85.45,43.05,128.2,64.53,35.02,17.59,70.13,35.02,105.09,52.73,6.8,3.44,13.73,5.75,21.31,6.17,4.36,.81,8.74,.65,13.11,.12,.5,.37,.89,.2,1.23-.25,5.83-.28,11.5-1.4,16.76-3.92,10.57-5.05,21.04-10.29,31.53-15.51,.96-.48,2.55-.63,2.49-2.07-.17-4.53,1.19-9.24-1.47-13.5,2.62-1.41,4.41-1.48,4.28,2.34-.08,2.64,.15,5.28,.24,7.92-.94,2.73-1.01,5.12,1.87,6.95,1.04,.66,1.96,1.99,2.28,3.19,1,3.7,2.71,3.38,5.66,1.89,26.53-13.4,53.17-26.58,79.71-39.96,33.96-17.12,67.92-34.25,101.78-51.58,18.62-9.53,37.76-18.03,56.14-28.04,1.85-1.01,2.89-1.87,2.66-4.07-.39-3.6-.29-7.23-.59-10.86-.55-6.51-1.44-13.19,.61-19.69,.9-.28,1.81-.56,2.71-.83-1.42,4.16-1.46,8.46-1.36,12.78,.1,4.57,.28,4.82,4.29,2.83,14.56-7.2,29.04-14.56,43.61-21.74,3.89-1.92,5.69-4.95,5.7-9.11,.05-16.25-.04-32.5,.1-48.74,.03-3.84-1.48-3.12-3.78-1.92-8.81,4.6-17.65,9.16-26.52,13.67-1.55,.79-2.76,1.78-3.59,3.28h-1.95c-.52,.15-1.42-.11-1.08,.98Zm-351.23,152.52c18.46,3.43,36.19,.8,52.83-7.55,40.09-20.12,79.93-40.76,120.1-60.74,39.58-19.69,78.77-40.17,118.26-60.06,26.11-13.15,51.93-26.89,78.41-39.32,4.96-2.33,9.8-4.92,14.71-7.35,1.99-.98,3.07-2.54,3.02-4.74-.04-1.96-1.56-2.79-3.07-3.56-3.7-1.88-7.44-3.69-11.09-5.67-2.26-1.23-3.28-1.26-3.95,1.76-1.01,4.48-3.57,8.17-7.9,10.31-34.98,17.35-70,34.63-104.93,52.09-31.51,15.75-62.86,31.83-94.37,47.56-34.18,17.06-68.15,34.53-102.79,50.66-3.15,1.46-6.23,2.98-9.56,4.12-4.7,1.6-9.68,3.07-11.65,8.86-1.01,2.97-4.22,4.58-6.93,6.24-8.84,5.39-18.16,7.08-28.14,3.59-6.12-4.02-12.22-8.06-15.19-15.23-.39-.94-1.32-1.4-2.26-1.84-3.01-1.39-5.99-2.86-8.96-4.33-66.81-33.19-133.62-66.38-200.41-99.6-6.09-3.03-11.23-7.09-13.23-14.02-.44-1.51-1.09-2.47-2.78-1.58-4.68,2.48-9.76,4.3-13.66,8.1-3.53,3.43-3.31,5.12,1.1,7.4,7.97,4.12,15.96,8.2,23.95,12.28,27.82,14.19,55.66,28.35,83.48,42.56,41.58,21.23,83.1,42.55,124.75,63.65,6.33,3.2,13.12,5.56,20.29,6.4Zm14.79-109.87c-3.58-1.17-7.25,.53-10.8-.29-7.11-1.63-14.08-3.66-20.66-7.01-34.89-17.8-69.71-35.73-104.79-53.14-20.67-10.26-41.27-20.67-61.9-31-22.89-11.46-45.71-23.03-68.61-34.48-4.64-2.32-4.75-2.17-4.75,2.97-.01,15.12,.18,30.25-.12,45.37-.08,4.19,1.49,6.08,5.02,7.82,76.59,37.83,153.09,75.82,229.71,113.6,11.24,5.54,23.41,8.11,36,8.37,11.96,1.29,23.3-2.24,34.78-4.59,1.37-.28,1.86-.93,1.85-2.73-.1-15.55-.02-31.1,.2-46.65,.05-3.38-.2-4.65-4.22-3.5-10.34,2.95-20.86,5.17-31.7,5.26Zm1.91-4.5c8.38-.67,16.34-.95,24-3.17,7.83-2.27,14.91-6.22,22.15-9.91,36.09-18.4,72.28-36.62,108.49-54.8,31.91-16.02,63.74-32.21,95.43-48.65,20.5-10.64,41.36-20.58,61.81-31.33,16.92-8.89,34.14-17.21,51.24-25.76,1.94-.97,3.74-2.05,5.39-3.52,2.72-2.44,2.32-4.88,.53-7.51-1.08-1.59-2.8-2.3-4.43-3.12-28.91-14.61-57.8-29.26-86.72-43.82-24.91-12.54-50-24.72-74.74-37.59-18.12-9.43-36.59-18.16-54.37-28.26-5.7-3.24-11.85-6.06-18.14-7.85-9.5-2.7-19.3-4.23-29.16-5.53-11.64-1.53-22.57,.24-32.83,5.15-25.45,12.18-50.7,24.78-75.97,37.35-35.43,17.61-70.82,35.3-106.18,53.04-32.22,16.17-64.18,32.85-96.63,48.53-17.64,8.53-35.29,17.05-52.91,25.64-2.59,1.27-4.78,3.02-6.97,4.74-3.41,2.69-3.09,6.51,.48,8.92,1.51,1.02,3.09,1.95,4.71,2.78,26.79,13.64,53.79,26.86,80.5,40.66,36.18,18.69,72.97,36.17,109.07,55.02,13.7,7.16,27.61,13.93,41.47,20.78,3.4,1.68,6.36,4.04,10.16,5.13,7.91,2.27,16.06,1.93,23.6,3.09Zm337.48-126.72c0-8.14-.08-16.28,.04-24.42,.05-3.1-.98-3.53-3.43-2.01-.7,.44-1.47,.78-2.21,1.15-30.05,14.83-59.76,30.35-89.85,45.12-32.5,15.94-64.47,32.96-96.78,49.29-35.7,18.04-71.09,36.7-107.19,53.93-1.79,.85-2.39,1.75-2.24,3.76,.79,10.43,.98,20.9,.73,31.35-.13,5.48-.23,10.95-.16,16.44,.03,2.18,.34,2.7,2.79,2.03,5.4-1.48,9.88-4.67,14.76-7.1,34.92-17.41,69.67-35.16,104.66-52.43,35.59-17.56,70.83-35.83,106.24-53.75,23.1-11.69,46.22-23.37,69.4-34.9,2.82-1.4,3.53-2.88,3.36-6.01-.4-7.45-.13-14.95-.14-22.42Zm-313.42,200.01s-.01,0-.02,0c0,4.15,.15,8.32-.05,12.46-.16,3.47,1.05,4.67,4.35,3.33,3.83-1.55,7.77-2.9,11.44-4.77,35.38-17.96,71.12-35.19,106.51-53.15,36.71-18.63,73.09-37.9,110.36-55.43,28.09-13.21,55.36-28.14,83.58-41.1,3.9-1.79,7.79-3.96,8.02-9.24,.1-2.36-.43-3.19-2.73-2.05-2.83,1.4-5.65,2.82-8.51,4.15-5.06,2.36-9.99-.93-9.7-6.46,.22-4.08,2.48-6.78,6.07-8.41,4.24-1.92,8.48-3.84,12.8-5.54,3.13-1.23,2.72-4.02,1.98-5.84-.94-2.33-2.74-.07-3.92,.52-34.13,17.12-68.1,34.55-102.33,51.49-32.31,15.99-64.32,32.58-96.49,48.84-30.23,15.29-60.46,30.6-90.79,45.68-8.72,4.34-17.38,9.21-27.49,9.69-2.76,.13-3.22,1.52-3.14,3.86,.13,3.98,.04,7.98,.04,11.96Zm-53.52-.78s-.07,0-.1,0c0-1.99-.23-4.02,.04-5.98,.88-6.38-1-9.62-7.64-12.75-34.27-16.14-68.07-33.3-102.02-50.12-34.84-17.26-69.67-34.55-104.51-51.81-4.08-2.02-5.59-1.25-5.7,3.14-.14,5.98-.14,11.97,.03,17.95,.11,3.79,1.46,6.88,5.01,9.13,10,6.34,20.9,10.88,31.42,16.15,50.83,25.43,101.73,50.7,152.63,76,9.08,4.51,18.25,8.83,27.33,13.34,2.56,1.27,3.6,.86,3.54-2.1-.09-4.32-.02-8.64-.02-12.96Zm400.86-217.85c-.63-6.6-.14-14.72,.04-22.83,.06-2.67-.42-3.76-3.31-2.26-8.53,4.43-17.13,8.73-25.75,13-1.89,.93-2.58,2.18-2.58,4.28,.06,16.24,.06,32.48-.01,48.72-.01,2.6,.57,3.28,3.07,2,8.56-4.36,17.14-8.67,25.8-12.83,2.4-1.15,2.8-2.82,2.77-5.17-.1-7.8-.04-15.6-.04-24.92Zm-351.71,222.98c0-4.65-.2-9.31,.07-13.94,.2-3.44-1.05-4.41-4.29-3.79-6.36,1.21-12.78,2.09-19.26,1.73-2.5-.14-3.27,1.29-3.56,3.17-.43,2.77-.45,5.6-.89,8.37-1.54,9.81,.06,19.48,1.64,29.07,.82,5.02,2.68,5.77,7.78,5.1,4.9-.65,9.14-2.89,13.07-5.75,3.87-2.83,5.88-6.51,5.52-11.52-.29-4.13-.06-8.3-.07-12.45Zm-19.93,115.67c10.55,.5,20.5-1.35,30.24-6.12,11.18-5.48,22.32-11.06,33.5-16.56,3.95-1.94,4.59-5.1,1.75-7.36-2.35-1.88-4.49,.01-6.44,.87-8.49,3.74-16.58,8.27-25.27,11.66-13.71,5.34-27.44,8.04-42.24,5.84-5.83-.87-11.55-3.06-17.66-2.37-2.56,.29-5.29,.05-6.15,3.02-.99,3.42,1.85,4.54,4.22,5.8,8.79,4.68,18.27,5.66,28.06,5.22Zm378.8-189.7c-.11-1.79,.41-3.68-.44-5.38-.34-.68-1.08-1.56-1.71-1.62-1.2-.12-.63,1.18-.95,1.82-2.16,4.43-5.21,7.99-9.72,10.22-12.19,6.04-24.37,12.11-36.49,18.29-1.23,.63-4.43,.82-2.32,3.48,1.49,1.88,1.12,6.67,6.03,4.16,13-6.65,26.14-13.02,39.14-19.68,4.44-2.27,7.15-5.9,6.47-11.3Zm-3.23-106.15c-.2-.34-.36-.96-.67-1.05-.94-.29-1.54,.48-2.07,1.07-2.37,2.69-4.32,5.43-8.14,6.84-9.31,3.41-18.34,7.59-27.46,11.52-1.8,.78-3.72,1.45-4.6,3.54-.53,1.25-1.25,2.55-.37,3.74,1.09,1.47,2.43,.39,3.56-.15,11.35-5.47,22.67-11.01,34.03-16.44,3.83-1.83,4.14-5.73,5.72-9.07Z"/>
  <path class="cls-5" d="M285.38,315.81c-7.54-1.16-15.69-.82-23.6-3.09-3.81-1.09-6.77-3.45-10.16-5.13-13.86-6.86-27.76-13.63-41.47-20.78-36.1-18.85-72.89-36.33-109.07-55.02-26.71-13.8-53.71-27.01-80.5-40.66-1.62-.83-3.2-1.76-4.71-2.78-3.57-2.41-3.89-6.23-.48-8.92,2.18-1.72,4.37-3.47,6.97-4.74,17.62-8.59,35.26-17.11,52.91-25.64,32.45-15.68,64.41-32.36,96.63-48.53,35.36-17.74,70.76-35.43,106.18-53.04,25.27-12.56,50.52-25.17,75.97-37.35,10.27-4.91,21.19-6.68,32.83-5.15,9.86,1.3,19.65,2.82,29.16,5.53,6.29,1.79,12.43,4.6,18.14,7.85,17.78,10.1,36.25,18.83,54.37,28.26,24.73,12.87,49.83,25.05,74.74,37.59,28.93,14.57,57.82,29.21,86.72,43.82,1.63,.82,3.35,1.54,4.43,3.12,1.78,2.63,2.18,5.07-.53,7.51-1.65,1.47-3.45,2.55-5.39,3.52-17.1,8.55-34.32,16.87-51.24,25.76-20.45,10.75-41.31,20.69-61.81,31.33-31.7,16.45-63.52,32.63-95.43,48.65-36.21,18.18-72.39,36.4-108.49,54.8-7.24,3.69-14.33,7.64-22.15,9.91-7.66,2.22-15.62,2.49-24,3.17Z"/>
  <path class="cls-4" d="M320.23,429.36c.7-2.47,3.08-2.86,4.92-3.79,35.28-17.78,70.62-35.44,105.88-53.27,32.17-16.26,64.22-32.74,96.39-49.01,29.62-14.98,59.31-29.82,88.98-44.7,1.1-.55,2.06-1.77,3.56-1.03,.68,2.46-.84,4.44-1.64,6.49-5.5,14.14-10.15,28.62-16.54,42.41-2.05,6.5-1.15,13.18-.61,19.69,.3,3.63,.21,7.26,.59,10.86,.24,2.19-.81,3.06-2.66,4.07-18.39,10.01-37.52,18.51-56.14,28.04-33.86,17.33-67.81,34.46-101.78,51.58-26.54,13.38-53.18,26.56-79.71,39.96-2.95,1.49-4.66,1.8-5.66-1.89-.32-1.2-1.25-2.53-2.28-3.19-2.88-1.83-2.81-4.22-1.87-6.95,2.21-.22,4.06-1.41,6-2.32,17.75-8.36,35.55-16.59,53.2-25.16,33.04-16.05,65.98-32.32,98.99-48.45,1.9-.93,3.41-1.99,3.91-4.16,.96-4.21,1.95-8.42,2.95-12.62,.67-2.78-.55-2.86-2.59-1.87-.75,.37-1.49,.73-2.24,1.09-52.56,25.33-105.12,50.65-157.69,75.98q-8.44,4.06-14.87-3.66c1.75-.95,3.45-1.99,5.25-2.85,53.29-25.68,106.6-51.33,159.88-77.02,5.68-2.74,12.42-4.54,16.57-8.81,3.9-4.02,3.59-11.14,5.16-16.88,.29-1.08,1.39-2.46,.52-3.26-1.15-1.05-2.35,.45-3.41,.97-20.57,10.12-41.13,20.28-61.67,30.47-44.49,22.08-88.98,44.19-133.46,66.29-3.17-1.74-5-4.99-7.93-7Z"/>
  <path class="cls-4" d="M622.86,189.09c0,7.48-.27,14.97,.13,22.42,.17,3.14-.54,4.61-3.36,6.01-23.19,11.53-46.3,23.2-69.4,34.9-35.41,17.92-70.65,36.19-106.24,53.75-34.99,17.27-69.74,35.02-104.66,52.43-4.88,2.43-9.36,5.63-14.76,7.1-2.44,.67-2.76,.15-2.79-2.03-.08-5.48,.02-10.95,.16-16.44,.25-10.45,.06-20.92-.73-31.35-.15-2.01,.45-2.9,2.24-3.76,36.11-17.23,71.49-35.89,107.19-53.93,32.31-16.33,64.28-33.35,96.78-49.29,30.09-14.76,59.79-30.29,89.85-45.12,.74-.37,1.51-.71,2.21-1.15,2.45-1.52,3.48-1.08,3.43,2.01-.13,8.14-.04,16.28-.04,24.42Zm-90.74,38.66c-3.47,2.51-4.02,6.25-3.78,10.05,.2,3.19,2.35,4.29,5.26,2.93,3.98-1.85,5.54-5.53,6.4-9.47,.49-2.26,.52-5.06-1.91-6.17-2.58-1.18-4.77,.18-6.05,2.73l.08-.08Zm-52.89,26.93c-1.88,.18-1.4,2.63-2.97,3.1-1.19-.32,1.16-2.85-1.18-2.16-3.28,.97-6.29,2.68-9.11,4.64-.32,.22-.37,.84-.54,1.28,.42,.11,.96,.45,1.25,.3,3.29-1.7,2.53,.79,2.55,2.43,.02,2.16-.03,4.31,.01,6.47,.01,.53-.29,1.44,.6,1.46,.62,.02,1.27-.51,1.3-1.27,.1-2.48,.24-4.97,.18-7.45-.09-3.54,1.34-5.62,5.04-5.8-.14,1.97-.49,3.95-.37,5.9,.26,4.15,2.39,5.19,5.91,3.07,4.02-2.43,6.57-8.38,5.41-12.88-.66-2.55-2.25-3.57-4.8-2.25-1.44,.74-3.03,1.35-3.36,3.25l.08-.08Zm-43.89,18.22c0-1.71,0-2.38,0-3.04,.06-7.63-2.57-9.3-9.37-5.9-6.18,3.09-12.29,6.31-18.51,9.33-4.31,2.09-6.78,5.51-8.42,9.89-1.03,2.75-.84,5.56-1.06,8.32-.7,8.42-1.28,16.86-1.51,25.3-.17,6.28,2.84,7.99,8.44,5.22,6.51-3.22,12.97-6.54,19.51-9.7,5.57-2.7,8.25-7.21,9.12-13.18,1.31-9.06,.34-18.25,1.81-26.24Zm-88.09,47.78c-.09,8.23,5.48,14.19,13.28,14.2,9.51,.01,17.7-7.49,17.9-16.4,.17-7.5-6.47-14.1-14.27-14.18-9.49-.09-16.8,6.99-16.91,16.39Zm217.91-101.8c0,.5-.08,1,.02,1.48,.23,1.18-.84,3.16,.63,3.39,1.93,.3,1.29-1.81,1.48-2.97,.56-3.45,2.15-3.77,4.65-1.63,.57,.49,.99,1.43,1.99,.87,.59-.33,1.29-1.24,.89-1.55-3.33-2.51,.04-4.56,.39-6.78,.37-2.37,1.19-4.88-2.53-4.97-3.18-.07-6.57,3.08-6.94,6.23-.23,1.97-.39,3.94-.57,5.92Zm-50.03,19.44c-.66-1.3-1.91-1.93-3.51-1.42-2.8,.89-4.92,2.79-6.17,5.37-.6,1.24-.98,3,.1,4.25,1.03,1.19,2.48,.31,3.73,.13,1.14-.16,2.54-1.85,3.31-.09,.54,1.23-1.01,2.25-1.97,3.15-.92,.87-1.97,1.18-3.18,.98-.97-.16-1.99-1.54-2.86,.19-.46,.91-.08,1.62,.51,2.22,.95,.96,2.13,.8,3.21,.29,2.73-1.27,5.26-2.77,6.33-5.88,.51-1.47,1-2.95-.17-4.18-1.18-1.25-2.4,.09-3.63,.25-1.18,.16-2.63,2-3.45,.41-.98-1.9,1.06-2.83,2.38-3.75,1.02-.71,2.14-.58,3.32-.19,1.11,.36,1.86-.16,2.04-1.73Zm-59.81,33.17c0-1.41,.08-2.25-.02-3.06-.11-.84,.62-2.26-.78-2.34-1.23-.07-1.25,1.28-1.32,2.25-.15,2.14-.43,4.3-.35,6.44,.06,1.57-.15,3.48,1.66,4.38,1.98,.99,3.51-.4,4.94-1.38,3.05-2.07,5.82-11.12,4.76-15.01-.11-.41-.06-1.02-.77-1.01-.79,.01-1.17,.47-1.25,1.2-.31,2.63-.63,5.25-.89,7.89-.28,2.89-1.66,5.72-4.5,5.48-2.98-.25-1.02-3.54-1.48-4.83Zm98.61-48.39c0,1.66,0,3.32,0,4.98,0,.86,.17,2.01,1.23,1.54,2.53-1.13,5.21-2.06,7.33-3.94,.28-.25,.43-.91,.3-1.27-.2-.58-.79-.43-1.25-.22-.75,.35-1.45,.9-2.23,1.07-1.02,.23-2.13,2.28-3.09,.34-.76-1.55,.26-2.73,1.85-3.44,1.5-.67,2.94-1.51,4.33-2.38,.33-.2,.64-.96,.51-1.25-.3-.66-.9-.78-1.61-.3-.67,.46-1.42,.84-2.18,1.13-.91,.34-2.06,1.66-2.75,.54-.64-1.03-.37-2.7,.96-3.52,1.54-.95,3.19-1.71,4.81-2.52,.83-.41,1.37-.99,.82-1.87-.49-.77-1.21-.15-1.78,.03-6.23,2.06-6.96,3.21-7.27,11.06Zm-114.56,63.42c.18,.26,.44,.91,.67,.9,.4-.02,.94-.36,1.14-.72,.47-.86,.68-1.86,1.18-2.7,1.41-2.42,3.62-3.58,6.37-3.37,.78,.06,.6,2.73,2.22,1.24,.87-.8,.51-2.19,.07-3.28-1.06-2.58-2.14-5.15-3.29-7.69-.44-.96-1.52-1.9-2.1-.52-2.22,5.25-4.14,10.63-6.25,16.14Zm49.8-30.94c-.05,1.16,.01,2.33-.17,3.46-.66,3.94,1.02,3.77,3.62,2.14,.55-.35,1.21-.57,1.68-1,.44-.4,1.06-1.1,.95-1.49-.21-.81-1.04-.57-1.61-.26-2.67,1.47-2.48-.31-2.41-2.06,.07-1.82-.04-3.65,.14-5.45,.22-2.28,2.15-2.95,3.91-3.03,2.17-.1,1.74,1.88,1.94,3.29,.27,1.93-.66,3.52-1.3,5.19-.17,.44-.5,.9,.08,1.23,.21,.12,.59,.08,.83-.03,2.42-1.15,3.5-10.12,1.41-11.8-.94-.76-1.9-.83-3.2-.42-4.86,1.55-5.65,2.76-5.87,10.22Zm27.05-13.12c.14,1.46,.13,3.28,1.68,4.26,1.8,1.14,3.44,.13,5.07-.79,1.86-1.05,2.8-2.78,3.77-4.51,.2-.35,.27-1.07,.05-1.3-.69-.75-1.11,.04-1.49,.48-.87,.99-1.6,2.12-2.55,3.02-1.93,1.83-3.26,1.02-4.06-1.18-1.24-3.4,1.94-8.71,5.49-9.09,1.01-.11,2.29,1.11,2.89-.63,.14-.4,.09-1.11-.17-1.37-1.1-1.09-2.49-.78-3.73-.37-3.36,1.11-6.98,7.09-6.95,11.48Zm26.25-20.68c-1.32,.28-1.59,1.32-1.25,2.24,1.15,3.08,2.31,6.17,3.8,9.09,.9,1.75,1.78,.67,2.27-.59,1.83-4.72,3.67-9.44,5.45-14.17,.13-.35,0-1.07-.25-1.25-.69-.48-1.16-.03-1.43,.66-1.2,3.04-2.39,6.09-3.59,9.13-.24,.61-.51,1.73-.74,1.72-.92-.03-1.06-1.02-1.45-1.7-.96-1.68-1.08-3.82-2.81-5.12Zm44.56-20.87c-.12-.33-.29-.76-.45-1.19-.4,.27-.96,.44-1.17,.81-.81,1.42-1.61,2.87-2.22,4.39-.87,2.16-1.62,3.78-3.34,.54-.43-.81-1.13-2.05-2.22-1.42-1.17,.68-.98,2.02-.15,3,1.99,2.34,3.29,4.85,2.67,8.06-.1,.53-.04,1.44,.95,1.25,.73-.15,1.02-.82,1.03-1.5,.05-4.28,1.93-7.93,3.88-11.56,.38-.71,.65-1.49,1.03-2.38Zm-85.88,49.24c0,1.49-.04,2.98,.02,4.47,.02,.56-.24,1.44,.55,1.55,.62,.08,1.28-.44,1.34-1.2,.33-3.95,.65-7.9,.91-11.85,.03-.4-.24-1.06-.55-1.19-.72-.31-1.23,.17-1.47,.86-.85,2.39-.58,4.9-.8,7.37Z"/>
  <path class="cls-3" d="M282.57,372.52c-12.59-.27-24.76-2.83-36-8.37-76.61-37.78-153.12-75.78-229.71-113.6-3.52-1.74-5.1-3.63-5.02-7.82,.3-15.12,.11-30.24,.12-45.37,0-5.13,.11-5.29,4.75-2.97,22.89,11.45,45.72,23.02,68.61,34.48,20.63,10.33,41.23,20.74,61.9,31,35.08,17.41,69.91,35.34,104.79,53.14,6.57,3.35,13.54,5.38,20.66,7.01,3.55,.82,7.23-.88,10.8,.29-1.07,5.07-.83,10.21-.84,15.34-.03,12.29-.05,24.58-.07,36.87Zm-184.18-105.4h.03c0,3.32-.24,6.67,.06,9.96,.44,4.79,2.17,9.23,6.7,11.52,20.14,10.21,40.33,20.34,60.6,30.29,6.67,3.27,15.88-2.62,16.02-9.95,.09-4.65,.02-9.3-.02-13.95-.05-5.63-2.59-9.82-7.53-12.48-3.36-1.8-6.81-3.43-10.16-5.23-15.79-8.47-31.55-16.99-47.35-25.45-2.48-1.33-4.96-2.75-8-1.75q-10.32,3.38-10.34,14.55c0,.83,0,1.66,0,2.49Zm46.77-2.93l.23,.15,.03-.23-.27,.08Zm2.22,.85l-.17,.22,.27,.04-.1-.26Zm2.13,1.2l-.24-.16-.04,.24,.27-.08Z"/>
  <path class="cls-3" d="M309.44,389.1c0-3.99,.09-7.98-.04-11.96-.08-2.34,.38-3.73,3.14-3.86,10.11-.48,18.77-5.35,27.49-9.69,30.33-15.09,60.56-30.4,90.79-45.68,32.17-16.27,64.18-32.86,96.49-48.84,34.23-16.93,68.19-34.37,102.33-51.49,1.18-.59,2.97-2.85,3.92-.52,.74,1.82,1.14,4.61-1.98,5.84-4.32,1.71-8.57,3.62-12.8,5.54-3.59,1.63-5.85,4.32-6.07,8.41-.29,5.53,4.64,8.82,9.7,6.46,2.86-1.33,5.68-2.75,8.51-4.15,2.3-1.14,2.83-.31,2.73,2.05-.23,5.28-4.12,7.45-8.02,9.24-28.23,12.96-55.49,27.88-83.58,41.1-37.27,17.53-73.65,36.8-110.36,55.43-35.38,17.96-71.13,35.19-106.51,53.15-3.67,1.87-7.61,3.22-11.44,4.77-3.3,1.34-4.52,.14-4.35-3.33,.19-4.15,.05-8.31,.05-12.46,0,0,.01,0,.02,0Z"/>
  <path class="cls-3" d="M283.47,493.48c-7.58-.42-14.51-2.73-21.31-6.17-34.97-17.71-70.07-35.14-105.09-52.73-42.75-21.47-85.48-43-128.2-64.53-3.7-1.87-7.38-3.81-10.93-5.93-3.8-2.27-5.93-5.56-5.91-10.21,.06-13.62-.04-27.24-.04-40.86,0-4.53,.06-4.56,4.14-2.49,57.45,29.21,114.9,58.43,172.35,87.66,19.39,9.87,38.79,19.73,58.15,29.67,9.14,4.69,18.76,7.35,29.06,7.64,2.63,.07,5.32-.13,7.89,.72-.03,19.08-.06,38.16-.09,57.24Zm-196.79-121.07c-2.75,2.27-5.29,.8-7.87-.4-10.84-5.07-21.67-10.16-32.55-15.16-1.18-.54-3.3-2.24-3.76-.52-.78,2.96-.44,6.25-.35,9.39,.07,2.34,2.39,2.56,3.9,3.34,56.85,29.37,113.73,58.71,170.6,88.03,8.82,4.55,8.66,4.52,8.89-5.45,.08-3.66-1-5.64-4.39-7.24-11.42-5.39-22.63-11.25-34.03-16.7-3.37-1.61-5.43-3.68-5.44-7.48,4.46,2.21,8.93,4.4,13.39,6.62,8.76,4.37,17.5,8.8,26.29,13.1,.9,.44,2.24,2.06,3.18-.01,1.17-2.56-.27-6.65-2.89-7.99-14.32-7.36-28.67-14.66-43.01-21.98-2.07-7.77-9.01-9.98-15.09-13.09-18.17-9.29-36.44-18.39-54.56-27.77-4.04-2.09-7.81-3.46-12.13-1.21-13.74-7.03-27.48-14.06-41.22-21.09-3.25-1.66-6.49-3.34-9.72-5.05-1.79-.95-2.56-.77-2.73,1.55-.47,6.22-.34,6.61,5.4,9.55,12.7,6.51,25.39,13.04,38.08,19.56Z"/>
  <path class="cls-6" d="M255.92,388.32c0,4.32-.06,8.64,.02,12.96,.06,2.96-.98,3.38-3.54,2.1-9.08-4.52-18.25-8.83-27.33-13.34-50.89-25.3-101.8-50.57-152.63-76-10.53-5.27-21.42-9.81-31.42-16.15-3.54-2.25-4.9-5.34-5.01-9.13-.17-5.98-.17-11.97-.03-17.95,.1-4.39,1.62-5.16,5.7-3.14,34.84,17.26,69.67,34.55,104.51,51.81,33.95,16.82,67.75,33.97,102.02,50.12,6.65,3.13,8.52,6.37,7.64,12.75-.27,1.96-.04,3.98-.04,5.98,.03,0,.07,0,.1,0Z"/>
  <path class="cls-3" d="M271.6,426.4c9.98,3.49,19.3,1.8,28.14-3.59,2.71-1.65,5.92-3.26,6.93-6.24,1.97-5.8,6.95-7.26,11.65-8.86,3.33-1.14,6.42-2.65,9.56-4.12,34.64-16.13,68.61-33.61,102.79-50.66,31.52-15.73,62.87-31.8,94.37-47.56,34.93-17.46,69.95-34.74,104.93-52.09,4.33-2.15,6.89-5.83,7.9-10.31,.68-3.03,1.7-2.99,3.95-1.76,3.65,1.98,7.39,3.79,11.09,5.67,1.51,.77,3.03,1.59,3.07,3.56,.05,2.2-1.04,3.75-3.02,4.74-4.91,2.44-9.75,5.02-14.71,7.35-26.48,12.43-52.29,26.17-78.41,39.32-39.48,19.89-78.67,40.37-118.26,60.06-40.17,19.98-80.01,40.61-120.1,60.74-16.64,8.35-34.37,10.97-52.83,7.55-.83-2.66,1.91-2.55,2.92-3.78Z"/>
  <path class="cls-6" d="M271.6,426.4c-1.01,1.23-3.75,1.13-2.92,3.78-7.17-.84-13.96-3.19-20.29-6.4-41.64-21.09-83.17-42.42-124.75-63.65-27.82-14.2-55.66-28.37-83.48-42.56-7.99-4.08-15.98-8.16-23.95-12.28-4.41-2.28-4.63-3.97-1.1-7.4,3.9-3.8,8.97-5.62,13.66-8.1,1.69-.89,2.35,.07,2.78,1.58,2,6.93,7.14,10.99,13.23,14.02,66.79,33.22,133.6,66.41,200.41,99.6,2.97,1.48,5.95,2.94,8.96,4.33,.94,.44,1.87,.89,2.26,1.84,2.97,7.18,9.07,11.21,15.19,15.23Z"/>
  <path class="cls-4" d="M283.47,493.48c.03-19.08,.06-38.16,.09-57.24,1.66-.04,3.31-.08,4.97-.12,.86,1.55,1.55,1.25,2.15-.18,9.36-1.13,18.46-3.37,27.39-6.34,8.65,9.37,18,18.03,27.21,26.84l.04,.04c.29,.93,.92,1.54,1.81,1.89,2.66,4.26,1.3,8.97,1.47,13.5,.05,1.44-1.53,1.59-2.49,2.07-10.49,5.21-20.97,10.45-31.53,15.51-5.26,2.51-10.93,3.64-16.76,3.92-.48-.24-.89-.18-1.23,.25-4.38,.53-8.75,.69-13.11-.12Z"/>
  <path class="cls-5" d="M347.13,458.36c-.9-.35-1.53-.96-1.81-1.89,.17-.18,.34-.36,.51-.53-.18,.16-.37,.33-.55,.49-9.21-8.81-18.56-17.46-27.21-26.84,.72-.08,1.44-.16,2.16-.24,2.92,2.02,4.76,5.26,7.93,7,3.36,4.06,7.16,7.68,11.16,11.09q6.42,7.72,14.87,3.66c52.56-25.32,105.13-50.65,157.69-75.98,.75-.36,1.5-.73,2.24-1.09,2.03-1,3.25-.92,2.59,1.87-1.01,4.2-1.99,8.41-2.95,12.62-.5,2.17-2.01,3.23-3.91,4.16-33,16.13-65.94,32.4-98.99,48.45-17.64,8.57-35.45,16.8-53.2,25.16-1.94,.91-3.79,2.1-6,2.32-.09-2.64-.33-5.29-.24-7.92,.12-3.82-1.66-3.75-4.28-2.34Z"/>
  <path class="cls-4" d="M622.94,276.67c.83-1.5,2.04-2.49,3.59-3.28,8.87-4.5,17.7-9.06,26.52-13.67,2.3-1.2,3.81-1.92,3.78,1.92-.14,16.25-.05,32.5-.1,48.74-.01,4.16-1.81,7.19-5.7,9.11-14.57,7.19-29.05,14.54-43.61,21.74-4.01,1.98-4.19,1.74-4.29-2.83-.1-4.32-.06-8.63,1.36-12.78,6.64-16.13,12.73-32.47,18.45-48.95Z"/>
  <path class="cls-4" d="M282.57,372.52c.02-12.29,.04-24.58,.07-36.87,.01-5.13-.24-10.27,.84-15.34,10.84-.09,21.37-2.32,31.7-5.26,4.02-1.15,4.27,.13,4.22,3.5-.22,15.55-.31,31.1-.2,46.65,.01,1.8-.48,2.45-1.85,2.73-11.48,2.34-22.82,5.88-34.78,4.59Z"/>
  <path class="cls-4" d="M656.78,170.48c0,9.32-.06,17.12,.04,24.92,.03,2.35-.37,4.02-2.77,5.17-8.66,4.16-17.24,8.46-25.8,12.83-2.5,1.28-3.09,.6-3.07-2,.07-16.24,.08-32.48,.01-48.72,0-2.1,.69-3.35,2.58-4.28,8.62-4.27,17.22-8.57,25.75-13,2.89-1.5,3.36-.41,3.31,2.26-.18,8.12-.66,16.24-.04,22.83Z"/>
  <path class="cls-2" d="M305.07,393.46c0,4.15-.23,8.32,.06,12.45,.36,5.01-1.65,8.69-5.52,11.52-3.92,2.87-8.16,5.11-13.07,5.75-5.1,.67-6.96-.08-7.78-5.1-1.58-9.59-3.18-19.26-1.64-29.07,.44-2.77,.46-5.6,.89-8.37,.29-1.88,1.05-3.31,3.56-3.17,6.49,.36,12.91-.51,19.26-1.73,3.25-.62,4.49,.34,4.29,3.79-.26,4.63-.07,9.29-.06,13.94Z"/>
  <path class="cls-5" d="M285.13,509.13c-9.79,.44-19.27-.55-28.06-5.22-2.37-1.26-5.2-2.38-4.22-5.8,.86-2.97,3.59-2.73,6.15-3.02,6.11-.69,11.83,1.5,17.66,2.37,14.8,2.21,28.53-.5,42.24-5.84,8.7-3.39,16.79-7.92,25.27-11.66,1.96-.86,4.09-2.75,6.44-.87,2.84,2.26,2.2,5.42-1.75,7.36-11.18,5.49-22.32,11.07-33.5,16.56-9.73,4.77-19.68,6.63-30.24,6.12Z"/>
  <path class="cls-5" d="M663.93,319.43c.68,5.4-2.03,9.02-6.47,11.3-13,6.66-26.14,13.03-39.14,19.68-4.91,2.51-4.54-2.28-6.03-4.16-2.1-2.66,1.1-2.86,2.32-3.48,12.12-6.18,24.3-12.24,36.49-18.29,4.51-2.24,7.56-5.8,9.72-10.22,.31-.64-.25-1.94,.95-1.82,.63,.06,1.37,.94,1.71,1.62,.85,1.7,.33,3.59,.44,5.38Z"/>
  <path class="cls-5" d="M660.7,213.28c-1.58,3.34-1.89,7.23-5.72,9.07-11.36,5.44-22.68,10.98-34.03,16.44-1.13,.54-2.47,1.62-3.56,.15-.88-1.2-.15-2.49,.37-3.74,.88-2.09,2.79-2.77,4.6-3.54,9.12-3.92,18.15-8.1,27.46-11.52,3.83-1.4,5.78-4.15,8.14-6.84,.53-.6,1.12-1.37,2.07-1.07,.31,.1,.47,.71,.67,1.05Z"/>
  <path class="cls-5" d="M622.94,276.67c-5.72,16.48-11.82,32.82-18.45,48.95-.9,.28-1.81,.56-2.71,.83,6.4-13.79,11.04-28.27,16.54-42.41,.8-2.05,2.32-4.03,1.64-6.49l-.04,.1c1.01,.4,.81-.55,1.08-.97h1.95Z"/>
  <path class="cls-3" d="M290.68,435.94c-.6,1.44-1.3,1.74-2.15,.18,.66-.7,1.39-.6,2.15-.18Z"/>
  <path class="cls-4" d="M620.99,276.68c-.27,.43-.06,1.37-1.08,.97-.34-1.1,.55-.83,1.08-.97Z"/>
  <path class="cls-3" d="M296.58,493.6c.34-.43,.76-.49,1.23-.25-.34,.44-.73,.61-1.23,.25Z"/>
  <path class="cls-2" d="M339.32,447.46c-4.01-3.41-7.8-7.04-11.16-11.09,44.49-22.1,88.97-44.21,133.46-66.29,20.54-10.19,41.09-20.35,61.67-30.47,1.06-.52,2.26-2.02,3.41-.97,.87,.79-.23,2.18-.52,3.26-1.57,5.75-1.26,12.86-5.16,16.88-4.15,4.27-10.89,6.08-16.57,8.81-53.29,25.69-106.59,51.34-159.88,77.02-1.79,.86-3.5,1.9-5.25,2.85Z"/>
  <path class="cls-7" d="M435.35,272.89c-1.47,7.99-.5,17.18-1.81,26.24-.86,5.98-3.55,10.49-9.12,13.18-6.54,3.17-13,6.49-19.51,9.7-5.6,2.77-8.61,1.06-8.44-5.22,.23-8.44,.82-16.88,1.51-25.3,.23-2.76,.03-5.57,1.06-8.32,1.64-4.38,4.12-7.79,8.42-9.89,6.21-3.02,12.33-6.24,18.51-9.33,6.8-3.4,9.43-1.74,9.37,5.9,0,.66,0,1.33,0,3.04Zm-16.19,14.6c-1.53-.79-1.1-2.52-1.74-3.74-.5-.96-.41-2.48-1.89-2.4-1.1,.06-2.25,.61-2.8,1.77-.43,.89-.84,1.8-1.14,2.74-2.3,7.18-4.61,14.35-6.83,21.56-.34,1.1-1.36,2.8,.14,3.34,1.23,.44,2.26-1.06,2.76-2.36,.3-.76,.48-1.57,.72-2.35,1.5-4.85,2.93-9.73,4.58-14.53,.31-.91-.3-2.78,1.3-2.67,1.45,.1,.94,1.86,1.25,2.9,1,3.32,1.92,6.65,2.92,9.97,.28,.93,.62,2.06,1.97,1.51,.85-.35,1.91-.64,1.94-1.95,.02-1.35-.41-2.58-.72-3.86-.81-3.34-2.64-6.42-2.55-9.98,1.68-1.75,1.1,4.86,3.2,.92,2.07-3.88,3.83-7.93,5.71-11.91,.27-.58,.64-1.4-.12-1.73-.45-.19-1.21,.17-1.76,.43-1.45,.68-2,2.14-2.65,3.44-1.47,2.95-2.86,5.93-4.28,8.91Z"/>
  <path class="cls-7" d="M347.26,320.67c.11-9.39,7.42-16.48,16.91-16.39,7.8,.08,14.44,6.68,14.27,14.18-.2,8.91-8.39,16.41-17.9,16.4-7.8,0-13.37-5.97-13.28-14.2Zm4.26,5.85c.06,.47,.12,.93,.18,1.4,.19-.09,.38-.19,.57-.28-.28-.35-.56-.7-.83-1.05-.43-3.35-1.57-6.69-.11-10.08,.15-.35-.19-.9-.3-1.36-.25,.38-.62,.72-.73,1.14-.99,3.57-2.27,7.19,1.23,10.23Zm24.72-8.01c-.01-5.18-3.5-9.37-7.7-9.24-4.85,.14-8.98,5.4-8.91,11.34,.06,4.91,3.75,9.36,7.75,9.35,4.56,0,8.87-5.57,8.86-11.45Zm-23.75,2.56c-.1,4.07,1.83,6.89,5.42,8.64,.54,.26,1.35,.51,1.79,.28,.83-.42,.26-1.14-.1-1.65-3.98-5.69-2.42-11.23,.42-16.75,.26-.51,1.15-.95,.46-1.62-.53-.51-1.21-.15-1.83,.08-3.52,1.3-6.11,5.91-6.16,11.02Zm7.76,11.5c1.1-.23,2.57,.71,3.18-.68,.16-.36-1.4-.43-2.13-.3-1.27,.22-2.72-.64-3.83,.58,.84,.72,1.86,.21,2.78,.4Zm-6.03-21.65c-.21-.27-.36-.48-.52-.69-.34,.34-.79,.62-.97,1.03-.19,.42-.09,1.06,.62,.73,.38-.18,.6-.71,.87-1.06Z"/>
  <path class="cls-7" d="M565.17,218.87c.19-1.97,.34-3.95,.57-5.92,.37-3.15,3.76-6.3,6.94-6.23,3.72,.09,2.9,2.6,2.53,4.97-.35,2.21-3.73,4.26-.39,6.78,.4,.3-.3,1.21-.89,1.55-1,.56-1.42-.39-1.99-.87-2.5-2.14-4.09-1.82-4.65,1.63-.19,1.16,.45,3.27-1.48,2.97-1.47-.23-.4-2.21-.63-3.39-.09-.48-.02-.99-.02-1.49Zm8.01-7.29c-.01-1.21-.09-2.47-1.47-2.14-1.88,.45-4.01,1.01-3.75,3.73,.08,.85-.55,2.52,.8,2.31,2.13-.33,3.93-1.65,4.42-3.89Z"/>
  <path class="cls-7" d="M515.14,238.31c-.18,1.57-.93,2.09-2.04,1.73-1.18-.38-2.3-.52-3.32,.19-1.32,.92-3.35,1.85-2.38,3.75,.82,1.59,2.27-.25,3.45-.41,1.22-.16,2.44-1.5,3.63-.25,1.16,1.23,.67,2.71,.17,4.18-1.08,3.11-3.6,4.61-6.33,5.88-1.09,.51-2.26,.67-3.21-.29-.59-.59-.97-1.3-.51-2.22,.87-1.73,1.89-.34,2.86-.19,1.21,.2,2.27-.11,3.18-.98,.96-.91,2.51-1.92,1.97-3.15-.77-1.76-2.17-.07-3.31,.09-1.25,.17-2.7,1.06-3.73-.13-1.08-1.25-.71-3-.1-4.25,1.26-2.58,3.37-4.49,6.17-5.37,1.6-.51,2.85,.12,3.51,1.42Z"/>
  <path class="cls-7" d="M476.26,257.77c1.58-.47,1.1-2.91,2.97-3.1,.9,2.76-1.75,4.95-1.11,7.8,.52,2.3,1.67,2.69,3.49,2.02,2.4-.89,4.52-6.49,3.45-9.1-1.59-3.89-3.71,.07-5.55-.31-.14-.03-.24-.22-.35-.34,.33-1.9,1.93-2.51,3.36-3.25,2.55-1.32,4.14-.3,4.8,2.25,1.17,4.5-1.39,10.45-5.41,12.88-3.51,2.12-5.64,1.08-5.91-3.07-.12-1.95,.23-3.93,.37-5.9l-.1,.11Z"/>
  <path class="cls-7" d="M532.04,227.82c1.28-2.55,3.47-3.91,6.05-2.73,2.43,1.11,2.4,3.91,1.91,6.17-.85,3.94-2.42,7.62-6.4,9.47-2.91,1.35-5.06,.26-5.26-2.93-.24-3.8,.31-7.54,3.78-10.05,1.1,2.61-1.71,4.23-1.65,6.61,.04,1.55,.07,3.16,1.48,3.98,1.73,1,2.82-.58,3.71-1.65,1.73-2.09,2.77-4.55,2.03-7.32-.96-3.58-3.95-.3-5.65-1.54Z"/>
  <path class="cls-7" d="M455.32,271.49c.46,1.29-1.49,4.58,1.48,4.83,2.84,.24,4.21-2.59,4.5-5.48,.26-2.63,.58-5.26,.89-7.89,.08-.72,.46-1.19,1.25-1.2,.72-.01,.66,.6,.77,1.01,1.06,3.89-1.71,12.93-4.76,15.01-1.43,.97-2.96,2.36-4.94,1.38-1.81-.9-1.6-2.81-1.66-4.38-.08-2.14,.2-4.29,.35-6.44,.07-.97,.09-2.33,1.32-2.25,1.4,.09,.67,1.5,.78,2.34,.11,.81,.02,1.65,.02,3.06Z"/>
  <path class="cls-7" d="M553.93,223.09c.3-7.85,1.04-9.01,7.27-11.06,.57-.19,1.29-.8,1.78-.03,.55,.87,0,1.45-.82,1.87-1.62,.81-3.27,1.58-4.81,2.52-1.33,.82-1.6,2.48-.96,3.52,.69,1.12,1.84-.19,2.75-.54,.76-.29,1.51-.67,2.18-1.13,.7-.48,1.3-.36,1.61,.3,.14,.29-.18,1.05-.51,1.25-1.4,.87-2.83,1.71-4.33,2.38-1.59,.71-2.61,1.89-1.85,3.44,.95,1.94,2.06-.11,3.09-.34,.78-.18,1.48-.73,2.23-1.07,.45-.21,1.05-.36,1.25,.22,.12,.36-.03,1.02-.3,1.27-2.12,1.88-4.8,2.81-7.33,3.94-1.07,.48-1.23-.68-1.23-1.54,0-1.66,0-3.32,0-4.98Z"/>
  <path class="cls-7" d="M439.37,286.52c2.1-5.51,4.03-10.89,6.25-16.14,.58-1.38,1.67-.44,2.1,.52,1.15,2.54,2.23,5.11,3.29,7.69,.45,1.09,.8,2.48-.07,3.28-1.63,1.49-1.45-1.18-2.22-1.24-2.75-.21-4.96,.95-6.37,3.37-.49,.84-.7,1.84-1.18,2.7-.2,.36-.73,.7-1.14,.72-.23,.01-.49-.64-.67-.9Zm6.47-11.79c-.49,1.08-1.07,2.15-1.43,3.29-.12,.36-.27,1.48,.89,1.06,1.07-.39,2.24-.75,2.06-2.28-.1-.86-.43-1.56-1.52-2.06Z"/>
  <path class="cls-7" d="M489.17,255.58c.23-7.46,1.02-8.67,5.88-10.22,1.29-.41,2.25-.33,3.2,.42,2.09,1.68,1.01,10.65-1.41,11.8-.23,.11-.62,.15-.83,.03-.58-.33-.25-.8-.08-1.23,.64-1.68,1.57-3.27,1.3-5.19-.2-1.42,.24-3.39-1.94-3.29-1.76,.08-3.69,.76-3.91,3.03-.18,1.8-.06,3.63-.14,5.45-.07,1.75-.27,3.52,2.41,2.06,.56-.31,1.4-.55,1.61,.26,.1,.4-.51,1.09-.95,1.49-.47,.43-1.13,.65-1.68,1-2.6,1.63-4.28,1.81-3.62-2.14,.19-1.13,.12-2.31,.17-3.46Z"/>
  <path class="cls-7" d="M516.22,242.46c-.03-4.4,3.6-10.37,6.95-11.48,1.24-.41,2.63-.72,3.73,.37,.26,.26,.31,.97,.17,1.37-.6,1.74-1.88,.53-2.89,.63-3.55,.37-6.72,5.68-5.49,9.09,.8,2.2,2.13,3.01,4.06,1.18,.95-.9,1.68-2.03,2.55-3.02,.39-.44,.81-1.23,1.49-.48,.21,.23,.14,.95-.05,1.3-.97,1.73-1.91,3.47-3.77,4.51-1.63,.92-3.27,1.93-5.07,.79-1.55-.99-1.54-2.81-1.68-4.26Z"/>
  <path class="cls-7" d="M542.47,221.78c1.74,1.3,1.86,3.45,2.81,5.12,.39,.68,.53,1.67,1.45,1.7,.23,0,.5-1.12,.74-1.72,1.2-3.04,2.4-6.08,3.59-9.13,.27-.69,.74-1.14,1.43-.66,.26,.18,.39,.9,.25,1.25-1.78,4.74-3.62,9.45-5.45,14.17-.49,1.26-1.37,2.34-2.27,.59-1.5-2.91-2.66-6.01-3.8-9.09-.34-.92-.07-1.96,1.25-2.24Z"/>
  <path class="cls-7" d="M587.04,200.91c-.38,.89-.65,1.67-1.03,2.38-1.95,3.64-3.83,7.29-3.88,11.56,0,.68-.3,1.35-1.03,1.5-1,.2-1.06-.71-.95-1.25,.62-3.21-.68-5.72-2.67-8.06-.83-.98-1.02-2.31,.15-3,1.09-.64,1.79,.61,2.22,1.42,1.73,3.25,2.48,1.62,3.34-.54,.61-1.52,1.41-2.96,2.22-4.39,.21-.37,.77-.55,1.17-.81,.16,.43,.33,.86,.45,1.19Z"/>
  <path class="cls-7" d="M476.37,257.66c-3.69,.19-5.13,2.27-5.04,5.8,.06,2.48-.08,4.97-.18,7.45-.03,.76-.68,1.29-1.3,1.27-.88-.02-.59-.93-.6-1.46-.05-2.16,0-4.31-.01-6.47-.02-1.64,.73-4.13-2.55-2.43-.29,.15-.82-.19-1.25-.3,.17-.44,.22-1.05,.54-1.28,2.82-1.96,5.83-3.67,9.11-4.64,2.34-.69-.01,1.84,1.18,2.16l.1-.11Z"/>
  <path class="cls-7" d="M501.16,250.15c.22-2.46-.05-4.97,.8-7.37,.25-.69,.75-1.17,1.47-.86,.31,.13,.57,.79,.55,1.19-.26,3.95-.57,7.9-.91,11.85-.06,.76-.73,1.28-1.34,1.2-.79-.1-.53-.99-.55-1.55-.05-1.49-.02-2.98-.01-4.47Z"/>
  <path class="cls-7" d="M98.38,267.12c0-.83,0-1.66,0-2.49q.01-11.18,10.34-14.55c3.04-1,5.53,.43,8,1.75,15.79,8.46,31.56,16.98,47.35,25.45,3.36,1.8,6.81,3.43,10.16,5.23,4.95,2.66,7.48,6.85,7.53,12.48,.04,4.65,.11,9.3,.02,13.95-.14,7.33-9.35,13.23-16.02,9.95-20.27-9.96-40.45-20.08-60.6-30.29-4.53-2.29-6.26-6.73-6.7-11.52-.3-3.29-.06-6.64-.06-9.96h-.03Zm80.34,35.23s.04,0,.06,0c0-2.99,.07-5.98-.02-8.96-.08-2.35-.67-4.61-2.28-6.4-1.38-1.53-3.3-1.99-4.92-.81-1.49,1.08-.66,2.64,.19,3.97,1.78,2.75,2.15,5.82,2.06,9.04-.11,4.15-.08,8.3,.01,12.45,.03,1.35-.71,3.46,1.41,3.67,2.1,.2,3.33-1.51,3.44-3.49,.18-3.14,.05-6.3,.05-9.46Z"/>
  <polygon class="cls-6" points="145.15 264.19 145.42 264.11 145.39 264.34 145.15 264.19"/>
  <polygon class="cls-6" points="147.37 265.03 147.47 265.3 147.2 265.26 147.37 265.03"/>
  <polygon class="cls-6" points="149.5 266.24 149.22 266.32 149.26 266.08 149.5 266.24"/>
  <path class="cls-5" d="M96.87,367.88c4.32-2.25,8.09-.88,12.13,1.21,18.12,9.38,36.39,18.48,54.56,27.77,6.08,3.11,13.02,5.32,15.09,13.09,.12,3.68,1.72,6.93,3.03,10.26,.02,3.81,2.08,5.87,5.44,7.48,11.4,5.45,22.61,11.31,34.03,16.7,3.39,1.6,4.47,3.59,4.39,7.24-.22,9.98-.06,10-8.89,5.45-56.88-29.33-113.75-58.66-170.6-88.03-1.51-.78-3.83-1-3.9-3.34-.09-3.14-.43-6.43,.35-9.39,.45-1.72,2.58-.02,3.76,.52,10.88,5,21.71,10.08,32.55,15.16,2.58,1.2,5.12,2.67,7.87,.4,3.59-1.08,6.96-2.63,10.19-4.52Z"/>
  <path class="cls-2" d="M96.87,367.88c-3.23,1.89-6.61,3.44-10.19,4.52-12.69-6.52-25.38-13.05-38.08-19.56-5.74-2.94-5.87-3.34-5.4-9.55,.18-2.32,.94-2.5,2.73-1.55,3.23,1.71,6.47,3.38,9.72,5.05,13.74,7.04,27.48,14.06,41.22,21.09Z"/>
  <path class="cls-2" d="M181.68,420.21c-1.31-3.33-2.91-6.58-3.03-10.26,14.34,7.32,28.69,14.63,43.01,21.98,2.61,1.34,4.05,5.43,2.89,7.99-.95,2.07-2.28,.45-3.18,.01-8.8-4.3-17.53-8.73-26.29-13.1-4.45-2.22-8.92-4.41-13.39-6.62Z"/>
  <path class="cls-7" d="M345.28,456.43c.18-.16,.37-.33,.55-.49-.17,.18-.34,.36-.51,.53l-.04-.04Z"/>
  <path class="cls-1" d="M419.06,287.44c-.09,3.56,1.74,6.64,2.55,9.98,.31,1.29,.74,2.51,.72,3.86-.02,1.3-1.08,1.6-1.94,1.95-1.35,.55-1.69-.58-1.97-1.51-1-3.32-1.92-6.65-2.92-9.97-.31-1.03,.2-2.8-1.25-2.9-1.6-.11-.98,1.76-1.3,2.67-1.65,4.8-3.08,9.68-4.58,14.53-.24,.78-.43,1.59-.72,2.35-.51,1.29-1.53,2.8-2.76,2.36-1.51-.54-.48-2.24-.14-3.34,2.23-7.2,4.53-14.38,6.83-21.56,.3-.94,.72-1.85,1.14-2.74,.55-1.16,1.7-1.71,2.8-1.77,1.48-.08,1.39,1.44,1.89,2.4,.64,1.23,.21,2.95,1.74,3.74l-.1-.05Z"/>
  <path class="cls-1" d="M419.16,287.49c1.42-2.97,2.81-5.96,4.28-8.91,.65-1.31,1.2-2.76,2.65-3.44,.55-.26,1.32-.62,1.76-.43,.76,.33,.39,1.15,.12,1.73-1.87,3.98-3.63,8.03-5.71,11.91-2.11,3.94-1.52-2.67-3.2-.92l.1,.05Z"/>
  <path class="cls-2" d="M376.24,318.51c.01,5.88-4.3,11.44-8.86,11.45-4.01,0-7.69-4.44-7.75-9.35-.07-5.94,4.06-11.19,8.91-11.34,4.2-.13,7.69,4.06,7.7,9.24Z"/>
  <path class="cls-5" d="M352.48,321.07c.05-5.1,2.64-9.72,6.16-11.02,.62-.23,1.31-.59,1.83-.08,.69,.67-.2,1.11-.46,1.62-2.84,5.52-4.4,11.06-.42,16.75,.36,.51,.93,1.23,.1,1.65-.44,.23-1.26-.02-1.79-.28-3.59-1.75-5.52-4.57-5.42-8.64Z"/>
  <path class="cls-6" d="M351.52,326.52c-3.49-3.04-2.22-6.66-1.23-10.23,.12-.42,.48-.76,.73-1.14,.11,.46,.45,1.01,.3,1.36-1.45,3.39-.32,6.72,.11,10.08l.08-.07Z"/>
  <path class="cls-5" d="M360.25,332.57c-.92-.19-1.94,.32-2.78-.4,1.11-1.22,2.55-.36,3.83-.58,.73-.13,2.29-.06,2.13,.3-.61,1.39-2.08,.45-3.18,.68Z"/>
  <path class="cls-5" d="M354.22,310.93c-.28,.36-.49,.89-.87,1.06-.71,.33-.81-.31-.62-.73,.18-.41,.64-.69,.97-1.03,.16,.21,.31,.42,.52,.69Z"/>
  <path class="cls-6" d="M351.44,326.59c.28,.35,.56,.7,.83,1.05-.19,.09-.38,.19-.57,.28-.06-.47-.12-.93-.18-1.4,0,0-.08,.07-.08,.07Z"/>
  <path class="cls-4" d="M573.18,211.58c-.49,2.25-2.29,3.56-4.42,3.89-1.34,.21-.71-1.46-.8-2.31-.26-2.72,1.87-3.27,3.75-3.73,1.38-.33,1.46,.94,1.47,2.14Z"/>
  <path class="cls-4" d="M479.16,254.75c.12,.12,.22,.31,.35,.34,1.84,.38,3.96-3.58,5.55,.31,1.07,2.61-1.05,8.21-3.45,9.1-1.82,.68-2.97,.28-3.49-2.02-.64-2.85,2.01-5.05,1.11-7.8l-.08,.08Z"/>
  <path class="cls-4" d="M532.04,227.82c1.7,1.23,4.68-2.05,5.65,1.54,.74,2.77-.3,5.23-2.03,7.32-.89,1.07-1.98,2.65-3.71,1.65-1.41-.82-1.44-2.43-1.48-3.98-.06-2.38,2.75-4,1.65-6.61l-.08,.08Z"/>
  <path class="cls-3" d="M445.84,274.73c1.09,.5,1.43,1.2,1.52,2.06,.17,1.53-.99,1.89-2.06,2.28-1.16,.42-1-.69-.89-1.06,.36-1.14,.94-2.2,1.43-3.29Z"/>
  <path class="cls-5" d="M178.72,302.35c0,3.15,.13,6.31-.05,9.46-.12,1.98-1.34,3.7-3.44,3.49-2.12-.21-1.37-2.32-1.41-3.67-.09-4.15-.12-8.3-.01-12.45,.08-3.22-.29-6.28-2.06-9.04-.86-1.33-1.68-2.89-.19-3.97,1.62-1.18,3.54-.72,4.92,.81,1.62,1.8,2.21,4.06,2.28,6.4,.1,2.98,.02,5.98,.02,8.96-.02,0-.04,0-.06,0Z"/>
</svg>